{
.appVersion = "3151";
.formatVersion = 3;
classes = (
{
automatic = 1;

glyphs = (
{
color = 6;
glyphname = A;
kernLeft = KO_A;
kernRight = KO_A;
lastChange = "2023-03-03 08:40:39 +0000";
layers = (
{
anchors = (
{
name = bottom;
pos = (479,0);
},
{
name = ogonek;
pos = (861,10);
},
{
name = top;
pos = (479,1708);
}
);
background = {
anchors = (
{
name = bottom;
pos = (479,0);
},
{
name = ogonek;
pos = (861,10);
},
{
name = top;
pos = (479,1708);
}
);
shapes = (
{
closed = 1;
nodes = (
(14,0,l),
(275,0,l),
(320,306,l),
(636,306,l),
(683,0,l),
(943,0,l),
(624,1708,l),
(332,1708,l)
);
},
{
closed = 1;
nodes = (
(350,501,l),
(473,1356,l),
(484,1356,l),
(606,501,l)
);
}
);
};
layerId = "043639A7-E62C-4A4F-99F5-E7AE759848D8";
shapes = (
{
closed = 1;
nodes = (
(14,0,l),
(275,0,l),
(320,306,l),
(636,306,l),
(683,0,l),
(943,0,l),
(624,1708,l),
(332,1708,l)
);
},
{
closed = 1;
nodes = (
(350,501,l),
(473,1356,l),
(484,1356,l),
(606,501,l)
);
}
);
width = 957;
}
);
unicode = 65;
userData = {
KernOnName = A;
com.typemytype.robofont.mark = (
1,
0.6,
0.6,
1
);
};
},
{
color = 10;
glyphname = Aacute;
kernLeft = KO_A;
kernRight = KO_A;
lastChange = "2023-03-03 08:40:48 +0000";
layers = (
{
background = {
anchors = (
{
name = bottom;
pos = (479,0);
},
{
name = ogonek;
pos = (861,10);
},
{
name = top;
pos = (479,2086);
}
);
shapes = (
{
closed = 1;
nodes = (
(14,0,l),
(275,0,l),
(320,306,l),
(636,306,l),
(683,0,l),
(943,0,l),
(624,1708,l),
(332,1708,l)
);
},
{
closed = 1;
nodes = (
(350,501,l),
(473,1356,l),
(484,1356,l),
(606,501,l)
);
},
{
closed = 1;
nodes = (
(764,2029,l),
(595,2156,l),
(354,1870,l),
(479,1776,l)
);
}
);
};
layerId = "043639A7-E62C-4A4F-99F5-E7AE759848D8";
shapes = (
{
ref = A;
},
{
pos = (354,0);
ref = acutecomb.case;
}
);
width = 957;
}
);
unicode = 193;
userData = {
com.typemytype.robofont.mark = (
0.6,
0.986,
1,
1
);
};
},
{
color = 10;
glyphname = Abreve;
kernLeft = KO_A;
kernRight = KO_A;
lastChange = "2023-03-03 08:40:48 +0000";
layers = (
{
background = {
anchors = (
{
name = bottom;
pos = (479,0);
},
{
name = ogonek;
pos = (861,10);
},
{
name = top;
pos = (479,2089);
}
);
shapes = (
{
closed = 1;
nodes = (
(14,0,l),
(275,0,l),
(320,306,l),
(636,306,l),
(683,0,l),
(943,0,l),
(624,1708,l),
(332,1708,l)
);
},
{
closed = 1;
nodes = (
(350,501,l),
(473,1356,l),
(484,1356,l),
(606,501,l)
);
},
{
closed = 1;
nodes = (
(474,1786,cs),
(261,1786,o),
(160,1896,o),
(160,2052,cs),
(160,2075,o),
(162,2097,o),
(166,2119,c),
(344,2119,l),
(335,2097,o),
(334,2073,o),
(334,2048,cs),
(334,1978,o),
(379,1949,o),
(473,1949,cs),
(579,1949,o),
(631,1981,o),
(631,2048,cs),
(631,2073,o),
(634,2098,o),
(623,2119,c),
(792,2119,l),
(796,2097,o),
(798,2075,o),
(798,2052,cs),
(798,1904,o),
(692,1786,o)
);
}
);
};
layerId = "043639A7-E62C-4A4F-99F5-E7AE759848D8";
shapes = (
{
ref = A;
},
{
pos = (474,0);
ref = brevecomb.case;
}
);
width = 957;
}
);
unicode = 258;
userData = {
com.typemytype.robofont.mark = (
0.6,
0.986,
1,
1
);
};
},
{
color = 10;
glyphname = Abreveacute;
kernLeft = KO_A;
kernRight = KO_A;
lastChange = "2023-03-03 08:40:48 +0000";
layers = (
{
background = {
anchors = (
{
name = bottom;
pos = (479,0);
},
{
name = ogonek;
pos = (861,10);
},
{
name = top;
pos = (479,2467);
}
);
shapes = (
{
closed = 1;
nodes = (
(14,0,l),
(275,0,l),
(320,306,l),
(636,306,l),
(683,0,l),
(943,0,l),
(624,1708,l),
(332,1708,l)
);
},
{
closed = 1;
nodes = (
(350,501,l),
(473,1356,l),
(484,1356,l),
(606,501,l)
);
},
{
closed = 1;
nodes = (
(474,1786,cs),
(261,1786,o),
(160,1896,o),
(160,2052,cs),
(160,2075,o),
(162,2097,o),
(166,2119,c),
(344,2119,l),
(335,2097,o),
(334,2073,o),
(334,2048,cs),
(334,1978,o),
(379,1949,o),
(473,1949,cs),
(579,1949,o),
(631,1981,o),
(631,2048,cs),
(631,2073,o),
(634,2098,o),
(623,2119,c),
(792,2119,l),
(796,2097,o),
(798,2075,o),
(798,2052,cs),
(798,1904,o),
(692,1786,o)
);
},
{
closed = 1;
nodes = (
(764,2410,l),
(595,2537,l),
(354,2251,l),
(479,2157,l)
);
}
);
};
layerId = "043639A7-E62C-4A4F-99F5-E7AE759848D8";
shapes = (
{
ref = A;
},
{
pos = (474,0);
ref = brevecomb.case;
},
{
pos = (354,381);
ref = acutecomb.case;
}
);
width = 957;
}
);
unicode = 7854;
},
{
color = 10;
glyphname = Abrevedotbelow;
kernLeft = KO_A;
kernRight = KO_A;
lastChange = "2023-03-03 08:40:48 +0000";
layers = (
{
background = {
anchors = (
{
name = bottom;
pos = (479,-425);
},
{
name = ogonek;
pos = (861,10);
},
{
name = top;
pos = (479,2089);
}
);
shapes = (
{
closed = 1;
nodes = (
(14,0,l),
(275,0,l),
(320,306,l),
(636,306,l),
(683,0,l),
(943,0,l),
(624,1708,l),
(332,1708,l)
);
},
{
closed = 1;
nodes = (
(350,501,l),
(473,1356,l),
(484,1356,l),
(606,501,l)
);
},
{
closed = 1;
nodes = (
(322,-364,o),
(384,-425,o),
(477,-425,cs),
(576,-425,o),
(635,-361,o),
(635,-257,cs),
(635,-146,o),
(577,-94,o),
(478,-94,cs),
(383,-94,o),
(322,-138,o),
(322,-257,cs)
);
},
{
closed = 1;
nodes = (
(474,1786,cs),
(261,1786,o),
(160,1896,o),
(160,2052,cs),
(160,2075,o),
(162,2097,o),
(166,2119,c),
(344,2119,l),
(335,2097,o),
(334,2073,o),
(334,2048,cs),
(334,1978,o),
(379,1949,o),
(473,1949,cs),
(579,1949,o),
(631,1981,o),
(631,2048,cs),
(631,2073,o),
(634,2098,o),
(623,2119,c),
(792,2119,l),
(796,2097,o),
(798,2075,o),
(798,2052,cs),
(798,1904,o),
(692,1786,o)
);
}
);
};
layerId = "043639A7-E62C-4A4F-99F5-E7AE759848D8";
shapes = (
{
ref = A;
},
{
pos = (478,0);
ref = dotbelowcomb;
},
{
pos = (474,0);
ref = brevecomb.case;
}
);
width = 957;
}
);
unicode = 7862;
userData = {
com.typemytype.robofont.mark = (
0.6,
0.986,
1,
1
);
};
},
{
color = 10;
glyphname = Abrevegrave;
kernLeft = KO_A;
kernRight = KO_A;
lastChange = "2023-03-03 08:40:48 +0000";
layers = (
{
background = {
anchors = (
{
name = bottom;
pos = (479,0);
},
{
name = ogonek;
pos = (861,10);
},
{
name = top;
pos = (479,2477);
}
);
shapes = (
{
closed = 1;
nodes = (
(14,0,l),
(275,0,l),
(320,306,l),
(636,306,l),
(683,0,l),
(943,0,l),
(624,1708,l),
(332,1708,l)
);
},
{
closed = 1;
nodes = (
(350,501,l),
(473,1356,l),
(484,1356,l),
(606,501,l)
);
},
{
closed = 1;
nodes = (
(474,1786,cs),
(261,1786,o),
(160,1896,o),
(160,2052,cs),
(160,2075,o),
(162,2097,o),
(166,2119,c),
(344,2119,l),
(335,2097,o),
(334,2073,o),
(334,2048,cs),
(334,1978,o),
(379,1949,o),
(473,1949,cs),
(579,1949,o),
(631,1981,o),
(631,2048,cs),
(631,2073,o),
(634,2098,o),
(623,2119,c),
(792,2119,l),
(796,2097,o),
(798,2075,o),
(798,2052,cs),
(798,1904,o),
(692,1786,o)
);
},
{
closed = 1;
nodes = (
(607,2231,l),
(366,2517,l),
(197,2390,l),
(482,2137,l)
);
}
);
};
layerId = "043639A7-E62C-4A4F-99F5-E7AE759848D8";
shapes = (
{
ref = A;
},
{
pos = (474,0);
ref = brevecomb.case;
},
{
pos = (605,381);
ref = gravecomb.case;
}
);
width = 957;
}
);
unicode = 7856;
},
{
color = 10;
glyphname = Abrevehookabove;
kernLeft = KO_A;
kernRight = KO_A;
lastChange = "2023-03-03 08:40:48 +0000";
layers = (
{
background = {
anchors = (
{
name = bottom;
pos = (479,0);
},
{
name = ogonek;
pos = (861,10);
},
{
name = top;
pos = (479,2670);
}
);
shapes = (
{
closed = 1;
nodes = (
(14,0,l),
(275,0,l),
(320,306,l),
(636,306,l),
(683,0,l),
(943,0,l),
(624,1708,l),
(332,1708,l)
);
},
{
closed = 1;
nodes = (
(350,501,l),
(473,1356,l),
(484,1356,l),
(606,501,l)
);
},
{
closed = 1;
nodes = (
(474,1786,cs),
(261,1786,o),
(160,1896,o),
(160,2052,cs),
(160,2075,o),
(162,2097,o),
(166,2119,c),
(344,2119,l),
(335,2097,o),
(334,2073,o),
(334,2048,cs),
(334,1978,o),
(379,1949,o),
(473,1949,cs),
(579,1949,o),
(631,1981,o),
(631,2048,cs),
(631,2073,o),
(634,2098,o),
(623,2119,c),
(792,2119,l),
(796,2097,o),
(798,2075,o),
(798,2052,cs),
(798,1904,o),
(692,1786,o)
);
},
{
closed = 1;
nodes = (
(576,2217,o),
(663,2278,o),
(663,2386,cs),
(663,2516,o),
(536,2627,o),
(331,2648,c),
(295,2512,l),
(418,2501,o),
(495,2454,o),
(495,2391,cs),
(495,2348,o),
(457,2316,o),
(387,2316,c),
(387,2200,l)
);
}
);
};
layerId = "043639A7-E62C-4A4F-99F5-E7AE759848D8";
shapes = (
{
ref = A;
},
{
pos = (474,0);
ref = brevecomb.case;
},
{
pos = (145,712);
ref = hookabovecomb;
}
);
width = 957;
}
);
unicode = 7858;
},
{
color = 10;
glyphname = Abrevetilde;
kernLeft = KO_A;
kernRight = KO_A;
lastChange = "2023-03-03 08:40:48 +0000";
layers = (
{
background = {
anchors = (
{
name = bottom;
pos = (479,0);
},
{
name = ogonek;
pos = (861,10);
},
{
name = top;
pos = (479,2437);
}
);
shapes = (
{
closed = 1;
nodes = (
(14,0,l),
(275,0,l),
(320,306,l),
(636,306,l),
(683,0,l),
(943,0,l),
(624,1708,l),
(332,1708,l)
);
},
{
closed = 1;
nodes = (
(350,501,l),
(473,1356,l),
(484,1356,l),
(606,501,l)
);
},
{
closed = 1;
nodes = (
(474,1786,cs),
(261,1786,o),
(160,1896,o),
(160,2052,cs),
(160,2075,o),
(162,2097,o),
(166,2119,c),
(344,2119,l),
(335,2097,o),
(334,2073,o),
(334,2048,cs),
(334,1978,o),
(379,1949,o),
(473,1949,cs),
(579,1949,o),
(631,1981,o),
(631,2048,cs),
(631,2073,o),
(634,2098,o),
(623,2119,c),
(792,2119,l),
(796,2097,o),
(798,2075,o),
(798,2052,cs),
(798,1904,o),
(692,1786,o)
);
},
{
closed = 1;
nodes = (
(616,2169,cs),
(706,2169,o),
(789,2235,o),
(789,2362,cs),
(789,2385,o),
(786,2415,o),
(780,2458,c),
(648,2458,l),
(648,2387,ls),
(648,2351,o),
(630,2335,o),
(606,2335,cs),
(571,2335,o),
(530,2385,o),
(501,2415,c),
(457,2455,o),
(417,2476,o),
(352,2476,cs),
(254,2476,o),
(168,2424,o),
(168,2260,cs),
(168,2248,o),
(171,2200,o),
(171,2186,c),
(319,2186,l),
(319,2252,ls),
(319,2288,o),
(332,2310,o),
(355,2310,cs),
(389,2310,o),
(403,2283,o),
(456,2232,c),
(503,2191,o),
(548,2169,o)
);
}
);
};
layerId = "043639A7-E62C-4A4F-99F5-E7AE759848D8";
shapes = (
{
ref = A;
},
{
pos = (474,0);
ref = brevecomb.case;
},
{
pos = (47,381);
ref = tildecomb.case;
}
);
width = 957;
}
);
unicode = 7860;
},
{
color = 10;
glyphname = Acaron;
kernLeft = KO_A;
kernRight = KO_A;
lastChange = "2023-03-03 08:40:48 +0000";
layers = (
{
background = {
anchors = (
{
name = bottom;
pos = (479,0);
},
{
name = ogonek;
pos = (861,10);
},
{
name = top;
pos = (479,2086);
}
);
shapes = (
{
closed = 1;
nodes = (
(14,0,l),
(275,0,l),
(320,306,l),
(636,306,l),
(683,0,l),
(943,0,l),
(624,1708,l),
(332,1708,l)
);
},
{
closed = 1;
nodes = (
(350,501,l),
(473,1356,l),
(484,1356,l),
(606,501,l)
);
},
{
closed = 1;
nodes = (
(526,1956,l),
(486,1900,l),
(446,1956,l),
(362,2086,l),
(114,2086,l),
(364,1776,l),
(598,1776,l),
(844,2086,l),
(595,2086,l)
);
}
);
};
layerId = "043639A7-E62C-4A4F-99F5-E7AE759848D8";
shapes = (
{
ref = A;
},
{
pos = (484,0);
ref = caroncomb.case;
}
);
width = 957;
}
);
unicode = 461;
},
{
color = 10;
glyphname = Acircumflex;
kernLeft = KO_Atilde;
kernRight = KO_Acircumflex;
lastChange = "2023-03-03 08:40:48 +0000";
layers = (
{
background = {
anchors = (
{
name = bottom;
pos = (479,0);
},
{
name = ogonek;
pos = (861,10);
},
{
name = top;
pos = (479,2086);
}
);
shapes = (
{
closed = 1;
nodes = (
(14,0,l),
(275,0,l),
(320,306,l),
(636,306,l),
(683,0,l),
(943,0,l),
(624,1708,l),
(332,1708,l)
);
},
{
closed = 1;
nodes = (
(350,501,l),
(473,1356,l),
(484,1356,l),
(606,501,l)
);
},
{
closed = 1;
nodes = (
(595,1806,l),
(844,1806,l),
(598,2116,l),
(364,2116,l),
(114,1806,l),
(362,1806,l),
(446,1936,l),
(486,1992,l),
(526,1936,l)
);
}
);
};
layerId = "043639A7-E62C-4A4F-99F5-E7AE759848D8";
shapes = (
{
ref = A;
},
{
pos = (484,0);
ref = circumflexcomb.case;
}
);
width = 957;
}
);
unicode = 194;
userData = {
com.typemytype.robofont.mark = (
0.6,
0.986,
1,
1
);
};
},
{
color = 10;
glyphname = Acircumflexacute;
kernLeft = KO_Atilde;
kernRight = KO_Acircumflex;
lastChange = "2023-03-03 08:40:48 +0000";
layers = (
{
background = {
anchors = (
{
name = bottom;
pos = (479,0);
},
{
name = ogonek;
pos = (861,10);
},
{
name = top;
pos = (479,2464);
}
);
shapes = (
{
closed = 1;
nodes = (
(14,0,l),
(275,0,l),
(320,306,l),
(636,306,l),
(683,0,l),
(943,0,l),
(624,1708,l),
(332,1708,l)
);
},
{
closed = 1;
nodes = (
(350,501,l),
(473,1356,l),
(484,1356,l),
(606,501,l)
);
},
{
closed = 1;
nodes = (
(595,1806,l),
(844,1806,l),
(598,2116,l),
(364,2116,l),
(114,1806,l),
(362,1806,l),
(446,1936,l),
(486,1992,l),
(526,1936,l)
);
},
{
closed = 1;
nodes = (
(764,2407,l),
(595,2534,l),
(354,2248,l),
(479,2154,l)
);
}
);
};
layerId = "043639A7-E62C-4A4F-99F5-E7AE759848D8";
shapes = (
{
ref = A;
},
{
pos = (484,0);
ref = circumflexcomb.case;
},
{
pos = (354,378);
ref = acutecomb.case;
}
);
width = 957;
}
);
unicode = 7844;
},
{
color = 10;
glyphname = Acircumflexdotbelow;
kernLeft = KO_Atilde;
kernRight = KO_Acircumflex;
lastChange = "2023-03-03 08:40:48 +0000";
layers = (
{
background = {
anchors = (
{
name = bottom;
pos = (479,-425);
},
{
name = ogonek;
pos = (861,10);
},
{
name = top;
pos = (479,2086);
}
);
shapes = (
{
closed = 1;
nodes = (
(14,0,l),
(275,0,l),
(320,306,l),
(636,306,l),
(683,0,l),
(943,0,l),
(624,1708,l),
(332,1708,l)
);
},
{
closed = 1;
nodes = (
(350,501,l),
(473,1356,l),
(484,1356,l),
(606,501,l)
);
},
{
closed = 1;
nodes = (
(322,-364,o),
(384,-425,o),
(477,-425,cs),
(576,-425,o),
(635,-361,o),
(635,-257,cs),
(635,-146,o),
(577,-94,o),
(478,-94,cs),
(383,-94,o),
(322,-138,o),
(322,-257,cs)
);
},
{
closed = 1;
nodes = (
(595,1806,l),
(844,1806,l),
(598,2116,l),
(364,2116,l),
(114,1806,l),
(362,1806,l),
(446,1936,l),
(486,1992,l),
(526,1936,l)
);
}
);
};
layerId = "043639A7-E62C-4A4F-99F5-E7AE759848D8";
shapes = (
{
ref = A;
},
{
pos = (478,0);
ref = dotbelowcomb;
},
{
pos = (484,0);
ref = circumflexcomb.case;
}
);
width = 957;
}
);
unicode = 7852;
userData = {
com.typemytype.robofont.mark = (
0.6,
0.986,
1,
1
);
};
},
{
color = 10;
glyphname = Acircumflexgrave;
kernLeft = KO_Atilde;
kernRight = KO_Acircumflex;
lastChange = "2023-03-03 08:40:48 +0000";
layers = (
{
background = {
anchors = (
{
name = bottom;
pos = (479,0);
},
{
name = ogonek;
pos = (861,10);
},
{
name = top;
pos = (479,2474);
}
);
shapes = (
{
closed = 1;
nodes = (
(14,0,l),
(275,0,l),
(320,306,l),
(636,306,l),
(683,0,l),
(943,0,l),
(624,1708,l),
(332,1708,l)
);
},
{
closed = 1;
nodes = (
(350,501,l),
(473,1356,l),
(484,1356,l),
(606,501,l)
);
},
{
closed = 1;
nodes = (
(595,1806,l),
(844,1806,l),
(598,2116,l),
(364,2116,l),
(114,1806,l),
(362,1806,l),
(446,1936,l),
(486,1992,l),
(526,1936,l)
);
},
{
closed = 1;
nodes = (
(607,2228,l),
(366,2514,l),
(197,2387,l),
(482,2134,l)
);
}
);
};
layerId = "043639A7-E62C-4A4F-99F5-E7AE759848D8";
shapes = (
{
ref = A;
},
{
pos = (484,0);
ref = circumflexcomb.case;
},
{
pos = (605,378);
ref = gravecomb.case;
}
);
width = 957;
}
);
unicode = 7846;
},
{
color = 10;
glyphname = Acircumflexhookabove;
kernLeft = KO_Atilde;
kernRight = KO_Acircumflex;
lastChange = "2023-03-03 08:40:48 +0000";
layers = (
{
background = {
anchors = (
{
name = bottom;
pos = (479,0);
},
{
name = ogonek;
pos = (861,10);
},
{
name = top;
pos = (479,2667);
}
);
shapes = (
{
closed = 1;
nodes = (
(14,0,l),
(275,0,l),
(320,306,l),
(636,306,l),
(683,0,l),
(943,0,l),
(624,1708,l),
(332,1708,l)
);
},
{
closed = 1;
nodes = (
(350,501,l),
(473,1356,l),
(484,1356,l),
(606,501,l)
);
},
{
closed = 1;
nodes = (
(595,1806,l),
(844,1806,l),
(598,2116,l),
(364,2116,l),
(114,1806,l),
(362,1806,l),
(446,1936,l),
(486,1992,l),
(526,1936,l)
);
},
{
closed = 1;
nodes = (
(576,2214,o),
(663,2275,o),
(663,2383,cs),
(663,2513,o),
(536,2624,o),
(331,2645,c),
(295,2509,l),
(418,2498,o),
(495,2451,o),
(495,2388,cs),
(495,2345,o),
(457,2313,o),
(387,2313,c),
(387,2197,l)
);
}
);
};
layerId = "043639A7-E62C-4A4F-99F5-E7AE759848D8";
shapes = (
{
ref = A;
},
{
pos = (484,0);
ref = circumflexcomb.case;
},
{
pos = (145,709);
ref = hookabovecomb;
}
);
width = 957;
}
);
unicode = 7848;
},
{
color = 10;
glyphname = Acircumflextilde;
kernLeft = KO_Atilde;
kernRight = KO_Acircumflex;
lastChange = "2023-03-03 08:40:48 +0000";
layers = (
{
background = {
anchors = (
{
name = bottom;
pos = (479,0);
},
{
name = ogonek;
pos = (861,10);
},
{
name = top;
pos = (479,2434);
}
);
shapes = (
{
closed = 1;
nodes = (
(14,0,l),
(275,0,l),
(320,306,l),
(636,306,l),
(683,0,l),
(943,0,l),
(624,1708,l),
(332,1708,l)
);
},
{
closed = 1;
nodes = (
(350,501,l),
(473,1356,l),
(484,1356,l),
(606,501,l)
);
},
{
closed = 1;
nodes = (
(595,1806,l),
(844,1806,l),
(598,2116,l),
(364,2116,l),
(114,1806,l),
(362,1806,l),
(446,1936,l),
(486,1992,l),
(526,1936,l)
);
},
{
closed = 1;
nodes = (
(616,2166,cs),
(706,2166,o),
(789,2232,o),
(789,2359,cs),
(789,2382,o),
(786,2412,o),
(780,2455,c),
(648,2455,l),
(648,2384,ls),
(648,2348,o),
(630,2332,o),
(606,2332,cs),
(571,2332,o),
(530,2382,o),
(501,2412,c),
(457,2452,o),
(417,2473,o),
(352,2473,cs),
(254,2473,o),
(168,2421,o),
(168,2257,cs),
(168,2245,o),
(171,2197,o),
(171,2183,c),
(319,2183,l),
(319,2249,ls),
(319,2285,o),
(332,2307,o),
(355,2307,cs),
(389,2307,o),
(403,2280,o),
(456,2229,c),
(503,2188,o),
(548,2166,o)
);
}
);
};
layerId = "043639A7-E62C-4A4F-99F5-E7AE759848D8";
shapes = (
{
ref = A;
},
{
pos = (484,0);
ref = circumflexcomb.case;
},
{
pos = (47,378);
ref = tildecomb.case;
}
);
width = 957;
}
);
unicode = 7850;
},
{
color = 10;
glyphname = Adieresis;
kernLeft = KO_Atilde;
kernRight = KO_Adieresis;
lastChange = "2023-03-03 08:40:48 +0000";
layers = (
{
background = {
anchors = (
{
name = bottom;
pos = (479,0);
},
{
name = ogonek;
pos = (861,10);
},
{
name = top;
pos = (479,2079);
}
);
shapes = (
{
closed = 1;
nodes = (
(14,0,l),
(275,0,l),
(320,306,l),
(636,306,l),
(683,0,l),
(943,0,l),
(624,1708,l),
(332,1708,l)
);
},
{
closed = 1;
nodes = (
(350,501,l),
(473,1356,l),
(484,1356,l),
(606,501,l)
);
},
{
closed = 1;
nodes = (
(256,1784,cs),
(365,1784,o),
(401,1841,o),
(401,1937,cs),
(401,2047,o),
(365,2099,o),
(256,2099,cs),
(150,2099,o),
(119,2044,o),
(119,1937,cs),
(119,1837,o),
(152,1784,o)
);
},
{
closed = 1;
nodes = (
(693,1784,cs),
(802,1784,o),
(839,1841,o),
(839,1937,cs),
(839,2047,o),
(802,2099,o),
(693,2099,cs),
(587,2099,o),
(557,2044,o),
(557,1937,cs),
(557,1837,o),
(589,1784,o)
);
}
);
};
layerId = "043639A7-E62C-4A4F-99F5-E7AE759848D8";
shapes = (
{
ref = A;
},
{
pos = (478,0);
ref = dieresiscomb.case;
}
);
width = 957;
}
);
unicode = 196;
userData = {
com.typemytype.robofont.mark = (
0.6,
0.986,
1,
1
);
};
},
{
color = 10;
glyphname = Adieresismacron;
kernLeft = KO_Atilde;
kernRight = KO_Adieresis;
lastChange = "2023-03-03 08:40:48 +0000";
layers = (
{
background = {
anchors = (
{
name = bottom;
pos = (479,0);
},
{
name = ogonek;
pos = (861,10);
},
{
name = top;
pos = (479,2369);
}
);
shapes = (
{
closed = 1;
nodes = (
(14,0,l),
(275,0,l),
(320,306,l),
(636,306,l),
(683,0,l),
(943,0,l),
(624,1708,l),
(332,1708,l)
);
},
{
closed = 1;
nodes = (
(350,501,l),
(473,1356,l),
(484,1356,l),
(606,501,l)
);
},
{
closed = 1;
nodes = (
(256,1784,cs),
(365,1784,o),
(401,1841,o),
(401,1937,cs),
(401,2047,o),
(365,2099,o),
(256,2099,cs),
(150,2099,o),
(119,2044,o),
(119,1937,cs),
(119,1837,o),
(152,1784,o)
);
},
{
closed = 1;
nodes = (
(693,1784,cs),
(802,1784,o),
(839,1841,o),
(839,1937,cs),
(839,2047,o),
(802,2099,o),
(693,2099,cs),
(587,2099,o),
(557,2044,o),
(557,1937,cs),
(557,1837,o),
(589,1784,o)
);
},
{
closed = 1;
nodes = (
(167,2206,l),
(790,2206,l),
(790,2399,l),
(167,2399,l)
);
}
);
};
layerId = "043639A7-E62C-4A4F-99F5-E7AE759848D8";
shapes = (
{
ref = A;
},
{
pos = (478,0);
ref = dieresiscomb.case;
},
{
pos = (478,371);
ref = macroncomb.case;
}
);
width = 957;
}
);
unicode = 478;
},
{
color = 10;
glyphname = Adotbelow;
kernLeft = KO_A;
kernRight = KO_A;
lastChange = "2023-03-03 08:40:48 +0000";
layers = (
{
background = {
anchors = (
{
name = bottom;
pos = (479,-425);
},
{
name = ogonek;
pos = (861,10);
},
{
name = top;
pos = (479,1708);
}
);
shapes = (
{
closed = 1;
nodes = (
(14,0,l),
(275,0,l),
(320,306,l),
(636,306,l),
(683,0,l),
(943,0,l),
(624,1708,l),
(332,1708,l)
);
},
{
closed = 1;
nodes = (
(350,501,l),
(473,1356,l),
(484,1356,l),
(606,501,l)
);
},
{
closed = 1;
nodes = (
(322,-364,o),
(384,-425,o),
(477,-425,cs),
(576,-425,o),
(635,-361,o),
(635,-257,cs),
(635,-146,o),
(577,-94,o),
(478,-94,cs),
(383,-94,o),
(322,-138,o),
(322,-257,cs)
);
}
);
};
layerId = "043639A7-E62C-4A4F-99F5-E7AE759848D8";
shapes = (
{
ref = A;
},
{
pos = (478,0);
ref = dotbelowcomb;
}
);
width = 957;
}
);
unicode = 7840;
userData = {
com.typemytype.robofont.mark = (
0.6,
0.986,
1,
1
);
};
},
{
color = 10;
glyphname = Agrave;
kernLeft = KO_A;
kernRight = KO_A;
lastChange = "2023-03-03 08:40:48 +0000";
layers = (
{
background = {
anchors = (
{
name = bottom;
pos = (479,0);
},
{
name = ogonek;
pos = (861,10);
},
{
name = top;
pos = (479,2096);
}
);
shapes = (
{
closed = 1;
nodes = (
(14,0,l),
(275,0,l),
(320,306,l),
(636,306,l),
(683,0,l),
(943,0,l),
(624,1708,l),
(332,1708,l)
);
},
{
closed = 1;
nodes = (
(350,501,l),
(473,1356,l),
(484,1356,l),
(606,501,l)
);
},
{
closed = 1;
nodes = (
(607,1850,l),
(366,2136,l),
(197,2009,l),
(482,1756,l)
);
}
);
};
layerId = "043639A7-E62C-4A4F-99F5-E7AE759848D8";
shapes = (
{
ref = A;
},
{
pos = (605,0);
ref = gravecomb.case;
}
);
width = 957;
}
);
unicode = 192;
userData = {
com.typemytype.robofont.mark = (
0.6,
0.986,
1,
1
);
};
},
{
color = 10;
glyphname = Ahookabove;
kernLeft = KO_A;
kernRight = KO_A;
lastChange = "2023-03-03 08:40:48 +0000";
layers = (
{
background = {
anchors = (
{
name = bottom;
pos = (479,0);
},
{
name = ogonek;
pos = (861,10);
},
{
name = top;
pos = (479,2289);
}
);
shapes = (
{
closed = 1;
nodes = (
(14,0,l),
(275,0,l),
(320,306,l),
(636,306,l),
(683,0,l),
(943,0,l),
(624,1708,l),
(332,1708,l)
);
},
{
closed = 1;
nodes = (
(350,501,l),
(473,1356,l),
(484,1356,l),
(606,501,l)
);
},
{
closed = 1;
nodes = (
(576,1836,o),
(663,1897,o),
(663,2005,cs),
(663,2135,o),
(536,2246,o),
(331,2267,c),
(295,2131,l),
(418,2120,o),
(495,2073,o),
(495,2010,cs),
(495,1967,o),
(457,1935,o),
(387,1935,c),
(387,1819,l)
);
}
);
};
layerId = "043639A7-E62C-4A4F-99F5-E7AE759848D8";
shapes = (
{
ref = A;
},
{
pos = (145,331);
ref = hookabovecomb;
}
);
width = 957;
}
);
unicode = 7842;
},
{
color = 10;
glyphname = Amacron;
kernRight = KO_A;
lastChange = "2023-03-03 08:40:48 +0000";
layers = (
{
background = {
anchors = (
{
name = bottom;
pos = (479,0);
},
{
name = ogonek;
pos = (861,10);
},
{
name = top;
pos = (479,1998);
}
);
shapes = (
{
closed = 1;
nodes = (
(14,0,l),
(275,0,l),
(320,306,l),
(636,306,l),
(683,0,l),
(943,0,l),
(624,1708,l),
(332,1708,l)
);
},
{
closed = 1;
nodes = (
(350,501,l),
(473,1356,l),
(484,1356,l),
(606,501,l)
);
},
{
closed = 1;
nodes = (
(167,1835,l),
(790,1835,l),
(790,2028,l),
(167,2028,l)
);
}
);
};
layerId = "043639A7-E62C-4A4F-99F5-E7AE759848D8";
shapes = (
{
ref = A;
},
{
pos = (478,0);
ref = macroncomb.case;
}
);
width = 957;
}
);
unicode = 256;
userData = {
com.typemytype.robofont.mark = (
0.6,
0.986,
1,
1
);
};
},
{
color = 10;
glyphname = Aogonek;
kernLeft = KO_A;
kernRight = KO_A;
lastChange = "2023-03-03 08:40:48 +0000";
layers = (
{
background = {
anchors = (
{
name = bottom;
pos = (479,0);
},
{
name = ogonek;
pos = (861,10);
},
{
name = top;
pos = (479,1708);
}
);
shapes = (
{
closed = 1;
nodes = (
(14,0,l),
(275,0,l),
(320,306,l),
(636,306,l),
(683,0,l),
(943,0,l),
(624,1708,l),
(332,1708,l)
);
},
{
closed = 1;
nodes = (
(350,501,l),
(473,1356,l),
(484,1356,l),
(606,501,l)
);
},
{
closed = 1;
nodes = (
(592,-3,l),
(570,-23,o),
(507,-93,o),
(507,-197,cs),
(507,-385,o),
(647,-422,o),
(710,-422,cs),
(765,-422,o),
(806,-413,o),
(861,-392,c),
(854,-241,l),
(843,-242,o),
(832,-242,o),
(821,-242,cs),
(731,-242,o),
(665,-137,o),
(786,-3,c),
(681,10,l)
);
}
);
};
layerId = "043639A7-E62C-4A4F-99F5-E7AE759848D8";
shapes = (
{
ref = A;
},
{
pos = (703,-3);
ref = ogonekcomb;
}
);
width = 957;
}
);
unicode = 260;
userData = {
com.typemytype.robofont.mark = (
0.6,
0.986,
1,
1
);
};
},
{
color = 6;
glyphname = Aring;
kernLeft = KO_Aring;
kernRight = KO_Aring;
lastChange = "2023-03-03 08:40:39 +0000";
layers = (
{
background = {
shapes = (
{
closed = 1;
nodes = (
(14,0,l),
(275,0,l),
(320,306,l),
(636,306,l),
(683,0,l),
(943,0,l),
(624,1708,l),
(570,1607,l),
(370,1607,l),
(332,1708,l)
);
},
{
closed = 1;
nodes = (
(350,501,l),
(473,1356,l),
(484,1356,l),
(606,501,l)
);
},
{
closed = 1;
nodes = (
(478,1643,cs),
(384,1643,o),
(339,1707,o),
(339,1772,cs),
(339,1846,o),
(382,1903,o),
(478,1903,cs),
(584,1903,o),
(636,1847,o),
(636,1772,cs),
(636,1710,o),
(584,1643,o)
);
},
{
closed = 1;
nodes = (
(479,1480,cs),
(697,1480,o),
(803,1633,o),
(803,1776,cs),
(803,1935,o),
(697,2065,o),
(479,2065,cs),
(262,2065,o),
(165,1931,o),
(165,1776,cs),
(165,1625,o),
(266,1480,o)
);
}
);
};
layerId = "043639A7-E62C-4A4F-99F5-E7AE759848D8";
shapes = (
{
closed = 1;
nodes = (
(14,0,l),
(275,0,l),
(320,306,l),
(636,306,l),
(683,0,l),
(943,0,l),
(624,1708,l),
(570,1607,l),
(370,1607,l),
(332,1708,l)
);
},
{
closed = 1;
nodes = (
(350,501,l),
(473,1356,l),
(484,1356,l),
(606,501,l)
);
},
{
closed = 1;
nodes = (
(478,1643,cs),
(384,1643,o),
(339,1707,o),
(339,1772,cs),
(339,1846,o),
(382,1903,o),
(478,1903,cs),
(584,1903,o),
(636,1847,o),
(636,1772,cs),
(636,1710,o),
(584,1643,o)
);
},
{
closed = 1;
nodes = (
(479,1480,cs),
(697,1480,o),
(803,1633,o),
(803,1776,cs),
(803,1935,o),
(697,2065,o),
(479,2065,cs),
(262,2065,o),
(165,1931,o),
(165,1776,cs),
(165,1625,o),
(266,1480,o)
);
}
);
width = 957;
}
);
unicode = 197;
userData = {
com.typemytype.robofont.mark = (
0.6,
0.986,
1,
1
);
};
},
{
color = 6;
glyphname = Aringacute;
lastChange = "2023-03-03 08:40:39 +0000";
layers = (
{
background = {
shapes = (
{
closed = 1;
nodes = (
(14,0,l),
(275,0,l),
(320,306,l),
(636,306,l),
(683,0,l),
(943,0,l),
(624,1628,l),
(570,1527,l),
(370,1527,l),
(332,1628,l)
);
},
{
closed = 1;
nodes = (
(350,501,l),
(473,1276,l),
(484,1276,l),
(606,501,l)
);
},
{
closed = 1;
nodes = (
(478,1563,cs),
(384,1563,o),
(339,1627,o),
(339,1692,cs),
(339,1766,o),
(382,1823,o),
(478,1823,cs),
(584,1823,o),
(636,1767,o),
(636,1692,cs),
(636,1630,o),
(584,1563,o)
);
},
{
closed = 1;
nodes = (
(479,1400,cs),
(697,1400,o),
(803,1553,o),
(803,1696,cs),
(803,1855,o),
(697,1985,o),
(479,1985,cs),
(262,1985,o),
(165,1851,o),
(165,1696,cs),
(165,1545,o),
(266,1400,o)
);
},
{
closed = 1;
nodes = (
(562,1812,l),
(907,1978,l),
(778,2145,l),
(457,1929,l)
);
}
);
};
layerId = "043639A7-E62C-4A4F-99F5-E7AE759848D8";
shapes = (
{
closed = 1;
nodes = (
(14,0,l),
(275,0,l),
(320,306,l),
(636,306,l),
(683,0,l),
(943,0,l),
(624,1628,l),
(570,1527,l),
(370,1527,l),
(332,1628,l)
);
},
{
closed = 1;
nodes = (
(350,501,l),
(473,1276,l),
(484,1276,l),
(606,501,l)
);
},
{
closed = 1;
nodes = (
(478,1563,cs),
(384,1563,o),
(339,1627,o),
(339,1692,cs),
(339,1766,o),
(382,1823,o),
(478,1823,cs),
(584,1823,o),
(636,1767,o),
(636,1692,cs),
(636,1630,o),
(584,1563,o)
);
},
{
closed = 1;
nodes = (
(479,1400,cs),
(697,1400,o),
(803,1553,o),
(803,1696,cs),
(803,1855,o),
(697,1985,o),
(479,1985,cs),
(262,1985,o),
(165,1851,o),
(165,1696,cs),
(165,1545,o),
(266,1400,o)
);
},
{
closed = 1;
nodes = (
(562,1812,l),
(907,1978,l),
(778,2145,l),
(457,1929,l)
);
}
);
width = 957;
}
);
unicode = (506,507);
},
{
color = 10;
glyphname = Atilde;
kernLeft = KO_Atilde;
kernRight = KO_A;
lastChange = "2023-03-03 08:40:48 +0000";
layers = (
{
background = {
anchors = (
{
name = bottom;
pos = (479,0);
},
{
name = ogonek;
pos = (861,10);
},
{
name = top;
pos = (479,2056);
}
);
shapes = (
{
closed = 1;
nodes = (
(14,0,l),
(275,0,l),
(320,306,l),
(636,306,l),
(683,0,l),
(943,0,l),
(624,1708,l),
(332,1708,l)
);
},
{
closed = 1;
nodes = (
(350,501,l),
(473,1356,l),
(484,1356,l),
(606,501,l)
);
},
{
closed = 1;
nodes = (
(616,1788,cs),
(706,1788,o),
(789,1854,o),
(789,1981,cs),
(789,2004,o),
(786,2034,o),
(780,2077,c),
(648,2077,l),
(648,2006,ls),
(648,1970,o),
(630,1954,o),
(606,1954,cs),
(571,1954,o),
(530,2004,o),
(501,2034,c),
(457,2074,o),
(417,2095,o),
(352,2095,cs),
(254,2095,o),
(168,2043,o),
(168,1879,cs),
(168,1867,o),
(171,1819,o),
(171,1805,c),
(319,1805,l),
(319,1871,ls),
(319,1907,o),
(332,1929,o),
(355,1929,cs),
(389,1929,o),
(403,1902,o),
(456,1851,c),
(503,1810,o),
(548,1788,o)
);
}
);
};
layerId = "043639A7-E62C-4A4F-99F5-E7AE759848D8";
shapes = (
{
ref = A;
},
{
pos = (47,0);
ref = tildecomb.case;
}
);
width = 957;
}
);
unicode = 195;
userData = {
com.typemytype.robofont.mark = (
0.6,
0.986,
1,
1
);
};
},
{
color = 6;
glyphname = AE;
kernLeft = KO_AE;
kernRight = KO_AE;
lastChange = "2023-03-03 08:40:39 +0000";
layers = (
{
anchors = (
{
name = bottom;
pos = (628,0);
},
{
name = top;
pos = (733,1708);
}
);
background = {
anchors = (
{
name = bottom;
pos = (628,0);
},
{
name = top;
pos = (733,1708);
}
);
shapes = (
{
closed = 1;
nodes = (
(6,0,l),
(267,0,l),
(330,306,l),
(585,306,l),
(585,0,l),
(1235,0,l),
(1235,205,l),
(841,205,l),
(841,771,l),
(1148,771,l),
(1148,995,l),
(841,995,l),
(841,1503,l),
(1235,1503,l),
(1235,1708,l),
(438,1708,l)
);
},
{
closed = 1;
nodes = (
(369,492,l),
(548,1356,l),
(585,1356,l),
(585,492,l)
);
}
);
};
layerId = "043639A7-E62C-4A4F-99F5-E7AE759848D8";
shapes = (
{
closed = 1;
nodes = (
(6,0,l),
(267,0,l),
(330,306,l),
(585,306,l),
(585,0,l),
(1235,0,l),
(1235,205,l),
(841,205,l),
(841,771,l),
(1148,771,l),
(1148,995,l),
(841,995,l),
(841,1503,l),
(1235,1503,l),
(1235,1708,l),
(438,1708,l)
);
},
{
closed = 1;
nodes = (
(369,492,l),
(548,1356,l),
(585,1356,l),
(585,492,l)
);
}
);
width = 1261;
}
);
metricRight = E;
unicode = 198;
userData = {
com.typemytype.robofont.mark = (
1,
0.6,
0.6,
1
);
};
},
{
color = 10;
glyphname = AEacute;
kernLeft = KO_AE;
kernRight = KO_AE;
lastChange = "2023-03-03 08:40:48 +0000";
layers = (
{
background = {
anchors = (
{
name = bottom;
pos = (628,0);
},
{
name = top;
pos = (733,2086);
}
);
shapes = (
{
closed = 1;
nodes = (
(6,0,l),
(267,0,l),
(330,306,l),
(585,306,l),
(585,0,l),
(1235,0,l),
(1235,205,l),
(841,205,l),
(841,771,l),
(1148,771,l),
(1148,995,l),
(841,995,l),
(841,1503,l),
(1235,1503,l),
(1235,1708,l),
(438,1708,l)
);
},
{
closed = 1;
nodes = (
(369,492,l),
(548,1356,l),
(585,1356,l),
(585,492,l)
);
},
{
closed = 1;
nodes = (
(1018,2029,l),
(849,2156,l),
(608,1870,l),
(733,1776,l)
);
}
);
};
layerId = "043639A7-E62C-4A4F-99F5-E7AE759848D8";
shapes = (
{
ref = AE;
},
{
pos = (608,0);
ref = acutecomb.case;
}
);
width = 1261;
}
);
unicode = 508;
userData = {
com.typemytype.robofont.mark = (
0.6,
0.986,
1,
1
);
};
},
{
color = 10;
glyphname = AEmacron;
kernLeft = KO_AE;
kernRight = KO_AE;
lastChange = "2023-03-03 08:40:48 +0000";
layers = (
{
background = {
anchors = (
{
name = bottom;
pos = (628,0);
},
{
name = top;
pos = (733,1998);
}
);
shapes = (
{
closed = 1;
nodes = (
(6,0,l),
(267,0,l),
(330,306,l),
(585,306,l),
(585,0,l),
(1235,0,l),
(1235,205,l),
(841,205,l),
(841,771,l),
(1148,771,l),
(1148,995,l),
(841,995,l),
(841,1503,l),
(1235,1503,l),
(1235,1708,l),
(438,1708,l)
);
},
{
closed = 1;
nodes = (
(369,492,l),
(548,1356,l),
(585,1356,l),
(585,492,l)
);
},
{
closed = 1;
nodes = (
(421,1835,l),
(1044,1835,l),
(1044,2028,l),
(421,2028,l)
);
}
);
};
layerId = "043639A7-E62C-4A4F-99F5-E7AE759848D8";
shapes = (
{
ref = AE;
},
{
pos = (732,0);
ref = macroncomb.case;
}
);
width = 1261;
}
);
unicode = 482;
},
{
color = 6;
glyphname = B;
kernLeft = KO_H;
kernRight = KO_B;
lastChange = "2023-03-03 08:40:39 +0000";
layers = (
{
anchors = (
{
name = bottom;
pos = (520,0);
},
{
name = center;
pos = (520,854);
},
{
name = top;
pos = (520,1708);
}
);
background = {
anchors = (
{
name = bottom;
pos = (520,0);
},
{
name = center;
pos = (520,854);
},
{
name = top;
pos = (520,1708);
}
);
shapes = (
{
closed = 1;
nodes = (
(141,0,l),
(413,0,ls),
(704,0,o),
(963,65,o),
(963,437,cs),
(963,524,ls),
(963,727,o),
(882,833,o),
(727,894,c),
(727,902,l),
(832,940,o),
(935,1056,o),
(935,1238,cs),
(935,1321,ls),
(935,1679,o),
(635,1708,o),
(403,1708,cs),
(141,1708,l)
);
},
{
closed = 1;
nodes = (
(400,977,l),
(400,1519,l),
(445,1519,l),
(616,1519,o),
(673,1429,o),
(673,1270,cs),
(673,1200,ls),
(673,1040,o),
(584,977,o),
(445,977,cs)
);
},
{
closed = 1;
nodes = (
(400,189,l),
(400,794,l),
(469,794,l),
(639,794,o),
(696,705,o),
(696,545,cs),
(696,412,ls),
(696,252,o),
(607,189,o),
(469,189,cs)
);
}
);
};
layerId = "043639A7-E62C-4A4F-99F5-E7AE759848D8";
shapes = (
{
closed = 1;
nodes = (
(141,0,l),
(413,0,ls),
(704,0,o),
(963,65,o),
(963,437,cs),
(963,524,ls),
(963,727,o),
(882,833,o),
(727,894,c),
(727,902,l),
(832,940,o),
(935,1056,o),
(935,1238,cs),
(935,1321,ls),
(935,1679,o),
(635,1708,o),
(403,1708,cs),
(141,1708,l)
);
},
{
closed = 1;
nodes = (
(400,977,l),
(400,1519,l),
(445,1519,l),
(616,1519,o),
(673,1429,o),
(673,1270,cs),
(673,1200,ls),
(673,1040,o),
(584,977,o),
(445,977,cs)
);
},
{
closed = 1;
nodes = (
(400,189,l),
(400,794,l),
(469,794,l),
(639,794,o),
(696,705,o),
(696,545,cs),
(696,412,ls),
(696,252,o),
(607,189,o),
(469,189,cs)
);
}
);
width = 1039;
}
);
metricLeft = H;
unicode = 66;
userData = {
KernOnName = B;
com.typemytype.robofont.mark = (
1,
0.6,
0.6,
1
);
};
},
{
color = 10;
glyphname = Bdotbelow;
lastChange = "2023-03-03 08:40:48 +0000";
layers = (
{
background = {
anchors = (
{
name = bottom;
pos = (520,-425);
},
{
name = center;
pos = (520,854);
},
{
name = top;
pos = (520,1708);
}
);
shapes = (
{
closed = 1;
nodes = (
(141,0,l),
(413,0,ls),
(704,0,o),
(963,65,o),
(963,437,cs),
(963,524,ls),
(963,727,o),
(882,833,o),
(727,894,c),
(727,902,l),
(832,940,o),
(935,1056,o),
(935,1238,cs),
(935,1321,ls),
(935,1679,o),
(635,1708,o),
(403,1708,cs),
(141,1708,l)
);
},
{
closed = 1;
nodes = (
(400,977,l),
(400,1519,l),
(445,1519,l),
(616,1519,o),
(673,1429,o),
(673,1270,cs),
(673,1200,ls),
(673,1040,o),
(584,977,o),
(445,977,cs)
);
},
{
closed = 1;
nodes = (
(400,189,l),
(400,794,l),
(469,794,l),
(639,794,o),
(696,705,o),
(696,545,cs),
(696,412,ls),
(696,252,o),
(607,189,o),
(469,189,cs)
);
},
{
closed = 1;
nodes = (
(363,-364,o),
(425,-425,o),
(518,-425,cs),
(617,-425,o),
(676,-361,o),
(676,-257,cs),
(676,-146,o),
(618,-94,o),
(519,-94,cs),
(424,-94,o),
(363,-138,o),
(363,-257,cs)
);
}
);
};
layerId = "043639A7-E62C-4A4F-99F5-E7AE759848D8";
shapes = (
{
ref = B;
},
{
pos = (519,0);
ref = dotbelowcomb;
}
);
width = 1039;
}
);
unicode = 7684;
},
{
color = 6;
glyphname = C;
kernLeft = KO_C;
kernRight = KO_C;
lastChange = "2023-03-03 08:40:39 +0000";
layers = (
{
anchors = (
{
name = bottom;
pos = (464,0);
},
{
name = top;
pos = (464,1708);
}
);
background = {
anchors = (
{
name = bottom;
pos = (464,0);
},
{
name = top;
pos = (464,1708);
}
);
shapes = (
{
closed = 1;
nodes = (
(532,-15,cs),
(761,-14,o),
(886,114,o),
(886,388,cs),
(886,546,l),
(659,546,l),
(659,384,ls),
(659,247,o),
(605,188,o),
(532,188,cs),
(427,188,o),
(378,251,o),
(378,463,cs),
(378,1233,ls),
(378,1452,o),
(429,1520,o),
(524,1520,cs),
(610,1520,o),
(656,1426,o),
(656,1239,cs),
(656,1157,l),
(856,1157,l),
(871,1231,o),
(884,1288,o),
(884,1361,cs),
(884,1559,o),
(794,1723,o),
(531,1723,cs),
(372,1723,o),
(107,1676,o),
(107,1161,cs),
(107,556,ls),
(107,43,o),
(366,-15,o)
);
}
);
};
layerId = "043639A7-E62C-4A4F-99F5-E7AE759848D8";
shapes = (
{
closed = 1;
nodes = (
(532,-15,cs),
(761,-14,o),
(886,114,o),
(886,388,cs),
(886,546,l),
(659,546,l),
(659,384,ls),
(659,247,o),
(605,188,o),
(532,188,cs),
(427,188,o),
(378,251,o),
(378,463,cs),
(378,1233,ls),
(378,1452,o),
(429,1520,o),
(524,1520,cs),
(610,1520,o),
(656,1426,o),
(656,1239,cs),
(656,1157,l),
(856,1157,l),
(871,1231,o),
(884,1288,o),
(884,1361,cs),
(884,1559,o),
(794,1723,o),
(531,1723,cs),
(372,1723,o),
(107,1676,o),
(107,1161,cs),
(107,556,ls),
(107,43,o),
(366,-15,o)
);
}
);
width = 928;
}
);
unicode = 67;
userData = {
KernOnName = C;
com.typemytype.robofont.guides = (
{
angle = 90;
isGlobal = 0;
magnetic = 5;
x = 658;
y = 0;
}
);
com.typemytype.robofont.mark = (
1,
0.6,
0.6,
1
);
};
},
{
color = 10;
glyphname = Cacute;
kernLeft = KO_C;
kernRight = KO_C;
lastChange = "2023-03-03 08:40:48 +0000";
layers = (
{
background = {
anchors = (
{
name = bottom;
pos = (464,0);
},
{
name = top;
pos = (464,2086);
}
);
shapes = (
{
closed = 1;
nodes = (
(532,-15,cs),
(761,-14,o),
(886,114,o),
(886,388,cs),
(886,546,l),
(659,546,l),
(659,384,ls),
(659,247,o),
(605,188,o),
(532,188,cs),
(427,188,o),
(378,251,o),
(378,463,cs),
(378,1233,ls),
(378,1452,o),
(429,1520,o),
(524,1520,cs),
(610,1520,o),
(656,1426,o),
(656,1239,cs),
(656,1157,l),
(856,1157,l),
(871,1231,o),
(884,1288,o),
(884,1361,cs),
(884,1559,o),
(794,1723,o),
(531,1723,cs),
(372,1723,o),
(107,1676,o),
(107,1161,cs),
(107,556,ls),
(107,43,o),
(366,-15,o)
);
},
{
closed = 1;
nodes = (
(749,2029,l),
(580,2156,l),
(339,1870,l),
(464,1776,l)
);
}
);
};
layerId = "043639A7-E62C-4A4F-99F5-E7AE759848D8";
shapes = (
{
ref = C;
},
{
pos = (339,0);
ref = acutecomb.case;
}
);
width = 928;
}
);
unicode = 262;
userData = {
com.typemytype.robofont.mark = (
0.6,
0.986,
1,
1
);
};
},
{
color = 10;
glyphname = Ccaron;
kernLeft = KO_C;
kernRight = KO_C;
lastChange = "2023-03-03 08:40:48 +0000";
layers = (
{
background = {
anchors = (
{
name = bottom;
pos = (464,0);
},
{
name = top;
pos = (464,2086);
}
);
shapes = (
{
closed = 1;
nodes = (
(532,-15,cs),
(761,-14,o),
(886,114,o),
(886,388,cs),
(886,546,l),
(659,546,l),
(659,384,ls),
(659,247,o),
(605,188,o),
(532,188,cs),
(427,188,o),
(378,251,o),
(378,463,cs),
(378,1233,ls),
(378,1452,o),
(429,1520,o),
(524,1520,cs),
(610,1520,o),
(656,1426,o),
(656,1239,cs),
(656,1157,l),
(856,1157,l),
(871,1231,o),
(884,1288,o),
(884,1361,cs),
(884,1559,o),
(794,1723,o),
(531,1723,cs),
(372,1723,o),
(107,1676,o),
(107,1161,cs),
(107,556,ls),
(107,43,o),
(366,-15,o)
);
},
{
closed = 1;
nodes = (
(511,1956,l),
(471,1900,l),
(431,1956,l),
(347,2086,l),
(99,2086,l),
(349,1776,l),
(583,1776,l),
(829,2086,l),
(580,2086,l)
);
}
);
};
layerId = "043639A7-E62C-4A4F-99F5-E7AE759848D8";
shapes = (
{
ref = C;
},
{
pos = (469,0);
ref = caroncomb.case;
}
);
width = 928;
}
);
unicode = 268;
userData = {
com.typemytype.robofont.mark = (
0.6,
0.986,
1,
1
);
};
},
{
color = 10;
glyphname = Ccedilla;
kernLeft = KO_C;
kernRight = KO_C;
lastChange = "2023-03-03 08:40:48 +0000";
layers = (
{
background = {
anchors = (
{
name = bottom;
pos = (464,-419);
},
{
name = top;
pos = (464,1708);
}
);
shapes = (
{
closed = 1;
nodes = (
(532,-15,cs),
(761,-14,o),
(886,114,o),
(886,388,cs),
(886,546,l),
(659,546,l),
(659,384,ls),
(659,247,o),
(605,188,o),
(532,188,cs),
(427,188,o),
(378,251,o),
(378,463,cs),
(378,1233,ls),
(378,1452,o),
(429,1520,o),
(524,1520,cs),
(610,1520,o),
(656,1426,o),
(656,1239,cs),
(656,1157,l),
(856,1157,l),
(871,1231,o),
(884,1288,o),
(884,1361,cs),
(884,1559,o),
(794,1723,o),
(531,1723,cs),
(372,1723,o),
(107,1676,o),
(107,1161,cs),
(107,556,ls),
(107,43,o),
(366,-15,o)
);
},
{
closed = 1;
nodes = (
(473,13,l),
(470,-56,ls),
(463,-211,o),
(406,-239,o),
(316,-239,cs),
(305,-239,o),
(294,-239,o),
(283,-238,c),
(276,-389,l),
(331,-410,o),
(372,-419,o),
(427,-419,cs),
(490,-419,o),
(668,-389,o),
(651,-104,cs),
(644,13,l)
);
}
);
};
layerId = "043639A7-E62C-4A4F-99F5-E7AE759848D8";
shapes = (
{
ref = C;
},
{
pos = (538,0);
ref = cedillacomb;
}
);
width = 928;
}
);
unicode = 199;
userData = {
com.typemytype.robofont.mark = (
0.6,
0.986,
1,
1
);
};
},
{
color = 10;
glyphname = Ccircumflex;
kernRight = KO_C;
lastChange = "2023-03-03 08:40:48 +0000";
layers = (
{
background = {
anchors = (
{
name = bottom;
pos = (464,0);
},
{
name = top;
pos = (464,2086);
}
);
shapes = (
{
closed = 1;
nodes = (
(532,-15,cs),
(761,-14,o),
(886,114,o),
(886,388,cs),
(886,546,l),
(659,546,l),
(659,384,ls),
(659,247,o),
(605,188,o),
(532,188,cs),
(427,188,o),
(378,251,o),
(378,463,cs),
(378,1233,ls),
(378,1452,o),
(429,1520,o),
(524,1520,cs),
(610,1520,o),
(656,1426,o),
(656,1239,cs),
(656,1157,l),
(856,1157,l),
(871,1231,o),
(884,1288,o),
(884,1361,cs),
(884,1559,o),
(794,1723,o),
(531,1723,cs),
(372,1723,o),
(107,1676,o),
(107,1161,cs),
(107,556,ls),
(107,43,o),
(366,-15,o)
);
},
{
closed = 1;
nodes = (
(580,1806,l),
(829,1806,l),
(583,2116,l),
(349,2116,l),
(99,1806,l),
(347,1806,l),
(431,1936,l),
(471,1992,l),
(511,1936,l)
);
}
);
};
layerId = "043639A7-E62C-4A4F-99F5-E7AE759848D8";
shapes = (
{
ref = C;
},
{
pos = (469,0);
ref = circumflexcomb.case;
}
);
width = 928;
}
);
unicode = 264;
userData = {
com.typemytype.robofont.mark = (
0.6,
0.986,
1,
1
);
};
},
{
color = 10;
glyphname = Cdotaccent;
kernLeft = KO_C;
kernRight = KO_C;
lastChange = "2023-03-03 08:40:48 +0000";
layers = (
{
background = {
anchors = (
{
name = bottom;
pos = (464,0);
},
{
name = top;
pos = (464,2101);
}
);
shapes = (
{
closed = 1;
nodes = (
(532,-15,cs),
(761,-14,o),
(886,114,o),
(886,388,cs),
(886,546,l),
(659,546,l),
(659,384,ls),
(659,247,o),
(605,188,o),
(532,188,cs),
(427,188,o),
(378,251,o),
(378,463,cs),
(378,1233,ls),
(378,1452,o),
(429,1520,o),
(524,1520,cs),
(610,1520,o),
(656,1426,o),
(656,1239,cs),
(656,1157,l),
(856,1157,l),
(871,1231,o),
(884,1288,o),
(884,1361,cs),
(884,1559,o),
(794,1723,o),
(531,1723,cs),
(372,1723,o),
(107,1676,o),
(107,1161,cs),
(107,556,ls),
(107,43,o),
(366,-15,o)
);
},
{
closed = 1;
nodes = (
(462,1790,cs),
(561,1790,o),
(620,1854,o),
(620,1958,cs),
(620,2069,o),
(562,2121,o),
(463,2121,cs),
(368,2121,o),
(307,2077,o),
(307,1958,cs),
(307,1851,o),
(369,1790,o)
);
}
);
};
layerId = "043639A7-E62C-4A4F-99F5-E7AE759848D8";
shapes = (
{
ref = C;
},
{
pos = (462,0);
ref = dotaccentcomb.case;
}
);
width = 928;
}
);
unicode = 266;
userData = {
com.typemytype.robofont.mark = (
0.6,
0.986,
1,
1
);
};
},
{
color = 6;
glyphname = D;
kernLeft = KO_H;
kernRight = KO_D;
lastChange = "2023-03-03 08:40:39 +0000";
layers = (
{
anchors = (
{
name = bottom;
pos = (526,0);
},
{
name = center;
pos = (526,854);
},
{
name = top;
pos = (526,1708);
}
);
background = {
anchors = (
{
name = bottom;
pos = (526,0);
},
{
name = center;
pos = (526,854);
},
{
name = top;
pos = (526,1708);
}
);
shapes = (
{
closed = 1;
nodes = (
(400,197,l),
(456,197,ls),
(644,197,o),
(690,280,o),
(690,601,cs),
(690,1107,l),
(690,1428,o),
(644,1511,o),
(456,1511,c),
(400,1511,l)
);
},
{
closed = 1;
nodes = (
(141,0,l),
(141,1708,l),
(410,1708,ls),
(652,1708,o),
(961,1695,o),
(961,1102,cs),
(961,606,l),
(961,12,o),
(652,0,o),
(410,0,cs)
);
}
);
};
layerId = "043639A7-E62C-4A4F-99F5-E7AE759848D8";
shapes = (
{
closed = 1;
nodes = (
(400,197,l),
(456,197,ls),
(644,197,o),
(690,280,o),
(690,601,cs),
(690,1107,l),
(690,1428,o),
(644,1511,o),
(456,1511,c),
(400,1511,l)
);
},
{
closed = 1;
nodes = (
(141,0,l),
(141,1708,l),
(410,1708,ls),
(652,1708,o),
(961,1695,o),
(961,1102,cs),
(961,606,l),
(961,12,o),
(652,0,o),
(410,0,cs)
);
}
);
width = 1051;
}
);
metricLeft = H;
unicode = 68;
userData = {
KernOnName = D;
com.typemytype.robofont.mark = (
1,
0.6,
0.6,
1
);
};
},
{
color = 6;
glyphname = Eth;
kernLeft = KO_Eth;
kernRight = KO_Dcroat;
lastChange = "2023-03-03 08:40:39 +0000";
layers = (
{
background = {
shapes = (
{
closed = 1;
nodes = (
(123,0,l),
(401,0,ls),
(594,0,o),
(936,28,o),
(936,606,cs),
(936,1129,ls),
(936,1696,o),
(594,1725,o),
(401,1725,cs),
(123,1725,l),
(123,1019,l),
(38,1019,l),
(38,817,l),
(123,817,l)
);
},
{
closed = 1;
nodes = (
(375,179,l),
(375,817,l),
(540,817,l),
(540,1019,l),
(375,1019,l),
(375,1546,l),
(413,1546,l),
(606,1546,o),
(667,1420,o),
(667,1176,cs),
(667,557,ls),
(667,297,o),
(598,179,o),
(413,179,cs)
);
}
);
};
layerId = "043639A7-E62C-4A4F-99F5-E7AE759848D8";
shapes = (
{
closed = 1;
nodes = (
(123,0,l),
(401,0,ls),
(594,0,o),
(936,28,o),
(936,606,cs),
(936,1129,ls),
(936,1696,o),
(594,1725,o),
(401,1725,cs),
(123,1725,l),
(123,1019,l),
(38,1019,l),
(38,817,l),
(123,817,l)
);
},
{
closed = 1;
nodes = (
(375,179,l),
(375,817,l),
(540,817,l),
(540,1019,l),
(375,1019,l),
(375,1546,l),
(413,1546,l),
(606,1546,o),
(667,1420,o),
(667,1176,cs),
(667,557,ls),
(667,297,o),
(598,179,o),
(413,179,cs)
);
}
);
width = 1027;
}
);
unicode = 208;
},
{
color = 10;
glyphname = Dcaron;
kernLeft = KO_H;
kernRight = KO_D;
lastChange = "2023-03-03 08:40:48 +0000";
layers = (
{
background = {
anchors = (
{
name = bottom;
pos = (526,0);
},
{
name = center;
pos = (526,854);
},
{
name = top;
pos = (526,2086);
}
);
shapes = (
{
closed = 1;
nodes = (
(400,197,l),
(456,197,ls),
(644,197,o),
(690,280,o),
(690,601,cs),
(690,1107,l),
(690,1428,o),
(644,1511,o),
(456,1511,c),
(400,1511,l)
);
},
{
closed = 1;
nodes = (
(141,0,l),
(141,1708,l),
(410,1708,ls),
(652,1708,o),
(961,1695,o),
(961,1102,cs),
(961,606,l),
(961,12,o),
(652,0,o),
(410,0,cs)
);
},
{
closed = 1;
nodes = (
(573,1956,l),
(533,1900,l),
(493,1956,l),
(409,2086,l),
(161,2086,l),
(411,1776,l),
(645,1776,l),
(891,2086,l),
(642,2086,l)
);
}
);
};
layerId = "043639A7-E62C-4A4F-99F5-E7AE759848D8";
shapes = (
{
ref = D;
},
{
pos = (531,0);
ref = caroncomb.case;
}
);
width = 1051;
}
);
unicode = 270;
userData = {
com.typemytype.robofont.mark = (
0.6,
0.986,
1,
1
);
};
},
{
color = 10;
glyphname = Dcircumflexbelow;
kernLeft = KO_H;
kernRight = KO_D;
lastChange = "2023-03-03 08:40:48 +0000";
layers = (
{
background = {
anchors = (
{
name = bottom;
pos = (526,-466);
},
{
name = center;
pos = (526,854);
},
{
name = top;
pos = (526,1708);
}
);
shapes = (
{
closed = 1;
nodes = (
(400,197,l),
(456,197,ls),
(644,197,o),
(690,280,o),
(690,601,cs),
(690,1107,l),
(690,1428,o),
(644,1511,o),
(456,1511,c),
(400,1511,l)
);
},
{
closed = 1;
nodes = (
(141,0,l),
(141,1708,l),
(410,1708,ls),
(652,1708,o),
(961,1695,o),
(961,1102,cs),
(961,606,l),
(961,12,o),
(652,0,o),
(410,0,cs)
);
},
{
closed = 1;
nodes = (
(436,-65,l),
(166,-466,l),
(384,-466,l),
(478,-314,l),
(528,-232,l),
(579,-314,l),
(667,-466,l),
(886,-466,l),
(610,-65,l)
);
}
);
};
layerId = "043639A7-E62C-4A4F-99F5-E7AE759848D8";
shapes = (
{
ref = D;
},
{
pos = (45,0);
ref = circumflexbelowcomb;
}
);
width = 1051;
}
);
unicode = 7698;
},
{
color = 10;
glyphname = Dcroat;
kernLeft = KO_Eth;
kernRight = KO_Dcroat;
lastChange = "2023-03-03 08:41:03 +0000";
layers = (
{
background = {
shapes = (
{
closed = 1;
nodes = (
(122,0,l),
(400,0,ls),
(593,0,o),
(935,28,o),
(935,606,cs),
(935,1129,ls),
(935,1696,o),
(593,1725,o),
(400,1725,cs),
(122,1725,l),
(122,1019,l),
(37,1019,l),
(37,817,l),
(122,817,l)
);
},
{
closed = 1;
nodes = (
(374,179,l),
(374,817,l),
(539,817,l),
(539,1019,l),
(374,1019,l),
(374,1546,l),
(412,1546,l),
(605,1546,o),
(666,1420,o),
(666,1176,cs),
(666,557,ls),
(666,297,o),
(597,179,o),
(412,179,cs)
);
}
);
};
layerId = "043639A7-E62C-4A4F-99F5-E7AE759848D8";
shapes = (
{
ref = Eth;
}
);
width = 1027;
}
);
metricLeft = Eth;
metricRight = D;
unicode = 272;
},
{
color = 10;
glyphname = Ddotbelow;
kernLeft = KO_H;
kernRight = KO_D;
lastChange = "2023-03-03 08:40:48 +0000";
layers = (
{
background = {
anchors = (
{
name = bottom;
pos = (526,-425);
},
{
name = center;
pos = (526,854);
},
{
name = top;
pos = (526,1708);
}
);
shapes = (
{
closed = 1;
nodes = (
(400,197,l),
(456,197,ls),
(644,197,o),
(690,280,o),
(690,601,cs),
(690,1107,l),
(690,1428,o),
(644,1511,o),
(456,1511,c),
(400,1511,l)
);
},
{
closed = 1;
nodes = (
(141,0,l),
(141,1708,l),
(410,1708,ls),
(652,1708,o),
(961,1695,o),
(961,1102,cs),
(961,606,l),
(961,12,o),
(652,0,o),
(410,0,cs)
);
},
{
closed = 1;
nodes = (
(369,-364,o),
(431,-425,o),
(524,-425,cs),
(623,-425,o),
(682,-361,o),
(682,-257,cs),
(682,-146,o),
(624,-94,o),
(525,-94,cs),
(430,-94,o),
(369,-138,o),
(369,-257,cs)
);
}
);
};
layerId = "043639A7-E62C-4A4F-99F5-E7AE759848D8";
shapes = (
{
ref = D;
},
{
pos = (525,0);
ref = dotbelowcomb;
}
);
width = 1051;
}
);
unicode = 7692;
},
{
color = 10;
glyphname = Dmacronbelow;
kernLeft = KO_H;
kernRight = KO_D;
lastChange = "2023-03-03 08:40:48 +0000";
layers = (
{
background = {
anchors = (
{
name = bottom;
pos = (526,-319);
},
{
name = center;
pos = (526,854);
},
{
name = top;
pos = (526,1708);
}
);
shapes = (
{
closed = 1;
nodes = (
(400,197,l),
(456,197,ls),
(644,197,o),
(690,280,o),
(690,601,cs),
(690,1107,l),
(690,1428,o),
(644,1511,o),
(456,1511,c),
(400,1511,l)
);
},
{
closed = 1;
nodes = (
(141,0,l),
(141,1708,l),
(410,1708,ls),
(652,1708,o),
(961,1695,o),
(961,1102,cs),
(961,606,l),
(961,12,o),
(652,0,o),
(410,0,cs)
);
},
{
closed = 1;
nodes = (
(214,-349,l),
(837,-349,l),
(837,-156,l),
(214,-156,l)
);
}
);
};
layerId = "043639A7-E62C-4A4F-99F5-E7AE759848D8";
shapes = (
{
ref = D;
},
{
pos = (184,0);
ref = macronbelowcomb;
}
);
width = 1051;
}
);
unicode = 7694;
},
{
color = 10;
glyphname = Dtail;
kernLeft = KO_Eth;
kernRight = KO_Dcroat;
lastChange = "2023-03-03 08:41:03 +0000";
layers = (
{
background = {
shapes = (
{
closed = 1;
nodes = (
(122,0,l),
(400,0,ls),
(593,0,o),
(935,28,o),
(935,606,cs),
(935,1129,ls),
(935,1696,o),
(593,1725,o),
(400,1725,cs),
(122,1725,l),
(122,1019,l),
(37,1019,l),
(37,817,l),
(122,817,l)
);
},
{
closed = 1;
nodes = (
(374,179,l),
(374,817,l),
(539,817,l),
(539,1019,l),
(374,1019,l),
(374,1546,l),
(412,1546,l),
(605,1546,o),
(666,1420,o),
(666,1176,cs),
(666,557,ls),
(666,297,o),
(597,179,o),
(412,179,cs)
);
}
);
};
layerId = "043639A7-E62C-4A4F-99F5-E7AE759848D8";
shapes = (
{
ref = Eth;
}
);
width = 1027;
}
);
metricLeft = Eth;
metricRight = D;
unicode = (393,598);
},
{
color = 6;
glyphname = E;
kernLeft = KO_H;
kernRight = KO_E;
lastChange = "2023-03-03 08:40:39 +0000";
layers = (
{
anchors = (
{
name = bottom;
pos = (410,0);
},
{
name = ogonek;
pos = (738,10);
},
{
name = top;
pos = (460,1708);
},
{
name = topleft;
pos = (20,1708);
}
);
background = {
anchors = (
{
name = bottom;
pos = (410,0);
},
{
name = ogonek;
pos = (738,10);
},
{
name = top;
pos = (460,1708);
},
{
name = topleft;
pos = (20,1708);
}
);
shapes = (
{
closed = 1;
nodes = (
(141,0,l),
(794,0,l),
(794,204,l),
(400,204,l),
(400,789,l),
(709,789,l),
(709,993,l),
(400,993,l),
(400,1504,l),
(794,1504,l),
(794,1708,l),
(141,1708,l)
);
}
);
};
layerId = "043639A7-E62C-4A4F-99F5-E7AE759848D8";
shapes = (
{
closed = 1;
nodes = (
(141,0,l),
(794,0,l),
(794,204,l),
(400,204,l),
(400,789,l),
(709,789,l),
(709,993,l),
(400,993,l),
(400,1504,l),
(794,1504,l),
(794,1708,l),
(141,1708,l)
);
}
);
width = 820;
}
);
metricLeft = H;
unicode = 69;
userData = {
KernOnName = E;
com.typemytype.robofont.mark = (
1,
0.6,
0.6,
1
);
};
},
{
color = 10;
glyphname = Eacute;
kernLeft = KO_H;
kernRight = KO_E;
lastChange = "2023-03-03 08:40:48 +0000";
layers = (
{
background = {
anchors = (
{
name = bottom;
pos = (410,0);
},
{
name = ogonek;
pos = (738,10);
},
{
name = top;
pos = (460,2086);
},
{
name = topleft;
pos = (20,1708);
}
);
shapes = (
{
closed = 1;
nodes = (
(141,0,l),
(794,0,l),
(794,204,l),
(400,204,l),
(400,789,l),
(709,789,l),
(709,993,l),
(400,993,l),
(400,1504,l),
(794,1504,l),
(794,1708,l),
(141,1708,l)
);
},
{
closed = 1;
nodes = (
(745,2029,l),
(576,2156,l),
(335,1870,l),
(460,1776,l)
);
}
);
};
layerId = "043639A7-E62C-4A4F-99F5-E7AE759848D8";
shapes = (
{
ref = E;
},
{
pos = (335,0);
ref = acutecomb.case;
}
);
width = 820;
}
);
unicode = 201;
userData = {
com.typemytype.robofont.mark = (
0.6,
0.986,
1,
1
);
};
},
{
color = 10;
glyphname = Ebreve;
kernLeft = KO_H;
kernRight = KO_AE;
lastChange = "2023-03-03 08:40:48 +0000";
layers = (
{
background = {
anchors = (
{
name = bottom;
pos = (410,0);
},
{
name = ogonek;
pos = (738,10);
},
{
name = top;
pos = (460,2089);
},
{
name = topleft;
pos = (20,1708);
}
);
shapes = (
{
closed = 1;
nodes = (
(141,0,l),
(794,0,l),
(794,204,l),
(400,204,l),
(400,789,l),
(709,789,l),
(709,993,l),
(400,993,l),
(400,1504,l),
(794,1504,l),
(794,1708,l),
(141,1708,l)
);
},
{
closed = 1;
nodes = (
(455,1786,cs),
(242,1786,o),
(141,1896,o),
(141,2052,cs),
(141,2075,o),
(143,2097,o),
(147,2119,c),
(325,2119,l),
(316,2097,o),
(315,2073,o),
(315,2048,cs),
(315,1978,o),
(360,1949,o),
(454,1949,cs),
(560,1949,o),
(612,1981,o),
(612,2048,cs),
(612,2073,o),
(615,2098,o),
(604,2119,c),
(773,2119,l),
(777,2097,o),
(779,2075,o),
(779,2052,cs),
(779,1904,o),
(673,1786,o)
);
}
);
};
layerId = "043639A7-E62C-4A4F-99F5-E7AE759848D8";
shapes = (
{
ref = E;
},
{
pos = (455,0);
ref = brevecomb.case;
}
);
width = 820;
}
);
unicode = 276;
userData = {
com.typemytype.robofont.mark = (
0.6,
0.986,
1,
1
);
};
},
{
color = 10;
glyphname = Ecaron;
kernLeft = KO_H;
kernRight = KO_AE;
lastChange = "2023-03-03 08:40:48 +0000";
layers = (
{
background = {
anchors = (
{
name = bottom;
pos = (410,0);
},
{
name = ogonek;
pos = (738,10);
},
{
name = top;
pos = (460,2086);
},
{
name = topleft;
pos = (20,1708);
}
);
shapes = (
{
closed = 1;
nodes = (
(141,0,l),
(794,0,l),
(794,204,l),
(400,204,l),
(400,789,l),
(709,789,l),
(709,993,l),
(400,993,l),
(400,1504,l),
(794,1504,l),
(794,1708,l),
(141,1708,l)
);
},
{
closed = 1;
nodes = (
(507,1956,l),
(467,1900,l),
(427,1956,l),
(343,2086,l),
(95,2086,l),
(345,1776,l),
(579,1776,l),
(825,2086,l),
(576,2086,l)
);
}
);
};
layerId = "043639A7-E62C-4A4F-99F5-E7AE759848D8";
shapes = (
{
ref = E;
},
{
pos = (465,0);
ref = caroncomb.case;
}
);
width = 820;
}
);
unicode = 282;
userData = {
com.typemytype.robofont.mark = (
0.6,
0.986,
1,
1
);
};
},
{
color = 10;
glyphname = Ecedilla;
lastChange = "2023-03-03 08:40:48 +0000";
layers = (
{
background = {
anchors = (
{
name = bottom;
pos = (410,-419);
},
{
name = ogonek;
pos = (738,10);
},
{
name = top;
pos = (460,1708);
},
{
name = topleft;
pos = (20,1708);
}
);
shapes = (
{
closed = 1;
nodes = (
(141,0,l),
(794,0,l),
(794,204,l),
(400,204,l),
(400,789,l),
(709,789,l),
(709,993,l),
(400,993,l),
(400,1504,l),
(794,1504,l),
(794,1708,l),
(141,1708,l)
);
},
{
closed = 1;
nodes = (
(419,13,l),
(416,-56,ls),
(409,-211,o),
(352,-239,o),
(262,-239,cs),
(251,-239,o),
(240,-239,o),
(229,-238,c),
(222,-389,l),
(277,-410,o),
(318,-419,o),
(373,-419,cs),
(436,-419,o),
(614,-389,o),
(597,-104,cs),
(590,13,l)
);
}
);
};
layerId = "043639A7-E62C-4A4F-99F5-E7AE759848D8";
shapes = (
{
ref = E;
},
{
pos = (484,0);
ref = cedillacomb;
}
);
width = 820;
}
);
unicode = 552;
},
{
color = 10;
glyphname = Ecircumflex;
kernLeft = KO_Ecircumflex;
kernRight = KO_AE;
lastChange = "2023-03-03 08:40:48 +0000";
layers = (
{
background = {
anchors = (
{
name = bottom;
pos = (410,0);
},
{
name = ogonek;
pos = (738,10);
},
{
name = top;
pos = (460,2086);
},
{
name = topleft;
pos = (20,1708);
}
);
shapes = (
{
closed = 1;
nodes = (
(141,0,l),
(794,0,l),
(794,204,l),
(400,204,l),
(400,789,l),
(709,789,l),
(709,993,l),
(400,993,l),
(400,1504,l),
(794,1504,l),
(794,1708,l),
(141,1708,l)
);
},
{
closed = 1;
nodes = (
(576,1806,l),
(825,1806,l),
(579,2116,l),
(345,2116,l),
(95,1806,l),
(343,1806,l),
(427,1936,l),
(467,1992,l),
(507,1936,l)
);
}
);
};
layerId = "043639A7-E62C-4A4F-99F5-E7AE759848D8";
shapes = (
{
ref = E;
},
{
pos = (465,0);
ref = circumflexcomb.case;
}
);
width = 820;
}
);
unicode = 202;
userData = {
com.typemytype.robofont.mark = (
0.6,
0.986,
1,
1
);
};
},
{
color = 10;
glyphname = Ecircumflexacute;
kernLeft = KO_Ecircumflex;
kernRight = KO_AE;
lastChange = "2023-03-03 08:40:48 +0000";
layers = (
{
background = {
anchors = (
{
name = bottom;
pos = (410,0);
},
{
name = ogonek;
pos = (738,10);
},
{
name = top;
pos = (460,2464);
},
{
name = topleft;
pos = (20,1708);
}
);
shapes = (
{
closed = 1;
nodes = (
(141,0,l),
(794,0,l),
(794,204,l),
(400,204,l),
(400,789,l),
(709,789,l),
(709,993,l),
(400,993,l),
(400,1504,l),
(794,1504,l),
(794,1708,l),
(141,1708,l)
);
},
{
closed = 1;
nodes = (
(576,1806,l),
(825,1806,l),
(579,2116,l),
(345,2116,l),
(95,1806,l),
(343,1806,l),
(427,1936,l),
(467,1992,l),
(507,1936,l)
);
},
{
closed = 1;
nodes = (
(745,2407,l),
(576,2534,l),
(335,2248,l),
(460,2154,l)
);
}
);
};
layerId = "043639A7-E62C-4A4F-99F5-E7AE759848D8";
shapes = (
{
ref = E;
},
{
pos = (465,0);
ref = circumflexcomb.case;
},
{
pos = (335,378);
ref = acutecomb.case;
}
);
width = 820;
}
);
unicode = 7870;
},
{
color = 10;
glyphname = Ecircumflexdotbelow;
kernLeft = KO_Ecircumflex;
kernRight = KO_AE;
lastChange = "2023-03-03 08:40:48 +0000";
layers = (
{
background = {
anchors = (
{
name = bottom;
pos = (410,-425);
},
{
name = ogonek;
pos = (738,10);
},
{
name = top;
pos = (460,2086);
},
{
name = topleft;
pos = (20,1708);
}
);
shapes = (
{
closed = 1;
nodes = (
(141,0,l),
(794,0,l),
(794,204,l),
(400,204,l),
(400,789,l),
(709,789,l),
(709,993,l),
(400,993,l),
(400,1504,l),
(794,1504,l),
(794,1708,l),
(141,1708,l)
);
},
{
closed = 1;
nodes = (
(253,-364,o),
(315,-425,o),
(408,-425,cs),
(507,-425,o),
(566,-361,o),
(566,-257,cs),
(566,-146,o),
(508,-94,o),
(409,-94,cs),
(314,-94,o),
(253,-138,o),
(253,-257,cs)
);
},
{
closed = 1;
nodes = (
(576,1806,l),
(825,1806,l),
(579,2116,l),
(345,2116,l),
(95,1806,l),
(343,1806,l),
(427,1936,l),
(467,1992,l),
(507,1936,l)
);
}
);
};
layerId = "043639A7-E62C-4A4F-99F5-E7AE759848D8";
shapes = (
{
ref = E;
},
{
pos = (409,0);
ref = dotbelowcomb;
},
{
pos = (465,0);
ref = circumflexcomb.case;
}
);
width = 820;
}
);
unicode = 7878;
userData = {
com.typemytype.robofont.mark = (
0.6,
0.986,
1,
1
);
};
},
{
color = 10;
glyphname = Ecircumflexgrave;
kernLeft = KO_Ecircumflex;
kernRight = KO_AE;
lastChange = "2023-03-03 08:40:48 +0000";
layers = (
{
background = {
anchors = (
{
name = bottom;
pos = (410,0);
},
{
name = ogonek;
pos = (738,10);
},
{
name = top;
pos = (460,2474);
},
{
name = topleft;
pos = (20,1708);
}
);
shapes = (
{
closed = 1;
nodes = (
(141,0,l),
(794,0,l),
(794,204,l),
(400,204,l),
(400,789,l),
(709,789,l),
(709,993,l),
(400,993,l),
(400,1504,l),
(794,1504,l),
(794,1708,l),
(141,1708,l)
);
},
{
closed = 1;
nodes = (
(576,1806,l),
(825,1806,l),
(579,2116,l),
(345,2116,l),
(95,1806,l),
(343,1806,l),
(427,1936,l),
(467,1992,l),
(507,1936,l)
);
},
{
closed = 1;
nodes = (
(588,2228,l),
(347,2514,l),
(178,2387,l),
(463,2134,l)
);
}
);
};
layerId = "043639A7-E62C-4A4F-99F5-E7AE759848D8";
shapes = (
{
ref = E;
},
{
pos = (465,0);
ref = circumflexcomb.case;
},
{
pos = (586,378);
ref = gravecomb.case;
}
);
width = 820;
}
);
unicode = 7872;
},
{
color = 10;
glyphname = Ecircumflexhookabove;
kernLeft = KO_Ecircumflex;
kernRight = KO_AE;
lastChange = "2023-03-03 08:40:48 +0000";
layers = (
{
background = {
anchors = (
{
name = bottom;
pos = (410,0);
},
{
name = ogonek;
pos = (738,10);
},
{
name = top;
pos = (460,2667);
},
{
name = topleft;
pos = (20,1708);
}
);
shapes = (
{
closed = 1;
nodes = (
(141,0,l),
(794,0,l),
(794,204,l),
(400,204,l),
(400,789,l),
(709,789,l),
(709,993,l),
(400,993,l),
(400,1504,l),
(794,1504,l),
(794,1708,l),
(141,1708,l)
);
},
{
closed = 1;
nodes = (
(576,1806,l),
(825,1806,l),
(579,2116,l),
(345,2116,l),
(95,1806,l),
(343,1806,l),
(427,1936,l),
(467,1992,l),
(507,1936,l)
);
},
{
closed = 1;
nodes = (
(557,2214,o),
(644,2275,o),
(644,2383,cs),
(644,2513,o),
(517,2624,o),
(312,2645,c),
(276,2509,l),
(399,2498,o),
(476,2451,o),
(476,2388,cs),
(476,2345,o),
(438,2313,o),
(368,2313,c),
(368,2197,l)
);
}
);
};
layerId = "043639A7-E62C-4A4F-99F5-E7AE759848D8";
shapes = (
{
ref = E;
},
{
pos = (465,0);
ref = circumflexcomb.case;
},
{
pos = (126,709);
ref = hookabovecomb;
}
);
width = 820;
}
);
unicode = 7874;
},
{
color = 10;
glyphname = Ecircumflextilde;
kernLeft = KO_Ecircumflex;
kernRight = KO_AE;
lastChange = "2023-03-03 08:40:48 +0000";
layers = (
{
background = {
anchors = (
{
name = bottom;
pos = (410,0);
},
{
name = ogonek;
pos = (738,10);
},
{
name = top;
pos = (460,2434);
},
{
name = topleft;
pos = (20,1708);
}
);
shapes = (
{
closed = 1;
nodes = (
(141,0,l),
(794,0,l),
(794,204,l),
(400,204,l),
(400,789,l),
(709,789,l),
(709,993,l),
(400,993,l),
(400,1504,l),
(794,1504,l),
(794,1708,l),
(141,1708,l)
);
},
{
closed = 1;
nodes = (
(576,1806,l),
(825,1806,l),
(579,2116,l),
(345,2116,l),
(95,1806,l),
(343,1806,l),
(427,1936,l),
(467,1992,l),
(507,1936,l)
);
},
{
closed = 1;
nodes = (
(597,2166,cs),
(687,2166,o),
(770,2232,o),
(770,2359,cs),
(770,2382,o),
(767,2412,o),
(761,2455,c),
(629,2455,l),
(629,2384,ls),
(629,2348,o),
(611,2332,o),
(587,2332,cs),
(552,2332,o),
(511,2382,o),
(482,2412,c),
(438,2452,o),
(398,2473,o),
(333,2473,cs),
(235,2473,o),
(149,2421,o),
(149,2257,cs),
(149,2245,o),
(152,2197,o),
(152,2183,c),
(300,2183,l),
(300,2249,ls),
(300,2285,o),
(313,2307,o),
(336,2307,cs),
(370,2307,o),
(384,2280,o),
(437,2229,c),
(484,2188,o),
(529,2166,o)
);
}
);
};
layerId = "043639A7-E62C-4A4F-99F5-E7AE759848D8";
shapes = (
{
ref = E;
},
{
pos = (465,0);
ref = circumflexcomb.case;
},
{
pos = (28,378);
ref = tildecomb.case;
}
);
width = 820;
}
);
unicode = 7876;
},
{
color = 10;
glyphname = Edieresis;
kernLeft = KO_H;
kernRight = KO_AE;
lastChange = "2023-03-03 08:40:48 +0000";
layers = (
{
background = {
anchors = (
{
name = bottom;
pos = (410,0);
},
{
name = ogonek;
pos = (738,10);
},
{
name = top;
pos = (460,2079);
},
{
name = topleft;
pos = (20,1708);
}
);
shapes = (
{
closed = 1;
nodes = (
(141,0,l),
(794,0,l),
(794,204,l),
(400,204,l),
(400,789,l),
(709,789,l),
(709,993,l),
(400,993,l),
(400,1504,l),
(794,1504,l),
(794,1708,l),
(141,1708,l)
);
},
{
closed = 1;
nodes = (
(237,1784,cs),
(346,1784,o),
(382,1841,o),
(382,1937,cs),
(382,2047,o),
(346,2099,o),
(237,2099,cs),
(131,2099,o),
(100,2044,o),
(100,1937,cs),
(100,1837,o),
(133,1784,o)
);
},
{
closed = 1;
nodes = (
(674,1784,cs),
(783,1784,o),
(820,1841,o),
(820,1937,cs),
(820,2047,o),
(783,2099,o),
(674,2099,cs),
(568,2099,o),
(538,2044,o),
(538,1937,cs),
(538,1837,o),
(570,1784,o)
);
}
);
};
layerId = "043639A7-E62C-4A4F-99F5-E7AE759848D8";
shapes = (
{
ref = E;
},
{
pos = (459,0);
ref = dieresiscomb.case;
}
);
width = 820;
}
);
unicode = 203;
userData = {
com.typemytype.robofont.mark = (
0.6,
0.986,
1,
1
);
};
},
{
color = 10;
glyphname = Edotaccent;
kernLeft = KO_H;
kernRight = KO_E;
lastChange = "2023-03-03 08:40:48 +0000";
layers = (
{
background = {
anchors = (
{
name = bottom;
pos = (410,0);
},
{
name = ogonek;
pos = (738,10);
},
{
name = top;
pos = (460,2101);
},
{
name = topleft;
pos = (20,1708);
}
);
shapes = (
{
closed = 1;
nodes = (
(141,0,l),
(794,0,l),
(794,204,l),
(400,204,l),
(400,789,l),
(709,789,l),
(709,993,l),
(400,993,l),
(400,1504,l),
(794,1504,l),
(794,1708,l),
(141,1708,l)
);
},
{
closed = 1;
nodes = (
(458,1790,cs),
(557,1790,o),
(616,1854,o),
(616,1958,cs),
(616,2069,o),
(558,2121,o),
(459,2121,cs),
(364,2121,o),
(303,2077,o),
(303,1958,cs),
(303,1851,o),
(365,1790,o)
);
}
);
};
layerId = "043639A7-E62C-4A4F-99F5-E7AE759848D8";
shapes = (
{
ref = E;
},
{
pos = (458,0);
ref = dotaccentcomb.case;
}
);
width = 820;
}
);
unicode = 278;
userData = {
com.typemytype.robofont.mark = (
0.6,
0.986,
1,
1
);
};
},
{
color = 10;
glyphname = Edotbelow;
kernLeft = KO_H;
kernRight = KO_AE;
lastChange = "2023-03-03 08:40:48 +0000";
layers = (
{
background = {
anchors = (
{
name = bottom;
pos = (410,-425);
},
{
name = ogonek;
pos = (738,10);
},
{
name = top;
pos = (460,1708);
},
{
name = topleft;
pos = (20,1708);
}
);
shapes = (
{
closed = 1;
nodes = (
(141,0,l),
(794,0,l),
(794,204,l),
(400,204,l),
(400,789,l),
(709,789,l),
(709,993,l),
(400,993,l),
(400,1504,l),
(794,1504,l),
(794,1708,l),
(141,1708,l)
);
},
{
closed = 1;
nodes = (
(253,-364,o),
(315,-425,o),
(408,-425,cs),
(507,-425,o),
(566,-361,o),
(566,-257,cs),
(566,-146,o),
(508,-94,o),
(409,-94,cs),
(314,-94,o),
(253,-138,o),
(253,-257,cs)
);
}
);
};
layerId = "043639A7-E62C-4A4F-99F5-E7AE759848D8";
shapes = (
{
ref = E;
},
{
pos = (409,0);
ref = dotbelowcomb;
}
);
width = 820;
}
);
unicode = 7864;
userData = {
com.typemytype.robofont.mark = (
0.6,
0.986,
1,
1
);
};
},
{
color = 10;
glyphname = Egrave;
kernLeft = KO_H;
kernRight = KO_AE;
lastChange = "2023-03-03 08:40:48 +0000";
layers = (
{
background = {
anchors = (
{
name = bottom;
pos = (410,0);
},
{
name = ogonek;
pos = (738,10);
},
{
name = top;
pos = (460,2096);
},
{
name = topleft;
pos = (20,1708);
}
);
shapes = (
{
closed = 1;
nodes = (
(141,0,l),
(794,0,l),
(794,204,l),
(400,204,l),
(400,789,l),
(709,789,l),
(709,993,l),
(400,993,l),
(400,1504,l),
(794,1504,l),
(794,1708,l),
(141,1708,l)
);
},
{
closed = 1;
nodes = (
(588,1850,l),
(347,2136,l),
(178,2009,l),
(463,1756,l)
);
}
);
};
layerId = "043639A7-E62C-4A4F-99F5-E7AE759848D8";
shapes = (
{
ref = E;
},
{
pos = (586,0);
ref = gravecomb.case;
}
);
width = 820;
}
);
unicode = 200;
userData = {
com.typemytype.robofont.mark = (
0.6,
0.986,
1,
1
);
};
},
{
color = 10;
glyphname = Ehookabove;
kernLeft = KO_H;
kernRight = KO_E;
lastChange = "2023-03-03 08:40:48 +0000";
layers = (
{
background = {
anchors = (
{
name = bottom;
pos = (410,0);
},
{
name = ogonek;
pos = (738,10);
},
{
name = top;
pos = (460,2289);
},
{
name = topleft;
pos = (20,1708);
}
);
shapes = (
{
closed = 1;
nodes = (
(141,0,l),
(794,0,l),
(794,204,l),
(400,204,l),
(400,789,l),
(709,789,l),
(709,993,l),
(400,993,l),
(400,1504,l),
(794,1504,l),
(794,1708,l),
(141,1708,l)
);
},
{
closed = 1;
nodes = (
(557,1836,o),
(644,1897,o),
(644,2005,cs),
(644,2135,o),
(517,2246,o),
(312,2267,c),
(276,2131,l),
(399,2120,o),
(476,2073,o),
(476,2010,cs),
(476,1967,o),
(438,1935,o),
(368,1935,c),
(368,1819,l)
);
}
);
};
layerId = "043639A7-E62C-4A4F-99F5-E7AE759848D8";
shapes = (
{
ref = E;
},
{
pos = (126,331);
ref = hookabovecomb;
}
);
width = 820;
}
);
unicode = 7866;
userData = {
com.typemytype.robofont.mark = (
0.6,
0.986,
1,
1
);
};
},
{
color = 10;
glyphname = Emacron;
kernLeft = KO_H;
kernRight = KO_AE;
lastChange = "2023-03-03 08:40:48 +0000";
layers = (
{
background = {
anchors = (
{
name = bottom;
pos = (410,0);
},
{
name = ogonek;
pos = (738,10);
},
{
name = top;
pos = (460,1998);
},
{
name = topleft;
pos = (20,1708);
}
);
shapes = (
{
closed = 1;
nodes = (
(141,0,l),
(794,0,l),
(794,204,l),
(400,204,l),
(400,789,l),
(709,789,l),
(709,993,l),
(400,993,l),
(400,1504,l),
(794,1504,l),
(794,1708,l),
(141,1708,l)
);
},
{
closed = 1;
nodes = (
(148,1835,l),
(771,1835,l),
(771,2028,l),
(148,2028,l)
);
}
);
};
layerId = "043639A7-E62C-4A4F-99F5-E7AE759848D8";
shapes = (
{
ref = E;
},
{
pos = (459,0);
ref = macroncomb.case;
}
);
width = 820;
}
);
unicode = 274;
userData = {
com.typemytype.robofont.mark = (
0.6,
0.986,
1,
1
);
};
},
{
color = 6;
glyphname = Eogonek;
kernLeft = KO_H;
kernRight = KO_AE;
lastChange = "2023-03-03 08:40:39 +0000";
layers = (
{
background = {
shapes = (
{
closed = 1;
nodes = (
(576,0,l),
(523,-21,o),
(441,-90,o),
(441,-194,cs),
(441,-382,o),
(581,-419,o),
(644,-419,cs),
(699,-419,o),
(740,-410,o),
(795,-389,c),
(788,-238,l),
(777,-239,o),
(766,-239,o),
(755,-239,cs),
(665,-239,o),
(649,-134,o),
(770,0,c),
(665,13,l)
);
},
{
closed = 1;
nodes = (
(141,0,l),
(794,0,l),
(794,204,l),
(400,204,l),
(400,789,l),
(709,789,l),
(709,993,l),
(400,993,l),
(400,1504,l),
(794,1504,l),
(794,1708,l),
(141,1708,l)
);
}
);
};
layerId = "043639A7-E62C-4A4F-99F5-E7AE759848D8";
shapes = (
{
closed = 1;
nodes = (
(576,0,l),
(523,-21,o),
(441,-90,o),
(441,-194,cs),
(441,-382,o),
(581,-419,o),
(644,-419,cs),
(699,-419,o),
(740,-410,o),
(795,-389,c),
(788,-238,l),
(777,-239,o),
(766,-239,o),
(755,-239,cs),
(665,-239,o),
(649,-134,o),
(770,0,c),
(665,13,l)
);
},
{
closed = 1;
nodes = (
(141,0,l),
(794,0,l),
(794,204,l),
(400,204,l),
(400,789,l),
(709,789,l),
(709,993,l),
(400,993,l),
(400,1504,l),
(794,1504,l),
(794,1708,l),
(141,1708,l)
);
}
);
width = 820;
}
);
unicode = 280;
userData = {
com.typemytype.robofont.mark = (
0.6,
0.986,
1,
1
);
};
},
{
color = 6;
glyphname = Eopen;
kernRight = KO_Eopen;
lastChange = "2023-03-03 08:41:03 +0000";
layers = (
{
background = {
shapes = (
{
closed = 1;
nodes = (
(933,476,o),
(916,549,c),
(714,549,l),
(714,469,ls),
(714,256,o),
(639,187,o),
(539,187,cs),
(440,187,o),
(381,241,o),
(381,385,cs),
(381,567,ls),
(381,712,o),
(424,792,o),
(557,792,cs),
(666,792,l),
(666,977,l),
(557,977,ls),
(471,977,o),
(406,1031,o),
(406,1172,cs),
(406,1336,ls),
(406,1462,o),
(453,1520,o),
(550,1520,cs),
(657,1520,o),
(718,1419,o),
(718,1239,cs),
(718,1157,l),
(918,1157,l),
(932,1223,o),
(945,1288,o),
(945,1361,cs),
(945,1534,o),
(819,1723,o),
(550,1723,cs),
(259,1723,o),
(139,1586,o),
(139,1345,c),
(139,1240,ls),
(139,1046,o),
(246,942,o),
(349,893,c),
(349,885,l),
(216,840,o),
(114,745,o),
(114,521,cs),
(114,408,ls),
(114,93,o),
(309,-15,o),
(539,-15,cs),
(800,-15,o),
(941,118,o),
(941,348,cs),
(941,405,o)
);
}
);
};
layerId = "043639A7-E62C-4A4F-99F5-E7AE759848D8";
shapes = (
{
closed = 1;
nodes = (
(933,476,o),
(916,549,c),
(714,549,l),
(714,469,ls),
(714,256,o),
(639,187,o),
(539,187,cs),
(440,187,o),
(381,241,o),
(381,385,cs),
(381,567,ls),
(381,712,o),
(424,792,o),
(557,792,cs),
(666,792,l),
(666,977,l),
(557,977,ls),
(471,977,o),
(406,1031,o),
(406,1172,cs),
(406,1336,ls),
(406,1462,o),
(453,1520,o),
(550,1520,cs),
(657,1520,o),
(718,1419,o),
(718,1239,cs),
(718,1157,l),
(918,1157,l),
(932,1223,o),
(945,1288,o),
(945,1361,cs),
(945,1534,o),
(819,1723,o),
(550,1723,cs),
(259,1723,o),
(139,1586,o),
(139,1345,c),
(139,1240,ls),
(139,1046,o),
(246,942,o),
(349,893,c),
(349,885,l),
(216,840,o),
(114,745,o),
(114,521,cs),
(114,408,ls),
(114,93,o),
(309,-15,o),
(539,-15,cs),
(800,-15,o),
(941,118,o),
(941,348,cs),
(941,405,o)
);
}
);
width = 971;
}
);
metricLeft = O;
metricRight = E;
unicode = 400;
},
{
color = 6;
glyphname = Ereversed;
kernRight = KO_H;
lastChange = "2023-03-03 08:40:39 +0000";
layers = (
{
anchors = (
{
name = bottom;
pos = (410,0);
},
{
name = ogonek;
pos = (82,10);
},
{
name = top;
pos = (410,1708);
},
{
name = topright;
pos = (800,1708);
}
);
background = {
anchors = (
{
name = bottom;
pos = (410,0);
},
{
name = ogonek;
pos = (82,10);
},
{
name = top;
pos = (410,1708);
},
{
name = topright;
pos = (800,1708);
}
);
shapes = (
{
closed = 1;
nodes = (
(26,1708,l),
(26,1504,l),
(420,1504,l),
(420,993,l),
(111,993,l),
(111,789,l),
(420,789,l),
(420,204,l),
(26,204,l),
(26,0,l),
(679,0,l),
(679,1708,l)
);
}
);
};
layerId = "043639A7-E62C-4A4F-99F5-E7AE759848D8";
shapes = (
{
closed = 1;
nodes = (
(26,1708,l),
(26,1504,l),
(420,1504,l),
(420,993,l),
(111,993,l),
(111,789,l),
(420,789,l),
(420,204,l),
(26,204,l),
(26,0,l),
(679,0,l),
(679,1708,l)
);
}
);
width = 820;
}
);
unicode = 398;
},
{
color = 6;
glyphname = Esh;
kernRight = KO_E;
lastChange = "2023-03-03 08:40:39 +0000";
layers = (
{
background = {
shapes = (
{
closed = 1;
nodes = (
(735,0,l),
(735,204,l),
(304,204,l),
(634,894,l),
(304,1504,l),
(735,1504,l),
(735,1708,l),
(14,1708,l),
(14,1571,l),
(380,895,l),
(14,137,l),
(14,0,l)
);
}
);
};
layerId = "043639A7-E62C-4A4F-99F5-E7AE759848D8";
shapes = (
{
closed = 1;
nodes = (
(735,0,l),
(735,204,l),
(304,204,l),
(634,894,l),
(304,1504,l),
(735,1504,l),
(735,1708,l),
(14,1708,l),
(14,1571,l),
(380,895,l),
(14,137,l),
(14,0,l)
);
}
);
width = 761;
}
);
metricLeft = V;
metricRight = E;
unicode = 425;
},
{
color = 10;
glyphname = Etilde;
kernLeft = KO_H;
kernRight = KO_AE;
lastChange = "2023-03-03 08:40:48 +0000";
layers = (
{
background = {
anchors = (
{
name = bottom;
pos = (410,0);
},
{
name = ogonek;
pos = (738,10);
},
{
name = top;
pos = (460,2056);
},
{
name = topleft;
pos = (20,1708);
}
);
shapes = (
{
closed = 1;
nodes = (
(141,0,l),
(794,0,l),
(794,204,l),
(400,204,l),
(400,789,l),
(709,789,l),
(709,993,l),
(400,993,l),
(400,1504,l),
(794,1504,l),
(794,1708,l),
(141,1708,l)
);
},
{
closed = 1;
nodes = (
(597,1788,cs),
(687,1788,o),
(770,1854,o),
(770,1981,cs),
(770,2004,o),
(767,2034,o),
(761,2077,c),
(629,2077,l),
(629,2006,ls),
(629,1970,o),
(611,1954,o),
(587,1954,cs),
(552,1954,o),
(511,2004,o),
(482,2034,c),
(438,2074,o),
(398,2095,o),
(333,2095,cs),
(235,2095,o),
(149,2043,o),
(149,1879,cs),
(149,1867,o),
(152,1819,o),
(152,1805,c),
(300,1805,l),
(300,1871,ls),
(300,1907,o),
(313,1929,o),
(336,1929,cs),
(370,1929,o),
(384,1902,o),
(437,1851,c),
(484,1810,o),
(529,1788,o)
);
}
);
};
layerId = "043639A7-E62C-4A4F-99F5-E7AE759848D8";
shapes = (
{
ref = E;
},
{
pos = (28,0);
ref = tildecomb.case;
}
);
width = 820;
}
);
unicode = 7868;
userData = {
com.typemytype.robofont.mark = (
0.6,
0.986,
1,
1
);
};
},
{
color = 6;
glyphname = Schwa;
kernRight = KO_Schwa;
lastChange = "2023-03-03 08:41:03 +0000";
layers = (
{
background = {
shapes = (
{
closed = 1;
nodes = (
(898,1679,o),
(633,1725,o),
(507,1725,cs),
(257,1725,o),
(121,1583,o),
(121,1260,cs),
(121,1182,l),
(341,1182,l),
(341,1286,ls),
(341,1466,o),
(406,1522,o),
(472,1522,cs),
(594,1522,o),
(628,1454,o),
(628,1232,cs),
(628,916,l),
(149,916,l),
(128,807,o),
(114,655,o),
(114,517,cs),
(114,106,o),
(280,-16,o),
(473,-16,cs),
(628,-16,o),
(898,37,o),
(898,548,cs),
(898,1171,ls)
);
},
{
closed = 1;
nodes = (
(628,706,l),
(628,428,ls),
(628,219,o),
(583,186,o),
(489,186,c),
(400,187,o),
(361,241,o),
(361,429,cs),
(361,548,o),
(362,670,o),
(365,706,c)
);
}
);
};
layerId = "043639A7-E62C-4A4F-99F5-E7AE759848D8";
shapes = (
{
closed = 1;
nodes = (
(898,1679,o),
(633,1725,o),
(507,1725,cs),
(257,1725,o),
(121,1583,o),
(121,1260,cs),
(121,1182,l),
(341,1182,l),
(341,1286,ls),
(341,1466,o),
(406,1522,o),
(472,1522,cs),
(594,1522,o),
(628,1454,o),
(628,1232,cs),
(628,916,l),
(149,916,l),
(128,807,o),
(114,655,o),
(114,517,cs),
(114,106,o),
(280,-16,o),
(473,-16,cs),
(628,-16,o),
(898,37,o),
(898,548,cs),
(898,1171,ls)
);
},
{
closed = 1;
nodes = (
(628,706,l),
(628,428,ls),
(628,219,o),
(583,186,o),
(489,186,c),
(400,187,o),
(361,241,o),
(361,429,cs),
(361,548,o),
(362,670,o),
(365,706,c)
);
}
);
width = 1012;
}
);
metricLeft = O;
metricRight = O;
unicode = 399;
},
{
color = 6;
glyphname = Ezh;
kernLeft = KO_ordfeminine;
lastChange = "2023-03-03 08:41:03 +0000";
layers = (
{
anchors = (
{
name = bottom;
pos = (483,0);
},
{
name = top;
pos = (483,1708);
}
);
background = {
anchors = (
{
name = bottom;
pos = (483,0);
},
{
name = top;
pos = (483,1708);
}
);
shapes = (
{
closed = 1;
nodes = (
(356,792,l),
(465,792,ls),
(598,792,o),
(641,712,o),
(641,567,cs),
(641,385,ls),
(641,241,o),
(582,187,o),
(483,187,cs),
(383,187,o),
(308,256,o),
(308,469,cs),
(308,549,l),
(106,549,l),
(89,476,o),
(81,405,o),
(81,348,cs),
(81,118,o),
(222,-15,o),
(483,-15,cs),
(713,-15,o),
(908,93,o),
(908,408,cs),
(908,521,ls),
(908,811,o),
(766,934,o),
(618,934,c),
(859,1571,l),
(859,1708,l),
(138,1708,l),
(138,1504,l),
(569,1504,l),
(356,977,l)
);
}
);
};
layerId = "043639A7-E62C-4A4F-99F5-E7AE759848D8";
shapes = (
{
closed = 1;
nodes = (
(356,792,l),
(465,792,ls),
(598,792,o),
(641,712,o),
(641,567,cs),
(641,385,ls),
(641,241,o),
(582,187,o),
(483,187,cs),
(383,187,o),
(308,256,o),
(308,469,cs),
(308,549,l),
(106,549,l),
(89,476,o),
(81,405,o),
(81,348,cs),
(81,118,o),
(222,-15,o),
(483,-15,cs),
(713,-15,o),
(908,93,o),
(908,408,cs),
(908,521,ls),
(908,811,o),
(766,934,o),
(618,934,c),
(859,1571,l),
(859,1708,l),
(138,1708,l),
(138,1504,l),
(569,1504,l),
(356,977,l)
);
}
);
width = 976;
}
);
metricLeft = three;
metricRight = P;
unicode = 439;
},
{
color = 10;
glyphname = Ezhcaron;
lastChange = "2023-03-03 08:41:13 +0000";
layers = (
{
background = {
anchors = (
{
name = bottom;
pos = (493,0);
},
{
name = top;
pos = (493,2086);
}
);
shapes = (
{
closed = 1;
nodes = (
(366,792,l),
(475,792,ls),
(608,792,o),
(651,712,o),
(651,567,cs),
(651,385,ls),
(651,241,o),
(592,187,o),
(493,187,cs),
(393,187,o),
(318,256,o),
(318,469,cs),
(318,549,l),
(116,549,l),
(99,476,o),
(91,405,o),
(91,348,cs),
(91,118,o),
(232,-15,o),
(493,-15,cs),
(723,-15,o),
(918,93,o),
(918,408,cs),
(918,521,ls),
(918,811,o),
(776,934,o),
(628,934,c),
(869,1571,l),
(869,1708,l),
(148,1708,l),
(148,1504,l),
(579,1504,l),
(366,977,l)
);
},
{
closed = 1;
nodes = (
(540,1956,l),
(500,1900,l),
(460,1956,l),
(376,2086,l),
(128,2086,l),
(378,1776,l),
(612,1776,l),
(858,2086,l),
(609,2086,l)
);
}
);
};
layerId = "043639A7-E62C-4A4F-99F5-E7AE759848D8";
shapes = (
{
ref = Ezh;
},
{
pos = (488,0);
ref = caroncomb.case;
}
);
width = 976;
}
);
unicode = 494;
},
{
color = 6;
glyphname = F;
kernLeft = KO_H;
kernRight = KO_F;
lastChange = "2023-03-03 08:40:39 +0000";
layers = (
{
anchors = (
{
name = bottom;
pos = (408,0);
},
{
name = top;
pos = (408,1708);
}
);
background = {
anchors = (
{
name = bottom;
pos = (408,0);
},
{
name = top;
pos = (408,1708);
}
);
shapes = (
{
closed = 1;
nodes = (
(141,0,l),
(400,0,l),
(400,789,l),
(709,789,l),
(709,993,l),
(400,993,l),
(400,1496,l),
(794,1496,l),
(794,1708,l),
(141,1708,l)
);
}
);
};
layerId = "043639A7-E62C-4A4F-99F5-E7AE759848D8";
shapes = (
{
closed = 1;
nodes = (
(141,0,l),
(400,0,l),
(400,789,l),
(709,789,l),
(709,993,l),
(400,993,l),
(400,1496,l),
(794,1496,l),
(794,1708,l),
(141,1708,l)
);
}
);
width = 816;
}
);
unicode = 70;
userData = {
KernOnName = F;
com.typemytype.robofont.mark = (
1,
0.6,
0.6,
1
);
};
},
{
color = 6;
glyphname = G;
kernLeft = KO_C;
kernRight = KO_G;
lastChange = "2023-03-03 08:40:39 +0000";
layers = (
{
anchors = (
{
name = bottom;
pos = (515,0);
},
{
name = top;
pos = (515,1708);
}
);
background = {
anchors = (
{
name = bottom;
pos = (515,0);
},
{
name = top;
pos = (515,1708);
}
);
shapes = (
{
closed = 1;
nodes = (
(489,-16,cs),
(618,-16,o),
(725,87,o),
(766,193,c),
(749,183,l),
(780,0,l),
(948,0,l),
(948,865,l),
(700,821,l),
(700,477,ls),
(700,313,o),
(651,187,o),
(536,187,cs),
(427,187,o),
(378,251,o),
(378,463,cs),
(378,1233,ls),
(378,1452,o),
(425,1520,o),
(534,1520,cs),
(640,1520,o),
(687,1426,o),
(687,1239,cs),
(687,1157,l),
(887,1157,l),
(901,1231,o),
(914,1288,o),
(914,1361,cs),
(914,1559,o),
(818,1723,o),
(541,1723,cs),
(378,1723,o),
(107,1676,o),
(107,1161,cs),
(107,556,ls),
(107,43,o),
(368,-16,o)
);
},
{
closed = 1;
nodes = (
(567,695,l),
(907,695,l),
(948,865,l),
(567,865,l)
);
}
);
};
layerId = "043639A7-E62C-4A4F-99F5-E7AE759848D8";
shapes = (
{
closed = 1;
nodes = (
(489,-16,cs),
(618,-16,o),
(725,87,o),
(766,193,c),
(749,183,l),
(780,0,l),
(948,0,l),
(948,865,l),
(700,821,l),
(700,477,ls),
(700,313,o),
(651,187,o),
(536,187,cs),
(427,187,o),
(378,251,o),
(378,463,cs),
(378,1233,ls),
(378,1452,o),
(425,1520,o),
(534,1520,cs),
(640,1520,o),
(687,1426,o),
(687,1239,cs),
(687,1157,l),
(887,1157,l),
(901,1231,o),
(914,1288,o),
(914,1361,cs),
(914,1559,o),
(818,1723,o),
(541,1723,cs),
(378,1723,o),
(107,1676,o),
(107,1161,cs),
(107,556,ls),
(107,43,o),
(368,-16,o)
);
},
{
closed = 1;
nodes = (
(567,695,l),
(907,695,l),
(948,865,l),
(567,865,l)
);
}
);
width = 1029;
}
);
unicode = 71;
userData = {
KernOnName = G;
com.typemytype.robofont.mark = (
1,
0.6,
0.6,
1
);
};
},
{
color = 10;
glyphname = Gbreve;
kernLeft = KO_C;
kernRight = KO_G;
lastChange = "2023-03-03 08:40:48 +0000";
layers = (
{
background = {
anchors = (
{
name = bottom;
pos = (515,0);
},
{
name = top;
pos = (515,2089);
}
);
shapes = (
{
closed = 1;
nodes = (
(489,-16,cs),
(618,-16,o),
(725,87,o),
(766,193,c),
(749,183,l),
(780,0,l),
(948,0,l),
(948,865,l),
(700,821,l),
(700,477,ls),
(700,313,o),
(651,187,o),
(536,187,cs),
(427,187,o),
(378,251,o),
(378,463,cs),
(378,1233,ls),
(378,1452,o),
(425,1520,o),
(534,1520,cs),
(640,1520,o),
(687,1426,o),
(687,1239,cs),
(687,1157,l),
(887,1157,l),
(901,1231,o),
(914,1288,o),
(914,1361,cs),
(914,1559,o),
(818,1723,o),
(541,1723,cs),
(378,1723,o),
(107,1676,o),
(107,1161,cs),
(107,556,ls),
(107,43,o),
(368,-16,o)
);
},
{
closed = 1;
nodes = (
(567,695,l),
(907,695,l),
(948,865,l),
(567,865,l)
);
},
{
closed = 1;
nodes = (
(510,1786,cs),
(297,1786,o),
(196,1896,o),
(196,2052,cs),
(196,2075,o),
(198,2097,o),
(202,2119,c),
(380,2119,l),
(371,2097,o),
(370,2073,o),
(370,2048,cs),
(370,1978,o),
(415,1949,o),
(509,1949,cs),
(615,1949,o),
(667,1981,o),
(667,2048,cs),
(667,2073,o),
(670,2098,o),
(659,2119,c),
(828,2119,l),
(832,2097,o),
(834,2075,o),
(834,2052,cs),
(834,1904,o),
(728,1786,o)
);
}
);
};
layerId = "043639A7-E62C-4A4F-99F5-E7AE759848D8";
shapes = (
{
ref = G;
},
{
pos = (510,0);
ref = brevecomb.case;
}
);
width = 1029;
}
);
unicode = 286;
userData = {
com.typemytype.robofont.mark = (
0.6,
0.986,
1,
1
);
};
},
{
color = 10;
glyphname = Gcaron;
kernLeft = KO_C;
kernRight = KO_G;
lastChange = "2023-03-03 08:40:48 +0000";
layers = (
{
background = {
anchors = (
{
name = bottom;
pos = (515,0);
},
{
name = top;
pos = (515,2086);
}
);
shapes = (
{
closed = 1;
nodes = (
(489,-16,cs),
(618,-16,o),
(725,87,o),
(766,193,c),
(749,183,l),
(780,0,l),
(948,0,l),
(948,865,l),
(700,821,l),
(700,477,ls),
(700,313,o),
(651,187,o),
(536,187,cs),
(427,187,o),
(378,251,o),
(378,463,cs),
(378,1233,ls),
(378,1452,o),
(425,1520,o),
(534,1520,cs),
(640,1520,o),
(687,1426,o),
(687,1239,cs),
(687,1157,l),
(887,1157,l),
(901,1231,o),
(914,1288,o),
(914,1361,cs),
(914,1559,o),
(818,1723,o),
(541,1723,cs),
(378,1723,o),
(107,1676,o),
(107,1161,cs),
(107,556,ls),
(107,43,o),
(368,-16,o)
);
},
{
closed = 1;
nodes = (
(567,695,l),
(907,695,l),
(948,865,l),
(567,865,l)
);
},
{
closed = 1;
nodes = (
(562,1956,l),
(522,1900,l),
(482,1956,l),
(398,2086,l),
(150,2086,l),
(400,1776,l),
(634,1776,l),
(880,2086,l),
(631,2086,l)
);
}
);
};
layerId = "043639A7-E62C-4A4F-99F5-E7AE759848D8";
shapes = (
{
ref = G;
},
{
pos = (520,0);
ref = caroncomb.case;
}
);
width = 1029;
}
);
unicode = 486;
},
{
color = 10;
glyphname = Gcircumflex;
kernLeft = KO_C;
kernRight = KO_G;
lastChange = "2023-03-03 08:40:48 +0000";
layers = (
{
background = {
anchors = (
{
name = bottom;
pos = (515,0);
},
{
name = top;
pos = (515,2086);
}
);
shapes = (
{
closed = 1;
nodes = (
(489,-16,cs),
(618,-16,o),
(725,87,o),
(766,193,c),
(749,183,l),
(780,0,l),
(948,0,l),
(948,865,l),
(700,821,l),
(700,477,ls),
(700,313,o),
(651,187,o),
(536,187,cs),
(427,187,o),
(378,251,o),
(378,463,cs),
(378,1233,ls),
(378,1452,o),
(425,1520,o),
(534,1520,cs),
(640,1520,o),
(687,1426,o),
(687,1239,cs),
(687,1157,l),
(887,1157,l),
(901,1231,o),
(914,1288,o),
(914,1361,cs),
(914,1559,o),
(818,1723,o),
(541,1723,cs),
(378,1723,o),
(107,1676,o),
(107,1161,cs),
(107,556,ls),
(107,43,o),
(368,-16,o)
);
},
{
closed = 1;
nodes = (
(567,695,l),
(907,695,l),
(948,865,l),
(567,865,l)
);
},
{
closed = 1;
nodes = (
(631,1806,l),
(880,1806,l),
(634,2116,l),
(400,2116,l),
(150,1806,l),
(398,1806,l),
(482,1936,l),
(522,1992,l),
(562,1936,l)
);
}
);
};
layerId = "043639A7-E62C-4A4F-99F5-E7AE759848D8";
shapes = (
{
ref = G;
},
{
pos = (520,0);
ref = circumflexcomb.case;
}
);
width = 1029;
}
);
unicode = 284;
userData = {
com.typemytype.robofont.mark = (
0.6,
0.986,
1,
1
);
};
},
{
color = 10;
glyphname = Gcommaaccent;
kernLeft = KO_C;
kernRight = KO_G;
lastChange = "2023-03-03 08:40:48 +0000";
layers = (
{
background = {
anchors = (
{
name = bottom;
pos = (515,-531);
},
{
name = top;
pos = (515,1708);
}
);
shapes = (
{
closed = 1;
nodes = (
(489,-16,cs),
(618,-16,o),
(725,87,o),
(766,193,c),
(749,183,l),
(780,0,l),
(948,0,l),
(948,865,l),
(700,821,l),
(700,477,ls),
(700,313,o),
(651,187,o),
(536,187,cs),
(427,187,o),
(378,251,o),
(378,463,cs),
(378,1233,ls),
(378,1452,o),
(425,1520,o),
(534,1520,cs),
(640,1520,o),
(687,1426,o),
(687,1239,cs),
(687,1157,l),
(887,1157,l),
(901,1231,o),
(914,1288,o),
(914,1361,cs),
(914,1559,o),
(818,1723,o),
(541,1723,cs),
(378,1723,o),
(107,1676,o),
(107,1161,cs),
(107,556,ls),
(107,43,o),
(368,-16,o)
);
},
{
closed = 1;
nodes = (
(567,695,l),
(907,695,l),
(948,865,l),
(567,865,l)
);
},
{
closed = 1;
nodes = (
(425,-97,l),
(363,-531,l),
(558,-531,l),
(666,-97,l)
);
}
);
};
layerId = "043639A7-E62C-4A4F-99F5-E7AE759848D8";
shapes = (
{
ref = G;
},
{
pos = (530,0);
ref = commaaccentcomb;
}
);
width = 1029;
}
);
unicode = 290;
userData = {
com.typemytype.robofont.mark = (
0.6,
0.986,
1,
1
);
};
},
{
color = 10;
glyphname = Gdotaccent;
kernLeft = KO_C;
kernRight = KO_G;
lastChange = "2023-03-03 08:40:48 +0000";
layers = (
{
background = {
anchors = (
{
name = bottom;
pos = (515,0);
},
{
name = top;
pos = (515,2101);
}
);
shapes = (
{
closed = 1;
nodes = (
(489,-16,cs),
(618,-16,o),
(725,87,o),
(766,193,c),
(749,183,l),
(780,0,l),
(948,0,l),
(948,865,l),
(700,821,l),
(700,477,ls),
(700,313,o),
(651,187,o),
(536,187,cs),
(427,187,o),
(378,251,o),
(378,463,cs),
(378,1233,ls),
(378,1452,o),
(425,1520,o),
(534,1520,cs),
(640,1520,o),
(687,1426,o),
(687,1239,cs),
(687,1157,l),
(887,1157,l),
(901,1231,o),
(914,1288,o),
(914,1361,cs),
(914,1559,o),
(818,1723,o),
(541,1723,cs),
(378,1723,o),
(107,1676,o),
(107,1161,cs),
(107,556,ls),
(107,43,o),
(368,-16,o)
);
},
{
closed = 1;
nodes = (
(567,695,l),
(907,695,l),
(948,865,l),
(567,865,l)
);
},
{
closed = 1;
nodes = (
(513,1790,cs),
(612,1790,o),
(671,1854,o),
(671,1958,cs),
(671,2069,o),
(613,2121,o),
(514,2121,cs),
(419,2121,o),
(358,2077,o),
(358,1958,cs),
(358,1851,o),
(420,1790,o)
);
}
);
};
layerId = "043639A7-E62C-4A4F-99F5-E7AE759848D8";
shapes = (
{
ref = G;
},
{
pos = (513,0);
ref = dotaccentcomb.case;
}
);
width = 1029;
}
);
unicode = 288;
userData = {
com.typemytype.robofont.mark = (
0.6,
0.986,
1,
1
);
};
},
{
color = 10;
glyphname = Gmacron;
kernLeft = KO_C;
kernRight = KO_G;
lastChange = "2023-03-03 08:40:48 +0000";
layers = (
{
background = {
anchors = (
{
name = bottom;
pos = (515,0);
},
{
name = top;
pos = (515,1998);
}
);
shapes = (
{
closed = 1;
nodes = (
(489,-16,cs),
(618,-16,o),
(725,87,o),
(766,193,c),
(749,183,l),
(780,0,l),
(948,0,l),
(948,865,l),
(700,821,l),
(700,477,ls),
(700,313,o),
(651,187,o),
(536,187,cs),
(427,187,o),
(378,251,o),
(378,463,cs),
(378,1233,ls),
(378,1452,o),
(425,1520,o),
(534,1520,cs),
(640,1520,o),
(687,1426,o),
(687,1239,cs),
(687,1157,l),
(887,1157,l),
(901,1231,o),
(914,1288,o),
(914,1361,cs),
(914,1559,o),
(818,1723,o),
(541,1723,cs),
(378,1723,o),
(107,1676,o),
(107,1161,cs),
(107,556,ls),
(107,43,o),
(368,-16,o)
);
},
{
closed = 1;
nodes = (
(567,695,l),
(907,695,l),
(948,865,l),
(567,865,l)
);
},
{
closed = 1;
nodes = (
(203,1835,l),
(826,1835,l),
(826,2028,l),
(203,2028,l)
);
}
);
};
layerId = "043639A7-E62C-4A4F-99F5-E7AE759848D8";
shapes = (
{
ref = G;
},
{
pos = (514,0);
ref = macroncomb.case;
}
);
width = 1029;
}
);
unicode = 7712;
},
{
color = 10;
glyphname = Gstroke;
kernLeft = KO_C;
lastChange = "2023-03-03 08:40:48 +0000";
layers = (
{
background = {
anchors = (
{
name = bottom;
pos = (515,0);
},
{
name = top;
pos = (515,1708);
}
);
shapes = (
{
closed = 1;
nodes = (
(489,-16,cs),
(618,-16,o),
(725,87,o),
(766,193,c),
(749,183,l),
(780,0,l),
(948,0,l),
(948,865,l),
(700,821,l),
(700,477,ls),
(700,313,o),
(651,187,o),
(536,187,cs),
(427,187,o),
(378,251,o),
(378,463,cs),
(378,1233,ls),
(378,1452,o),
(425,1520,o),
(534,1520,cs),
(640,1520,o),
(687,1426,o),
(687,1239,cs),
(687,1157,l),
(887,1157,l),
(901,1231,o),
(914,1288,o),
(914,1361,cs),
(914,1559,o),
(818,1723,o),
(541,1723,cs),
(378,1723,o),
(107,1676,o),
(107,1161,cs),
(107,556,ls),
(107,43,o),
(368,-16,o)
);
},
{
closed = 1;
nodes = (
(567,695,l),
(907,695,l),
(948,865,l),
(567,865,l)
);
},
{
closed = 1;
nodes = (
(1120,444,l),
(1120,634,l),
(520,634,l),
(520,444,l)
);
}
);
};
layerId = "043639A7-E62C-4A4F-99F5-E7AE759848D8";
shapes = (
{
alignment = -1;
ref = G;
},
{
pos = (520,-138);
ref = strokeshortcomb;
}
);
width = 1149;
}
);
metricLeft = G;
metricRight = t;
unicode = 484;
},
{
color = 6;
glyphname = H;
kernLeft = KO_H;
kernRight = KO_H;
lastChange = "2023-03-03 08:40:39 +0000";
layers = (
{
anchors = (
{
name = bottom;
pos = (554,0);
},
{
name = center;
pos = (554,854);
},
{
name = top;
pos = (554,1708);
},
{
name = topleft;
pos = (20,1708);
}
);
background = {
anchors = (
{
name = bottom;
pos = (554,0);
},
{
name = center;
pos = (554,854);
},
{
name = top;
pos = (554,1708);
},
{
name = topleft;
pos = (20,1708);
}
);
shapes = (
{
closed = 1;
nodes = (
(141,0,l),
(400,0,l),
(400,789,l),
(707,789,l),
(707,0,l),
(966,0,l),
(966,1708,l),
(707,1708,l),
(707,993,l),
(400,993,l),
(400,1708,l),
(141,1708,l)
);
}
);
};
layerId = "043639A7-E62C-4A4F-99F5-E7AE759848D8";
shapes = (
{
closed = 1;
nodes = (
(141,0,l),
(400,0,l),
(400,789,l),
(707,789,l),
(707,0,l),
(966,0,l),
(966,1708,l),
(707,1708,l),
(707,993,l),
(400,993,l),
(400,1708,l),
(141,1708,l)
);
}
);
width = 1107;
}
);
unicode = 72;
userData = {
KernOnName = H;
com.typemytype.robofont.mark = (
1,
0.6,
0.6,
1
);
};
},
{
color = 6;
glyphname = Hbar;
kernRight = KO_Hbar;
lastChange = "2023-03-03 08:40:39 +0000";
layers = (
{
background = {
shapes = (
{
closed = 1;
nodes = (
(20,1183,l),
(1087,1183,l),
(1087,1376,l),
(20,1376,l)
);
},
{
closed = 1;
nodes = (
(141,0,l),
(400,0,l),
(400,789,l),
(707,789,l),
(707,0,l),
(966,0,l),
(966,1708,l),
(707,1708,l),
(707,993,l),
(400,993,l),
(400,1708,l),
(141,1708,l)
);
}
);
};
layerId = "043639A7-E62C-4A4F-99F5-E7AE759848D8";
shapes = (
{
closed = 1;
nodes = (
(20,1183,l),
(1087,1183,l),
(1087,1376,l),
(20,1376,l)
);
},
{
closed = 1;
nodes = (
(141,0,l),
(400,0,l),
(400,789,l),
(707,789,l),
(707,0,l),
(966,0,l),
(966,1708,l),
(707,1708,l),
(707,993,l),
(400,993,l),
(400,1708,l),
(141,1708,l)
);
}
);
width = 1107;
}
);
unicode = 294;
userData = {
com.typemytype.robofont.mark = (
0.6,
0.986,
1,
1
);
};
},
{
color = 10;
glyphname = Hbrevebelow;
kernLeft = KO_H;
kernRight = KO_H;
lastChange = "2023-03-03 08:40:48 +0000";
layers = (
{
background = {
anchors = (
{
name = bottom;
pos = (554,-444);
},
{
name = center;
pos = (554,854);
},
{
name = top;
pos = (554,1708);
},
{
name = topleft;
pos = (20,1708);
}
);
shapes = (
{
closed = 1;
nodes = (
(141,0,l),
(400,0,l),
(400,789,l),
(707,789,l),
(707,0,l),
(966,0,l),
(966,1708,l),
(707,1708,l),
(707,993,l),
(400,993,l),
(400,1708,l),
(141,1708,l)
);
},
{
closed = 1;
nodes = (
(549,-444,cs),
(336,-444,o),
(235,-294,o),
(235,-138,cs),
(235,-115,o),
(237,-93,o),
(241,-71,c),
(419,-71,l),
(410,-93,o),
(409,-117,o),
(409,-142,cs),
(409,-212,o),
(454,-281,o),
(548,-281,cs),
(654,-281,o),
(706,-209,o),
(706,-142,cs),
(706,-117,o),
(709,-92,o),
(698,-71,c),
(867,-71,l),
(871,-93,o),
(873,-115,o),
(873,-138,cs),
(873,-286,o),
(767,-444,o)
);
}
);
};
layerId = "043639A7-E62C-4A4F-99F5-E7AE759848D8";
shapes = (
{
ref = H;
},
{
pos = (205,0);
ref = brevebelowcomb;
}
);
width = 1107;
}
);
unicode = 7722;
},
{
color = 10;
glyphname = Hcircumflex;
kernLeft = KO_H;
kernRight = KO_H;
lastChange = "2023-11-28 04:04:00 +0000";
layers = (
{
background = {
anchors = (
{
name = bottom;
pos = (554,0);
},
{
name = center;
pos = (554,854);
},
{
name = top;
pos = (554,2086);
},
{
name = topleft;
pos = (20,1708);
}
);
shapes = (
{
closed = 1;
nodes = (
(141,0,l),
(400,0,l),
(400,789,l),
(707,789,l),
(707,0,l),
(966,0,l),
(966,1708,l),
(707,1708,l),
(707,993,l),
(400,993,l),
(400,1708,l),
(141,1708,l)
);
},
{
closed = 1;
nodes = (
(670,1806,l),
(919,1806,l),
(673,2116,l),
(439,2116,l),
(189,1806,l),
(437,1806,l),
(521,1936,l),
(561,1992,l),
(601,1936,l)
);
}
);
};
layerId = "043639A7-E62C-4A4F-99F5-E7AE759848D8";
shapes = (
{
ref = H;
},
{
pos = (559,0);
ref = circumflexcomb.case;
}
);
width = 1107;
}
);
unicode = 292;
userData = {
com.typemytype.robofont.mark = (
0.6,
0.986,
1,
1
);
};
},
{
color = 10;
glyphname = Hdotbelow;
kernLeft = KO_H;
kernRight = KO_H;
lastChange = "2023-03-03 08:40:48 +0000";
layers = (
{
background = {
anchors = (
{
name = bottom;
pos = (554,-425);
},
{
name = center;
pos = (554,854);
},
{
name = top;
pos = (554,1708);
},
{
name = topleft;
pos = (20,1708);
}
);
shapes = (
{
closed = 1;
nodes = (
(141,0,l),
(400,0,l),
(400,789,l),
(707,789,l),
(707,0,l),
(966,0,l),
(966,1708,l),
(707,1708,l),
(707,993,l),
(400,993,l),
(400,1708,l),
(141,1708,l)
);
},
{
closed = 1;
nodes = (
(397,-364,o),
(459,-425,o),
(552,-425,cs),
(651,-425,o),
(710,-361,o),
(710,-257,cs),
(710,-146,o),
(652,-94,o),
(553,-94,cs),
(458,-94,o),
(397,-138,o),
(397,-257,cs)
);
}
);
};
layerId = "043639A7-E62C-4A4F-99F5-E7AE759848D8";
shapes = (
{
ref = H;
},
{
pos = (553,0);
ref = dotbelowcomb;
}
);
width = 1107;
}
);
unicode = 7716;
},
{
color = 6;
glyphname = Hturned;
lastChange = "2023-03-03 08:40:39 +0000";
layers = (
{
anchors = (
{
name = bottom;
pos = (756,-111);
},
{
name = center;
pos = (506,660);
},
{
name = top;
pos = (506,1708);
}
);
background = {
anchors = (
{
name = bottom;
pos = (756,-111);
},
{
name = center;
pos = (506,660);
},
{
name = top;
pos = (506,1708);
}
);
shapes = (
{
closed = 1;
nodes = (
(884,1708,l),
(631,1708,l),
(631,997,l),
(593,938,o),
(542,901,o),
(491,901,cs),
(419,901,o),
(381,942,o),
(381,1063,cs),
(381,1708,l),
(128,1708,l),
(128,1033,ls),
(128,809,o),
(220,695,o),
(380,695,cs),
(473,695,o),
(569,726,o),
(644,829,c),
(631,593,l),
(631,0,l),
(884,0,l)
);
}
);
};
layerId = "043639A7-E62C-4A4F-99F5-E7AE759848D8";
shapes = (
{
closed = 1;
nodes = (
(884,1708,l),
(631,1708,l),
(631,997,l),
(593,938,o),
(542,901,o),
(491,901,cs),
(419,901,o),
(381,942,o),
(381,1063,cs),
(381,1708,l),
(128,1708,l),
(128,1033,ls),
(128,809,o),
(220,695,o),
(380,695,cs),
(473,695,o),
(569,726,o),
(644,829,c),
(631,593,l),
(631,0,l),
(884,0,l)
);
}
);
width = 1012;
}
);
unicode = (42893,613);
},
{
color = 6;
glyphname = I;
kernLeft = KO_I;
kernRight = KO_I;
lastChange = "2023-03-03 08:40:39 +0000";
layers = (
{
anchors = (
{
name = bottom;
pos = (273,0);
},
{
name = ogonek;
pos = (489,10);
},
{
name = top;
pos = (273,1708);
},
{
name = topleft;
pos = (22,1708);
}
);
background = {
anchors = (
{
name = bottom;
pos = (273,0);
},
{
name = ogonek;
pos = (489,10);
},
{
name = top;
pos = (273,1708);
},
{
name = topleft;
pos = (22,1708);
}
);
shapes = (
{
closed = 1;
nodes = (
(143,0,l),
(402,0,l),
(402,1708,l),
(143,1708,l)
);
}
);
};
layerId = "043639A7-E62C-4A4F-99F5-E7AE759848D8";
shapes = (
{
closed = 1;
nodes = (
(143,0,l),
(402,0,l),
(402,1708,l),
(143,1708,l)
);
}
);
width = 545;
}
);
unicode = 73;
userData = {
KernOnName = I;
com.typemytype.robofont.mark = (
1,
0.6,
0.6,
1
);
};
},
{
color = 10;
glyphname = IJ;
kernLeft = KO_I;
kernRight = KO_J;
lastChange = "2023-03-03 08:40:48 +0000";
layers = (
{
background = {
anchors = (
{
name = bottom;
pos = (946,0);
},
{
name = ogonek;
pos = (489,10);
},
{
name = top;
pos = (1112,1708);
},
{
name = topleft;
pos = (22,1708);
}
);
shapes = (
{
closed = 1;
nodes = (
(143,0,l),
(402,0,l),
(402,1708,l),
(143,1708,l)
);
},
{
closed = 1;
nodes = (
(547,362,cs),
(547,156,o),
(629,-16,o),
(886,-16,cs),
(1070,-16,o),
(1245,61,o),
(1245,414,cs),
(1245,1708,l),
(986,1708,l),
(986,385,ls),
(986,230,o),
(948,187,o),
(886,187,cs),
(812,187,o),
(782,242,o),
(782,418,cs),
(782,619,l),
(575,619,l),
(556,529,o),
(547,434,o)
);
}
);
};
layerId = "043639A7-E62C-4A4F-99F5-E7AE759848D8";
shapes = (
{
ref = I;
},
{
pos = (535,0);
ref = J;
}
);
width = 1356;
}
);
unicode = 306;
},
{
color = 10;
glyphname = IJ_acutecomb;
lastChange = "2023-03-03 08:40:48 +0000";
layers = (
{
background = {
anchors = (
{
name = bottom;
pos = (946,0);
},
{
name = ogonek;
pos = (489,10);
},
{
name = top;
pos = (1112,2086);
},
{
name = topleft;
pos = (22,1708);
}
);
shapes = (
{
closed = 1;
nodes = (
(143,0,l),
(402,0,l),
(402,1708,l),
(143,1708,l)
);
},
{
closed = 1;
nodes = (
(558,2029,l),
(389,2156,l),
(148,1870,l),
(273,1776,l)
);
},
{
closed = 1;
nodes = (
(547,362,cs),
(547,156,o),
(629,-16,o),
(886,-16,cs),
(1070,-16,o),
(1245,61,o),
(1245,414,cs),
(1245,1708,l),
(986,1708,l),
(986,385,ls),
(986,230,o),
(948,187,o),
(886,187,cs),
(812,187,o),
(782,242,o),
(782,418,cs),
(782,619,l),
(575,619,l),
(556,529,o),
(547,434,o)
);
},
{
closed = 1;
nodes = (
(1397,2029,l),
(1228,2156,l),
(987,1870,l),
(1112,1776,l)
);
}
);
};
layerId = "043639A7-E62C-4A4F-99F5-E7AE759848D8";
shapes = (
{
ref = I;
},
{
pos = (148,0);
ref = acutecomb.case;
},
{
pos = (535,0);
ref = J;
},
{
pos = (987,0);
ref = acutecomb.case;
}
);
width = 1356;
}
);
},
{
color = 10;
glyphname = Iacute;
kernLeft = KO_I;
kernRight = KO_I;
lastChange = "2023-03-03 08:40:48 +0000";
layers = (
{
background = {
anchors = (
{
name = bottom;
pos = (273,0);
},
{
name = ogonek;
pos = (489,10);
},
{
name = top;
pos = (273,2086);
},
{
name = topleft;
pos = (22,1708);
}
);
shapes = (
{
closed = 1;
nodes = (
(143,0,l),
(402,0,l),
(402,1708,l),
(143,1708,l)
);
},
{
closed = 1;
nodes = (
(558,2029,l),
(389,2156,l),
(148,1870,l),
(273,1776,l)
);
}
);
};
layerId = "043639A7-E62C-4A4F-99F5-E7AE759848D8";
shapes = (
{
ref = I;
},
{
pos = (148,0);
ref = acutecomb.case;
}
);
width = 545;
}
);
unicode = 205;
userData = {
com.typemytype.robofont.mark = (
0.6,
0.986,
1,
1
);
};
},
{
color = 10;
glyphname = Ibreve;
lastChange = "2023-03-03 08:40:48 +0000";
layers = (
{
background = {
anchors = (
{
name = bottom;
pos = (273,0);
},
{
name = ogonek;
pos = (489,10);
},
{
name = top;
pos = (273,2089);
},
{
name = topleft;
pos = (22,1708);
}
);
shapes = (
{
closed = 1;
nodes = (
(143,0,l),
(402,0,l),
(402,1708,l),
(143,1708,l)
);
},
{
closed = 1;
nodes = (
(268,1786,cs),
(55,1786,o),
(-46,1896,o),
(-46,2052,cs),
(-46,2075,o),
(-44,2097,o),
(-40,2119,c),
(138,2119,l),
(129,2097,o),
(128,2073,o),
(128,2048,cs),
(128,1978,o),
(173,1949,o),
(267,1949,cs),
(373,1949,o),
(425,1981,o),
(425,2048,cs),
(425,2073,o),
(428,2098,o),
(417,2119,c),
(586,2119,l),
(590,2097,o),
(592,2075,o),
(592,2052,cs),
(592,1904,o),
(486,1786,o)
);
}
);
};
layerId = "043639A7-E62C-4A4F-99F5-E7AE759848D8";
shapes = (
{
ref = I;
},
{
pos = (268,0);
ref = brevecomb.case;
}
);
width = 545;
}
);
unicode = 300;
userData = {
com.typemytype.robofont.mark = (
0.6,
0.986,
1,
1
);
};
},
{
color = 10;
glyphname = Icaron;
kernLeft = KO_I;
lastChange = "2023-03-03 08:40:48 +0000";
layers = (
{
background = {
anchors = (
{
name = bottom;
pos = (273,0);
},
{
name = ogonek;
pos = (489,10);
},
{
name = top;
pos = (273,2086);
},
{
name = topleft;
pos = (22,1708);
}
);
shapes = (
{
closed = 1;
nodes = (
(143,0,l),
(402,0,l),
(402,1708,l),
(143,1708,l)
);
},
{
closed = 1;
nodes = (
(320,1956,l),
(280,1900,l),
(240,1956,l),
(156,2086,l),
(-92,2086,l),
(158,1776,l),
(392,1776,l),
(638,2086,l),
(389,2086,l)
);
}
);
};
layerId = "043639A7-E62C-4A4F-99F5-E7AE759848D8";
shapes = (
{
ref = I;
},
{
pos = (278,0);
ref = caroncomb.case;
}
);
width = 545;
}
);
unicode = 463;
},
{
color = 10;
glyphname = Icircumflex;
kernLeft = KO_Icircumflex;
kernRight = KO_Icircumflex;
lastChange = "2023-03-03 08:40:48 +0000";
layers = (
{
background = {
anchors = (
{
name = bottom;
pos = (273,0);
},
{
name = ogonek;
pos = (489,10);
},
{
name = top;
pos = (273,2086);
},
{
name = topleft;
pos = (22,1708);
}
);
shapes = (
{
closed = 1;
nodes = (
(143,0,l),
(402,0,l),
(402,1708,l),
(143,1708,l)
);
},
{
closed = 1;
nodes = (
(389,1806,l),
(638,1806,l),
(392,2116,l),
(158,2116,l),
(-92,1806,l),
(156,1806,l),
(240,1936,l),
(280,1992,l),
(320,1936,l)
);
}
);
};
layerId = "043639A7-E62C-4A4F-99F5-E7AE759848D8";
shapes = (
{
ref = I;
},
{
pos = (278,0);
ref = circumflexcomb.case;
}
);
width = 545;
}
);
unicode = 206;
userData = {
com.typemytype.robofont.mark = (
0.6,
0.986,
1,
1
);
};
},
{
color = 10;
glyphname = Idieresis;
kernRight = KO_Idieresis;
lastChange = "2023-03-03 08:40:48 +0000";
layers = (
{
background = {
anchors = (
{
name = bottom;
pos = (273,0);
},
{
name = ogonek;
pos = (489,10);
},
{
name = top;
pos = (273,2079);
},
{
name = topleft;
pos = (22,1708);
}
);
shapes = (
{
closed = 1;
nodes = (
(143,0,l),
(402,0,l),
(402,1708,l),
(143,1708,l)
);
},
{
closed = 1;
nodes = (
(50,1784,cs),
(159,1784,o),
(195,1841,o),
(195,1937,cs),
(195,2047,o),
(159,2099,o),
(50,2099,cs),
(-56,2099,o),
(-87,2044,o),
(-87,1937,cs),
(-87,1837,o),
(-54,1784,o)
);
},
{
closed = 1;
nodes = (
(487,1784,cs),
(596,1784,o),
(633,1841,o),
(633,1937,cs),
(633,2047,o),
(596,2099,o),
(487,2099,cs),
(381,2099,o),
(351,2044,o),
(351,1937,cs),
(351,1837,o),
(383,1784,o)
);
}
);
};
layerId = "043639A7-E62C-4A4F-99F5-E7AE759848D8";
shapes = (
{
ref = I;
},
{
pos = (272,0);
ref = dieresiscomb.case;
}
);
width = 545;
}
);
unicode = 207;
userData = {
com.typemytype.robofont.mark = (
0.6,
0.986,
1,
1
);
};
},
{
color = 10;
glyphname = Idieresisacute;
lastChange = "2023-03-03 08:40:48 +0000";
layers = (
{
background = {
anchors = (
{
name = bottom;
pos = (273,0);
},
{
name = ogonek;
pos = (489,10);
},
{
name = top;
pos = (273,2457);
},
{
name = topleft;
pos = (22,1708);
}
);
shapes = (
{
closed = 1;
nodes = (
(143,0,l),
(402,0,l),
(402,1708,l),
(143,1708,l)
);
},
{
closed = 1;
nodes = (
(50,1784,cs),
(159,1784,o),
(195,1841,o),
(195,1937,cs),
(195,2047,o),
(159,2099,o),
(50,2099,cs),
(-56,2099,o),
(-87,2044,o),
(-87,1937,cs),
(-87,1837,o),
(-54,1784,o)
);
},
{
closed = 1;
nodes = (
(487,1784,cs),
(596,1784,o),
(633,1841,o),
(633,1937,cs),
(633,2047,o),
(596,2099,o),
(487,2099,cs),
(381,2099,o),
(351,2044,o),
(351,1937,cs),
(351,1837,o),
(383,1784,o)
);
},
{
closed = 1;
nodes = (
(558,2400,l),
(389,2527,l),
(148,2241,l),
(273,2147,l)
);
}
);
};
layerId = "043639A7-E62C-4A4F-99F5-E7AE759848D8";
shapes = (
{
ref = I;
},
{
pos = (272,0);
ref = dieresiscomb.case;
},
{
pos = (148,371);
ref = acutecomb.case;
}
);
width = 545;
}
);
unicode = 7726;
},
{
color = 10;
glyphname = Idotaccent;
kernLeft = KO_I;
kernRight = KO_I;
lastChange = "2023-03-03 08:40:48 +0000";
layers = (
{
background = {
anchors = (
{
name = bottom;
pos = (273,0);
},
{
name = ogonek;
pos = (489,10);
},
{
name = top;
pos = (273,2101);
},
{
name = topleft;
pos = (22,1708);
}
);
shapes = (
{
closed = 1;
nodes = (
(143,0,l),
(402,0,l),
(402,1708,l),
(143,1708,l)
);
},
{
closed = 1;
nodes = (
(271,1790,cs),
(370,1790,o),
(429,1854,o),
(429,1958,cs),
(429,2069,o),
(371,2121,o),
(272,2121,cs),
(177,2121,o),
(116,2077,o),
(116,1958,cs),
(116,1851,o),
(178,1790,o)
);
}
);
};
layerId = "043639A7-E62C-4A4F-99F5-E7AE759848D8";
shapes = (
{
ref = I;
},
{
pos = (271,0);
ref = dotaccentcomb.case;
}
);
width = 545;
}
);
unicode = 304;
userData = {
com.typemytype.robofont.mark = (
0.6,
0.986,
1,
1
);
};
},
{
color = 10;
glyphname = Idotbelow;
kernLeft = KO_I;
kernRight = KO_I;
lastChange = "2023-03-03 08:40:48 +0000";
layers = (
{
background = {
anchors = (
{
name = bottom;
pos = (273,-425);
},
{
name = ogonek;
pos = (489,10);
},
{
name = top;
pos = (273,1708);
},
{
name = topleft;
pos = (22,1708);
}
);
shapes = (
{
closed = 1;
nodes = (
(143,0,l),
(402,0,l),
(402,1708,l),
(143,1708,l)
);
},
{
closed = 1;
nodes = (
(116,-364,o),
(178,-425,o),
(271,-425,cs),
(370,-425,o),
(429,-361,o),
(429,-257,cs),
(429,-146,o),
(371,-94,o),
(272,-94,cs),
(177,-94,o),
(116,-138,o),
(116,-257,cs)
);
}
);
};
layerId = "043639A7-E62C-4A4F-99F5-E7AE759848D8";
shapes = (
{
ref = I;
},
{
pos = (272,0);
ref = dotbelowcomb;
}
);
width = 545;
}
);
unicode = 7882;
userData = {
com.typemytype.robofont.mark = (
0.6,
0.986,
1,
1
);
};
},
{
color = 10;
glyphname = Igrave;
kernLeft = KO_I;
kernRight = KO_I;
lastChange = "2023-03-03 08:40:48 +0000";
layers = (
{
background = {
anchors = (
{
name = bottom;
pos = (273,0);
},
{
name = ogonek;
pos = (489,10);
},
{
name = top;
pos = (273,2096);
},
{
name = topleft;
pos = (22,1708);
}
);
shapes = (
{
closed = 1;
nodes = (
(143,0,l),
(402,0,l),
(402,1708,l),
(143,1708,l)
);
},
{
closed = 1;
nodes = (
(401,1850,l),
(160,2136,l),
(-9,2009,l),
(276,1756,l)
);
}
);
};
layerId = "043639A7-E62C-4A4F-99F5-E7AE759848D8";
shapes = (
{
ref = I;
},
{
pos = (399,0);
ref = gravecomb.case;
}
);
width = 545;
}
);
unicode = 204;
userData = {
com.typemytype.robofont.mark = (
0.6,
0.986,
1,
1
);
};
},
{
color = 10;
glyphname = Ihookabove;
kernLeft = KO_I;
kernRight = KO_I;
lastChange = "2023-03-03 08:40:48 +0000";
layers = (
{
background = {
anchors = (
{
name = bottom;
pos = (273,0);
},
{
name = ogonek;
pos = (489,10);
},
{
name = top;
pos = (273,2289);
},
{
name = topleft;
pos = (22,1708);
}
);
shapes = (
{
closed = 1;
nodes = (
(143,0,l),
(402,0,l),
(402,1708,l),
(143,1708,l)
);
},
{
closed = 1;
nodes = (
(370,1836,o),
(457,1897,o),
(457,2005,cs),
(457,2135,o),
(330,2246,o),
(125,2267,c),
(89,2131,l),
(212,2120,o),
(289,2073,o),
(289,2010,cs),
(289,1967,o),
(251,1935,o),
(181,1935,c),
(181,1819,l)
);
}
);
};
layerId = "043639A7-E62C-4A4F-99F5-E7AE759848D8";
shapes = (
{
ref = I;
},
{
pos = (-61,331);
ref = hookabovecomb;
}
);
width = 545;
}
);
unicode = 7880;
},
{
color = 10;
glyphname = Imacron;
kernRight = KO_Imacron;
lastChange = "2023-03-03 08:40:48 +0000";
layers = (
{
background = {
anchors = (
{
name = bottom;
pos = (273,0);
},
{
name = ogonek;
pos = (489,10);
},
{
name = top;
pos = (273,1998);
},
{
name = topleft;
pos = (22,1708);
}
);
shapes = (
{
closed = 1;
nodes = (
(143,0,l),
(402,0,l),
(402,1708,l),
(143,1708,l)
);
},
{
closed = 1;
nodes = (
(-39,1835,l),
(584,1835,l),
(584,2028,l),
(-39,2028,l)
);
}
);
};
layerId = "043639A7-E62C-4A4F-99F5-E7AE759848D8";
shapes = (
{
ref = I;
},
{
pos = (272,0);
ref = macroncomb.case;
}
);
width = 545;
}
);
unicode = 298;
userData = {
com.typemytype.robofont.mark = (
0.6,
0.986,
1,
1
);
};
},
{
color = 10;
glyphname = Iogonek;
kernLeft = KO_I;
kernRight = KO_Iogonek;
lastChange = "2023-03-03 08:40:48 +0000";
layers = (
{
background = {
anchors = (
{
name = bottom;
pos = (273,0);
},
{
name = ogonek;
pos = (489,10);
},
{
name = top;
pos = (273,1708);
},
{
name = topleft;
pos = (22,1708);
}
);
shapes = (
{
closed = 1;
nodes = (
(143,0,l),
(402,0,l),
(402,1708,l),
(143,1708,l)
);
},
{
closed = 1;
nodes = (
(220,-3,l),
(198,-23,o),
(135,-93,o),
(135,-197,cs),
(135,-385,o),
(275,-422,o),
(338,-422,cs),
(393,-422,o),
(434,-413,o),
(489,-392,c),
(482,-241,l),
(471,-242,o),
(460,-242,o),
(449,-242,cs),
(359,-242,o),
(293,-137,o),
(414,-3,c),
(309,10,l)
);
}
);
};
layerId = "043639A7-E62C-4A4F-99F5-E7AE759848D8";
shapes = (
{
ref = I;
},
{
pos = (331,-3);
ref = ogonekcomb;
}
);
width = 545;
}
);
unicode = 302;
userData = {
com.typemytype.robofont.mark = (
0.6,
0.986,
1,
1
);
};
},
{
color = 10;
glyphname = Istroke;
lastChange = "2023-03-03 08:40:48 +0000";
layers = (
{
background = {
anchors = (
{
name = bottom;
pos = (273,0);
},
{
name = ogonek;
pos = (489,10);
},
{
name = top;
pos = (273,1708);
},
{
name = topleft;
pos = (22,1708);
}
);
shapes = (
{
closed = 1;
nodes = (
(143,0,l),
(402,0,l),
(402,1708,l),
(143,1708,l)
);
},
{
closed = 1;
nodes = (
(569,831,l),
(569,1021,l),
(-31,1021,l),
(-31,831,l)
);
}
);
};
layerId = "043639A7-E62C-4A4F-99F5-E7AE759848D8";
shapes = (
{
ref = I;
},
{
pos = (-31,249);
ref = strokeshortcomb;
}
);
width = 545;
}
);
unicode = 407;
},
{
color = 10;
glyphname = Itilde;
lastChange = "2023-03-03 08:40:48 +0000";
layers = (
{
background = {
anchors = (
{
name = bottom;
pos = (273,0);
},
{
name = ogonek;
pos = (489,10);
},
{
name = top;
pos = (273,2056);
},
{
name = topleft;
pos = (22,1708);
}
);
shapes = (
{
closed = 1;
nodes = (
(143,0,l),
(402,0,l),
(402,1708,l),
(143,1708,l)
);
},
{
closed = 1;
nodes = (
(410,1788,cs),
(500,1788,o),
(583,1854,o),
(583,1981,cs),
(583,2004,o),
(580,2034,o),
(574,2077,c),
(442,2077,l),
(442,2006,ls),
(442,1970,o),
(424,1954,o),
(400,1954,cs),
(365,1954,o),
(324,2004,o),
(295,2034,c),
(251,2074,o),
(211,2095,o),
(146,2095,cs),
(48,2095,o),
(-38,2043,o),
(-38,1879,cs),
(-38,1867,o),
(-35,1819,o),
(-35,1805,c),
(113,1805,l),
(113,1871,ls),
(113,1907,o),
(126,1929,o),
(149,1929,cs),
(183,1929,o),
(197,1902,o),
(250,1851,c),
(297,1810,o),
(342,1788,o)
);
}
);
};
layerId = "043639A7-E62C-4A4F-99F5-E7AE759848D8";
shapes = (
{
ref = I;
},
{
pos = (-159,0);
ref = tildecomb.case;
}
);
width = 545;
}
);
unicode = 296;
userData = {
com.typemytype.robofont.mark = (
0.6,
0.986,
1,
1
);
};
},
{
color = 6;
glyphname = J;
kernLeft = KO_J;
kernRight = KO_J;
lastChange = "2023-03-03 08:40:39 +0000";
layers = (
{
anchors = (
{
name = bottom;
pos = (411,0);
},
{
name = top;
pos = (577,1708);
}
);
background = {
anchors = (
{
name = bottom;
pos = (411,0);
},
{
name = top;
pos = (577,1708);
}
);
shapes = (
{
closed = 1;
nodes = (
(12,362,cs),
(12,156,o),
(94,-16,o),
(351,-16,cs),
(535,-16,o),
(710,61,o),
(710,414,cs),
(710,1708,l),
(451,1708,l),
(451,385,ls),
(451,230,o),
(413,187,o),
(351,187,cs),
(277,187,o),
(247,242,o),
(247,418,cs),
(247,619,l),
(40,619,l),
(21,529,o),
(12,434,o)
);
}
);
};
layerId = "043639A7-E62C-4A4F-99F5-E7AE759848D8";
shapes = (
{
closed = 1;
nodes = (
(12,362,cs),
(12,156,o),
(94,-16,o),
(351,-16,cs),
(535,-16,o),
(710,61,o),
(710,414,cs),
(710,1708,l),
(451,1708,l),
(451,385,ls),
(451,230,o),
(413,187,o),
(351,187,cs),
(277,187,o),
(247,242,o),
(247,418,cs),
(247,619,l),
(40,619,l),
(21,529,o),
(12,434,o)
);
}
);
width = 821;
}
);
unicode = 74;
userData = {
KernOnName = J;
com.typemytype.robofont.mark = (
1,
0.6,
0.6,
1
);
};
},
{
color = 10;
glyphname = Jacute;
kernLeft = KO_J;
kernRight = KO_Jacute;
lastChange = "2023-03-03 08:40:48 +0000";
layers = (
{
background = {
anchors = (
{
name = bottom;
pos = (411,0);
},
{
name = top;
pos = (577,2086);
}
);
shapes = (
{
closed = 1;
nodes = (
(12,362,cs),
(12,156,o),
(94,-16,o),
(351,-16,cs),
(535,-16,o),
(710,61,o),
(710,414,cs),
(710,1708,l),
(451,1708,l),
(451,385,ls),
(451,230,o),
(413,187,o),
(351,187,cs),
(277,187,o),
(247,242,o),
(247,418,cs),
(247,619,l),
(40,619,l),
(21,529,o),
(12,434,o)
);
},
{
closed = 1;
nodes = (
(862,2029,l),
(693,2156,l),
(452,1870,l),
(577,1776,l)
);
}
);
};
layerId = "043639A7-E62C-4A4F-99F5-E7AE759848D8";
shapes = (
{
ref = J;
},
{
pos = (452,0);
ref = acutecomb.case;
}
);
width = 821;
}
);
userData = {
com.typemytype.robofont.mark = (
0.6,
0.986,
1,
1
);
};
},
{
color = 10;
glyphname = Jcircumflex;
kernLeft = KO_J;
lastChange = "2023-03-03 08:40:48 +0000";
layers = (
{
background = {
anchors = (
{
name = bottom;
pos = (411,0);
},
{
name = top;
pos = (577,2086);
}
);
shapes = (
{
closed = 1;
nodes = (
(12,362,cs),
(12,156,o),
(94,-16,o),
(351,-16,cs),
(535,-16,o),
(710,61,o),
(710,414,cs),
(710,1708,l),
(451,1708,l),
(451,385,ls),
(451,230,o),
(413,187,o),
(351,187,cs),
(277,187,o),
(247,242,o),
(247,418,cs),
(247,619,l),
(40,619,l),
(21,529,o),
(12,434,o)
);
},
{
closed = 1;
nodes = (
(693,1806,l),
(942,1806,l),
(696,2116,l),
(462,2116,l),
(212,1806,l),
(460,1806,l),
(544,1936,l),
(584,1992,l),
(624,1936,l)
);
}
);
};
layerId = "043639A7-E62C-4A4F-99F5-E7AE759848D8";
shapes = (
{
ref = J;
},
{
pos = (582,0);
ref = circumflexcomb.case;
}
);
width = 821;
}
);
unicode = 308;
userData = {
com.typemytype.robofont.mark = (
0.6,
0.986,
1,
1
);
};
},
{
color = 6;
glyphname = K;
kernLeft = KO_H;
kernRight = KO_K;
lastChange = "2023-03-03 08:40:39 +0000";
layers = (
{
anchors = (
{
name = bottom;
pos = (506,0);
},
{
name = top;
pos = (506,1708);
}
);
background = {
anchors = (
{
name = bottom;
pos = (506,0);
},
{
name = top;
pos = (506,1708);
}
);
shapes = (
{
closed = 1;
nodes = (
(141,0,l),
(400,0,l),
(400,813,l),
(408,813,l),
(722,0,l),
(999,0,l),
(603,980,l),
(601,830,l),
(962,1708,l),
(704,1708,l),
(408,962,l),
(400,962,l),
(400,1708,l),
(141,1708,l)
);
}
);
};
layerId = "043639A7-E62C-4A4F-99F5-E7AE759848D8";
shapes = (
{
closed = 1;
nodes = (
(141,0,l),
(400,0,l),
(400,813,l),
(408,813,l),
(722,0,l),
(999,0,l),
(603,980,l),
(601,830,l),
(962,1708,l),
(704,1708,l),
(408,962,l),
(400,962,l),
(400,1708,l),
(141,1708,l)
);
}
);
width = 1011;
}
);
metricLeft = H;
unicode = 75;
userData = {
com.typemytype.robofont.guides = (
{
angle = 90;
isGlobal = 0;
magnetic = 5;
x = 975;
y = 0;
}
);
com.typemytype.robofont.mark = (
1,
0.6,
0.6,
1
);
};
},
{
color = 10;
glyphname = Kcaron;
kernLeft = KO_H;
kernRight = KO_K;
lastChange = "2023-03-03 08:40:48 +0000";
layers = (
{
background = {
anchors = (
{
name = bottom;
pos = (506,0);
},
{
name = top;
pos = (506,2086);
}
);
shapes = (
{
closed = 1;
nodes = (
(141,0,l),
(400,0,l),
(400,813,l),
(408,813,l),
(722,0,l),
(999,0,l),
(603,980,l),
(601,830,l),
(962,1708,l),
(704,1708,l),
(408,962,l),
(400,962,l),
(400,1708,l),
(141,1708,l)
);
},
{
closed = 1;
nodes = (
(553,1956,l),
(513,1900,l),
(473,1956,l),
(389,2086,l),
(141,2086,l),
(391,1776,l),
(625,1776,l),
(871,2086,l),
(622,2086,l)
);
}
);
};
layerId = "043639A7-E62C-4A4F-99F5-E7AE759848D8";
shapes = (
{
ref = K;
},
{
pos = (511,0);
ref = caroncomb.case;
}
);
width = 1011;
}
);
unicode = 488;
},
{
color = 10;
glyphname = Kcommaaccent;
kernLeft = KO_H;
kernRight = KO_K;
lastChange = "2023-03-03 08:40:48 +0000";
layers = (
{
background = {
anchors = (
{
name = bottom;
pos = (506,-531);
},
{
name = top;
pos = (506,1708);
}
);
shapes = (
{
closed = 1;
nodes = (
(141,0,l),
(400,0,l),
(400,813,l),
(408,813,l),
(722,0,l),
(999,0,l),
(603,980,l),
(601,830,l),
(962,1708,l),
(704,1708,l),
(408,962,l),
(400,962,l),
(400,1708,l),
(141,1708,l)
);
},
{
closed = 1;
nodes = (
(416,-97,l),
(354,-531,l),
(549,-531,l),
(657,-97,l)
);
}
);
};
layerId = "043639A7-E62C-4A4F-99F5-E7AE759848D8";
shapes = (
{
ref = K;
},
{
pos = (521,0);
ref = commaaccentcomb;
}
);
width = 1011;
}
);
unicode = 310;
userData = {
com.typemytype.robofont.mark = (
0.6,
0.986,
1,
1
);
};
},
{
color = 10;
glyphname = Kmacronbelow;
kernLeft = KO_H;
kernRight = KO_K;
lastChange = "2023-03-03 08:40:48 +0000";
layers = (
{
background = {
anchors = (
{
name = bottom;
pos = (506,-319);
},
{
name = top;
pos = (506,1708);
}
);
shapes = (
{
closed = 1;
nodes = (
(141,0,l),
(400,0,l),
(400,813,l),
(408,813,l),
(722,0,l),
(999,0,l),
(603,980,l),
(601,830,l),
(962,1708,l),
(704,1708,l),
(408,962,l),
(400,962,l),
(400,1708,l),
(141,1708,l)
);
},
{
closed = 1;
nodes = (
(194,-349,l),
(817,-349,l),
(817,-156,l),
(194,-156,l)
);
}
);
};
layerId = "043639A7-E62C-4A4F-99F5-E7AE759848D8";
shapes = (
{
ref = K;
},
{
pos = (164,0);
ref = macronbelowcomb;
}
);
width = 1011;
}
);
unicode = 7732;
},
{
color = 6;
glyphname = L;
kernLeft = KO_H;
kernRight = KO_L;
lastChange = "2023-03-03 08:40:39 +0000";
layers = (
{
anchors = (
{
name = bottom;
pos = (433,0);
},
{
name = center;
pos = (273,854);
},
{
name = top;
pos = (271,1708);
},
{
name = topright;
pos = (493,1377);
}
);
background = {
anchors = (
{
name = bottom;
pos = (433,0);
},
{
name = center;
pos = (273,854);
},
{
name = top;
pos = (271,1708);
},
{
name = topright;
pos = (493,1377);
}
);
shapes = (
{
closed = 1;
nodes = (
(141,0,l),
(753,0,l),
(753,204,l),
(400,204,l),
(400,1708,l),
(141,1708,l)
);
}
);
};
layerId = "043639A7-E62C-4A4F-99F5-E7AE759848D8";
shapes = (
{
closed = 1;
nodes = (
(141,0,l),
(753,0,l),
(753,204,l),
(400,204,l),
(400,1708,l),
(141,1708,l)
);
}
);
width = 766;
}
);
metricLeft = H;
unicode = 76;
userData = {
KernOnName = L;
com.typemytype.robofont.mark = (
1,
0.6,
0.6,
1
);
};
},
{
color = 10;
glyphname = Lacute;
kernLeft = KO_H;
kernRight = KO_L;
lastChange = "2023-03-03 08:40:48 +0000";
layers = (
{
background = {
anchors = (
{
name = bottom;
pos = (433,0);
},
{
name = center;
pos = (273,854);
},
{
name = top;
pos = (271,2086);
},
{
name = topright;
pos = (493,1377);
}
);
shapes = (
{
closed = 1;
nodes = (
(141,0,l),
(753,0,l),
(753,204,l),
(400,204,l),
(400,1708,l),
(141,1708,l)
);
},
{
closed = 1;
nodes = (
(556,2029,l),
(387,2156,l),
(146,1870,l),
(271,1776,l)
);
}
);
};
layerId = "043639A7-E62C-4A4F-99F5-E7AE759848D8";
shapes = (
{
ref = L;
},
{
pos = (146,0);
ref = acutecomb.case;
}
);
width = 766;
}
);
unicode = 313;
userData = {
com.typemytype.robofont.mark = (
0.6,
0.986,
1,
1
);
};
},
{
color = 10;
glyphname = Lcaron;
kernLeft = KO_H;
kernRight = KO_Lcaron;
lastChange = "2023-03-03 08:40:48 +0000";
layers = (
{
background = {
anchors = (
{
name = bottom;
pos = (433,0);
},
{
name = center;
pos = (273,854);
},
{
name = top;
pos = (271,1708);
},
{
name = topright;
pos = (493,1377);
}
);
shapes = (
{
closed = 1;
nodes = (
(141,0,l),
(753,0,l),
(753,204,l),
(400,204,l),
(400,1708,l),
(141,1708,l)
);
},
{
closed = 1;
nodes = (
(493,1447,l),
(704,1447,l),
(750,1820,l),
(513,1820,l)
);
}
);
};
layerId = "043639A7-E62C-4A4F-99F5-E7AE759848D8";
shapes = (
{
ref = L;
},
{
pos = (363,0);
ref = caroncomb.alt;
}
);
width = 766;
}
);
unicode = 317;
userData = {
com.typemytype.robofont.mark = (
0.6,
0.986,
1,
1
);
};
},
{
color = 10;
glyphname = Lcircumflexbelow;
kernLeft = KO_H;
kernRight = KO_L;
lastChange = "2023-03-03 08:40:48 +0000";
layers = (
{
background = {
anchors = (
{
name = bottom;
pos = (433,-466);
},
{
name = center;
pos = (273,854);
},
{
name = top;
pos = (271,1708);
},
{
name = topright;
pos = (493,1377);
}
);
shapes = (
{
closed = 1;
nodes = (
(141,0,l),
(753,0,l),
(753,204,l),
(400,204,l),
(400,1708,l),
(141,1708,l)
);
},
{
closed = 1;
nodes = (
(343,-65,l),
(73,-466,l),
(291,-466,l),
(385,-314,l),
(435,-232,l),
(486,-314,l),
(574,-466,l),
(793,-466,l),
(517,-65,l)
);
}
);
};
layerId = "043639A7-E62C-4A4F-99F5-E7AE759848D8";
shapes = (
{
ref = L;
},
{
pos = (-48,0);
ref = circumflexbelowcomb;
}
);
width = 766;
}
);
unicode = 7740;
},
{
color = 10;
glyphname = Lcommaaccent;
kernLeft = KO_H;
kernRight = KO_L;
lastChange = "2023-03-03 08:40:48 +0000";
layers = (
{
background = {
anchors = (
{
name = bottom;
pos = (433,-531);
},
{
name = center;
pos = (273,854);
},
{
name = top;
pos = (271,1708);
},
{
name = topright;
pos = (493,1377);
}
);
shapes = (
{
closed = 1;
nodes = (
(141,0,l),
(753,0,l),
(753,204,l),
(400,204,l),
(400,1708,l),
(141,1708,l)
);
},
{
closed = 1;
nodes = (
(343,-97,l),
(281,-531,l),
(476,-531,l),
(584,-97,l)
);
}
);
};
layerId = "043639A7-E62C-4A4F-99F5-E7AE759848D8";
shapes = (
{
ref = L;
},
{
pos = (448,0);
ref = commaaccentcomb;
}
);
width = 766;
}
);
unicode = 315;
userData = {
com.typemytype.robofont.mark = (
0.6,
0.986,
1,
1
);
};
},
{
color = 3;
glyphname = Ldot;
kernLeft = KO_H;
kernRight = KO_Ldot;
lastChange = "2023-03-03 08:40:48 +0000";
layers = (
{
background = {
anchors = (
{
name = bottom;
pos = (433,0);
},
{
name = center;
pos = (273,854);
},
{
name = top;
pos = (271,1708);
},
{
name = topright;
pos = (493,1377);
}
);
shapes = (
{
closed = 1;
nodes = (
(669,601,cs),
(770,601,o),
(819,685,o),
(819,765,cs),
(819,857,o),
(770,939,o),
(669,939,cs),
(571,939,o),
(526,855,o),
(526,765,cs),
(526,682,o),
(573,601,o)
);
},
{
closed = 1;
nodes = (
(141,0,l),
(753,0,l),
(753,204,l),
(400,204,l),
(400,1708,l),
(141,1708,l)
);
}
);
};
layerId = "043639A7-E62C-4A4F-99F5-E7AE759848D8";
shapes = (
{
closed = 1;
nodes = (
(669,601,cs),
(770,601,o),
(819,685,o),
(819,765,cs),
(819,857,o),
(770,939,o),
(669,939,cs),
(571,939,o),
(526,855,o),
(526,765,cs),
(526,682,o),
(573,601,o)
);
},
{
ref = L;
}
);
width = 784;
}
);
metricLeft = L;
unicode = 319;
userData = {
com.typemytype.robofont.mark = (
0.6,
0.986,
1,
1
);
};
},
{
color = 10;
glyphname = Ldotbelow;
kernLeft = KO_H;
kernRight = KO_L;
lastChange = "2023-03-03 08:40:48 +0000";
layers = (
{
background = {
anchors = (
{
name = bottom;
pos = (433,-425);
},
{
name = center;
pos = (273,854);
},
{
name = top;
pos = (271,1708);
},
{
name = topright;
pos = (493,1377);
}
);
shapes = (
{
closed = 1;
nodes = (
(141,0,l),
(753,0,l),
(753,204,l),
(400,204,l),
(400,1708,l),
(141,1708,l)
);
},
{
closed = 1;
nodes = (
(276,-364,o),
(338,-425,o),
(431,-425,cs),
(530,-425,o),
(589,-361,o),
(589,-257,cs),
(589,-146,o),
(531,-94,o),
(432,-94,cs),
(337,-94,o),
(276,-138,o),
(276,-257,cs)
);
}
);
};
layerId = "043639A7-E62C-4A4F-99F5-E7AE759848D8";
shapes = (
{
ref = L;
},
{
pos = (432,0);
ref = dotbelowcomb;
}
);
width = 766;
}
);
unicode = 7734;
},
{
color = 10;
glyphname = Ldotbelowmacron;
lastChange = "2023-03-03 08:40:48 +0000";
layers = (
{
background = {
anchors = (
{
name = bottom;
pos = (433,-425);
},
{
name = center;
pos = (273,854);
},
{
name = top;
pos = (271,1998);
},
{
name = topright;
pos = (493,1377);
}
);
shapes = (
{
closed = 1;
nodes = (
(141,0,l),
(753,0,l),
(753,204,l),
(400,204,l),
(400,1708,l),
(141,1708,l)
);
},
{
closed = 1;
nodes = (
(276,-364,o),
(338,-425,o),
(431,-425,cs),
(530,-425,o),
(589,-361,o),
(589,-257,cs),
(589,-146,o),
(531,-94,o),
(432,-94,cs),
(337,-94,o),
(276,-138,o),
(276,-257,cs)
);
},
{
closed = 1;
nodes = (
(-41,1835,l),
(582,1835,l),
(582,2028,l),
(-41,2028,l)
);
}
);
};
layerId = "043639A7-E62C-4A4F-99F5-E7AE759848D8";
shapes = (
{
ref = L;
},
{
pos = (432,0);
ref = dotbelowcomb;
},
{
pos = (270,0);
ref = macroncomb.case;
}
);
width = 766;
}
);
unicode = 7736;
},
{
color = 10;
glyphname = Lmacronbelow;
kernRight = KO_L;
lastChange = "2023-03-03 08:40:48 +0000";
layers = (
{
background = {
anchors = (
{
name = bottom;
pos = (433,-319);
},
{
name = center;
pos = (273,854);
},
{
name = top;
pos = (271,1708);
},
{
name = topright;
pos = (493,1377);
}
);
shapes = (
{
closed = 1;
nodes = (
(141,0,l),
(753,0,l),
(753,204,l),
(400,204,l),
(400,1708,l),
(141,1708,l)
);
},
{
closed = 1;
nodes = (
(121,-349,l),
(744,-349,l),
(744,-156,l),
(121,-156,l)
);
}
);
};
layerId = "043639A7-E62C-4A4F-99F5-E7AE759848D8";
shapes = (
{
ref = L;
},
{
pos = (91,0);
ref = macronbelowcomb;
}
);
width = 766;
}
);
unicode = 7738;
},
{
color = 6;
glyphname = Lslash;
kernRight = KO_Lslash;
lastChange = "2023-03-03 08:40:39 +0000";
layers = (
{
background = {
shapes = (
{
closed = 1;
nodes = (
(161,0,l),
(771,0,l),
(771,207,l),
(417,207,l),
(417,970,l),
(744,1223,l),
(614,1391,l),
(417,1231,l),
(417,1725,l),
(161,1725,l),
(161,1015,l),
(-61,837,l),
(57,682,l),
(161,763,l)
);
}
);
};
layerId = "043639A7-E62C-4A4F-99F5-E7AE759848D8";
shapes = (
{
closed = 1;
nodes = (
(161,0,l),
(771,0,l),
(771,207,l),
(417,207,l),
(417,970,l),
(744,1223,l),
(614,1391,l),
(417,1231,l),
(417,1725,l),
(161,1725,l),
(161,1015,l),
(-61,837,l),
(57,682,l),
(161,763,l)
);
}
);
width = 791;
}
);
unicode = 321;
userData = {
com.typemytype.robofont.mark = (
0.6,
0.986,
1,
1
);
};
},
{
color = 6;
glyphname = M;
kernLeft = KO_H;
kernRight = KO_H;
lastChange = "2023-03-03 08:40:39 +0000";
layers = (
{
anchors = (
{
name = bottom;
pos = (706,10);
},
{
name = top;
pos = (706,1708);
}
);
background = {
anchors = (
{
name = bottom;
pos = (706,10);
},
{
name = top;
pos = (706,1708);
}
);
shapes = (
{
closed = 1;
nodes = (
(141,0,l),
(373,0,l),
(373,565,ls),
(373,912,o),
(357,1215,o),
(346,1335,c),
(365,1335,l),
(625,220,l),
(789,220,l),
(1047,1335,l),
(1066,1335,l),
(1055,1215,o),
(1039,912,o),
(1039,565,cs),
(1039,0,l),
(1271,0,l),
(1271,1708,l),
(950,1708,l),
(781,1017,ls),
(745,871,o),
(729,736,o),
(711,620,c),
(703,620,l),
(685,736,o),
(669,871,o),
(633,1017,cs),
(462,1708,l),
(141,1708,l)
);
}
);
};
layerId = "043639A7-E62C-4A4F-99F5-E7AE759848D8";
shapes = (
{
closed = 1;
nodes = (
(141,0,l),
(373,0,l),
(373,565,ls),
(373,912,o),
(357,1215,o),
(346,1335,c),
(365,1335,l),
(625,220,l),
(789,220,l),
(1047,1335,l),
(1066,1335,l),
(1055,1215,o),
(1039,912,o),
(1039,565,cs),
(1039,0,l),
(1271,0,l),
(1271,1708,l),
(950,1708,l),
(781,1017,ls),
(745,871,o),
(729,736,o),
(711,620,c),
(703,620,l),
(685,736,o),
(669,871,o),
(633,1017,cs),
(462,1708,l),
(141,1708,l)
);
}
);
width = 1412;
}
);
metricLeft = H;
metricRight = H;
unicode = 77;
userData = {
com.typemytype.robofont.mark = (
1,
0.6,
0.6,
1
);
};
},
{
color = 10;
glyphname = Macute;
kernLeft = KO_H;
kernRight = KO_H;
lastChange = "2023-03-03 08:40:48 +0000";
layers = (
{
background = {
anchors = (
{
name = bottom;
pos = (706,10);
},
{
name = top;
pos = (706,2086);
}
);
shapes = (
{
closed = 1;
nodes = (
(141,0,l),
(373,0,l),
(373,565,ls),
(373,912,o),
(357,1215,o),
(346,1335,c),
(365,1335,l),
(625,220,l),
(789,220,l),
(1047,1335,l),
(1066,1335,l),
(1055,1215,o),
(1039,912,o),
(1039,565,cs),
(1039,0,l),
(1271,0,l),
(1271,1708,l),
(950,1708,l),
(781,1017,ls),
(745,871,o),
(729,736,o),
(711,620,c),
(703,620,l),
(685,736,o),
(669,871,o),
(633,1017,cs),
(462,1708,l),
(141,1708,l)
);
},
{
closed = 1;
nodes = (
(991,2029,l),
(822,2156,l),
(581,1870,l),
(706,1776,l)
);
}
);
};
layerId = "043639A7-E62C-4A4F-99F5-E7AE759848D8";
shapes = (
{
ref = M;
},
{
pos = (581,0);
ref = acutecomb.case;
}
);
width = 1412;
}
);
unicode = 7742;
},
{
color = 10;
glyphname = Mdotaccent;
kernLeft = KO_H;
kernRight = KO_H;
lastChange = "2023-03-03 08:40:48 +0000";
layers = (
{
background = {
anchors = (
{
name = bottom;
pos = (706,10);
},
{
name = top;
pos = (706,2101);
}
);
shapes = (
{
closed = 1;
nodes = (
(141,0,l),
(373,0,l),
(373,565,ls),
(373,912,o),
(357,1215,o),
(346,1335,c),
(365,1335,l),
(625,220,l),
(789,220,l),
(1047,1335,l),
(1066,1335,l),
(1055,1215,o),
(1039,912,o),
(1039,565,cs),
(1039,0,l),
(1271,0,l),
(1271,1708,l),
(950,1708,l),
(781,1017,ls),
(745,871,o),
(729,736,o),
(711,620,c),
(703,620,l),
(685,736,o),
(669,871,o),
(633,1017,cs),
(462,1708,l),
(141,1708,l)
);
},
{
closed = 1;
nodes = (
(704,1790,cs),
(803,1790,o),
(862,1854,o),
(862,1958,cs),
(862,2069,o),
(804,2121,o),
(705,2121,cs),
(610,2121,o),
(549,2077,o),
(549,1958,cs),
(549,1851,o),
(611,1790,o)
);
}
);
};
layerId = "043639A7-E62C-4A4F-99F5-E7AE759848D8";
shapes = (
{
ref = M;
},
{
pos = (704,0);
ref = dotaccentcomb.case;
}
);
width = 1412;
}
);
unicode = 7744;
},
{
color = 10;
glyphname = Mdotbelow;
kernLeft = KO_H;
kernRight = KO_H;
lastChange = "2023-03-03 08:40:48 +0000";
layers = (
{
background = {
anchors = (
{
name = bottom;
pos = (706,-415);
},
{
name = top;
pos = (706,1708);
}
);
shapes = (
{
closed = 1;
nodes = (
(141,0,l),
(373,0,l),
(373,565,ls),
(373,912,o),
(357,1215,o),
(346,1335,c),
(365,1335,l),
(625,220,l),
(789,220,l),
(1047,1335,l),
(1066,1335,l),
(1055,1215,o),
(1039,912,o),
(1039,565,cs),
(1039,0,l),
(1271,0,l),
(1271,1708,l),
(950,1708,l),
(781,1017,ls),
(745,871,o),
(729,736,o),
(711,620,c),
(703,620,l),
(685,736,o),
(669,871,o),
(633,1017,cs),
(462,1708,l),
(141,1708,l)
);
},
{
closed = 1;
nodes = (
(549,-354,o),
(611,-415,o),
(704,-415,cs),
(803,-415,o),
(862,-351,o),
(862,-247,cs),
(862,-136,o),
(804,-84,o),
(705,-84,cs),
(610,-84,o),
(549,-128,o),
(549,-247,cs)
);
}
);
};
layerId = "043639A7-E62C-4A4F-99F5-E7AE759848D8";
shapes = (
{
ref = M;
},
{
pos = (705,10);
ref = dotbelowcomb;
}
);
width = 1412;
}
);
unicode = 7746;
},
{
color = 6;
glyphname = N;
kernLeft = KO_H;
kernRight = KO_H;
lastChange = "2023-03-03 08:40:39 +0000";
layers = (
{
anchors = (
{
name = bottom;
pos = (557,0);
},
{
name = top;
pos = (557,1708);
}
);
background = {
anchors = (
{
name = bottom;
pos = (557,0);
},
{
name = top;
pos = (557,1708);
}
);
shapes = (
{
closed = 1;
nodes = (
(141,0,l),
(369,0,l),
(369,502,ls),
(369,848,o),
(351,972,o),
(342,1093,c),
(350,1093,l),
(765,0,l),
(972,0,l),
(972,1708,l),
(742,1708,l),
(742,1085,ls),
(742,820,o),
(760,691,o),
(769,585,c),
(763,585,l),
(346,1708,l),
(141,1708,l)
);
}
);
};
layerId = "043639A7-E62C-4A4F-99F5-E7AE759848D8";
shapes = (
{
closed = 1;
nodes = (
(141,0,l),
(369,0,l),
(369,502,ls),
(369,848,o),
(351,972,o),
(342,1093,c),
(350,1093,l),
(765,0,l),
(972,0,l),
(972,1708,l),
(742,1708,l),
(742,1085,ls),
(742,820,o),
(760,691,o),
(769,585,c),
(763,585,l),
(346,1708,l),
(141,1708,l)
);
}
);
width = 1113;
}
);
metricLeft = H;
metricRight = H;
unicode = 78;
userData = {
KernOnName = N;
com.typemytype.robofont.mark = (
1,
0.6,
0.6,
1
);
};
},
{
color = 10;
glyphname = Nacute;
kernLeft = KO_H;
kernRight = KO_H;
lastChange = "2023-03-03 08:40:48 +0000";
layers = (
{
background = {
anchors = (
{
name = bottom;
pos = (557,0);
},
{
name = top;
pos = (557,2086);
}
);
shapes = (
{
closed = 1;
nodes = (
(141,0,l),
(369,0,l),
(369,502,ls),
(369,848,o),
(351,972,o),
(342,1093,c),
(350,1093,l),
(765,0,l),
(972,0,l),
(972,1708,l),
(742,1708,l),
(742,1085,ls),
(742,820,o),
(760,691,o),
(769,585,c),
(763,585,l),
(346,1708,l),
(141,1708,l)
);
},
{
closed = 1;
nodes = (
(842,2029,l),
(673,2156,l),
(432,1870,l),
(557,1776,l)
);
}
);
};
layerId = "043639A7-E62C-4A4F-99F5-E7AE759848D8";
shapes = (
{
ref = N;
},
{
pos = (432,0);
ref = acutecomb.case;
}
);
width = 1113;
}
);
unicode = 323;
userData = {
com.typemytype.robofont.mark = (
0.6,
0.986,
1,
1
);
};
},
{
color = 10;
glyphname = Ncaron;
kernLeft = KO_H;
kernRight = KO_H;
lastChange = "2023-03-03 08:40:48 +0000";
layers = (
{
background = {
anchors = (
{
name = bottom;
pos = (557,0);
},
{
name = top;
pos = (557,2086);
}
);
shapes = (
{
closed = 1;
nodes = (
(141,0,l),
(369,0,l),
(369,502,ls),
(369,848,o),
(351,972,o),
(342,1093,c),
(350,1093,l),
(765,0,l),
(972,0,l),
(972,1708,l),
(742,1708,l),
(742,1085,ls),
(742,820,o),
(760,691,o),
(769,585,c),
(763,585,l),
(346,1708,l),
(141,1708,l)
);
},
{
closed = 1;
nodes = (
(604,1956,l),
(564,1900,l),
(524,1956,l),
(440,2086,l),
(192,2086,l),
(442,1776,l),
(676,1776,l),
(922,2086,l),
(673,2086,l)
);
}
);
};
layerId = "043639A7-E62C-4A4F-99F5-E7AE759848D8";
shapes = (
{
ref = N;
},
{
pos = (562,0);
ref = caroncomb.case;
}
);
width = 1113;
}
);
unicode = 327;
userData = {
com.typemytype.robofont.mark = (
0.6,
0.986,
1,
1
);
};
},
{
color = 10;
glyphname = Ncircumflexbelow;
kernLeft = KO_H;
kernRight = KO_H;
lastChange = "2023-03-03 08:40:48 +0000";
layers = (
{
background = {
anchors = (
{
name = bottom;
pos = (557,-466);
},
{
name = top;
pos = (557,1708);
}
);
shapes = (
{
closed = 1;
nodes = (
(141,0,l),
(369,0,l),
(369,502,ls),
(369,848,o),
(351,972,o),
(342,1093,c),
(350,1093,l),
(765,0,l),
(972,0,l),
(972,1708,l),
(742,1708,l),
(742,1085,ls),
(742,820,o),
(760,691,o),
(769,585,c),
(763,585,l),
(346,1708,l),
(141,1708,l)
);
},
{
closed = 1;
nodes = (
(467,-65,l),
(197,-466,l),
(415,-466,l),
(509,-314,l),
(559,-232,l),
(610,-314,l),
(698,-466,l),
(917,-466,l),
(641,-65,l)
);
}
);
};
layerId = "043639A7-E62C-4A4F-99F5-E7AE759848D8";
shapes = (
{
ref = N;
},
{
pos = (76,0);
ref = circumflexbelowcomb;
}
);
width = 1113;
}
);
unicode = 7754;
},
{
color = 10;
glyphname = Ncommaaccent;
kernLeft = KO_H;
kernRight = KO_H;
lastChange = "2023-03-03 08:40:48 +0000";
layers = (
{
background = {
anchors = (
{
name = bottom;
pos = (557,-531);
},
{
name = top;
pos = (557,1708);
}
);
shapes = (
{
closed = 1;
nodes = (
(141,0,l),
(369,0,l),
(369,502,ls),
(369,848,o),
(351,972,o),
(342,1093,c),
(350,1093,l),
(765,0,l),
(972,0,l),
(972,1708,l),
(742,1708,l),
(742,1085,ls),
(742,820,o),
(760,691,o),
(769,585,c),
(763,585,l),
(346,1708,l),
(141,1708,l)
);
},
{
closed = 1;
nodes = (
(467,-97,l),
(405,-531,l),
(600,-531,l),
(708,-97,l)
);
}
);
};
layerId = "043639A7-E62C-4A4F-99F5-E7AE759848D8";
shapes = (
{
ref = N;
},
{
pos = (572,0);
ref = commaaccentcomb;
}
);
width = 1113;
}
);
unicode = 325;
userData = {
com.typemytype.robofont.mark = (
0.6,
0.986,
1,
1
);
};
},
{
color = 10;
glyphname = Ndotaccent;
kernLeft = KO_H;
kernRight = KO_H;
lastChange = "2023-03-03 08:40:48 +0000";
layers = (
{
background = {
anchors = (
{
name = bottom;
pos = (557,0);
},
{
name = top;
pos = (557,2101);
}
);
shapes = (
{
closed = 1;
nodes = (
(141,0,l),
(369,0,l),
(369,502,ls),
(369,848,o),
(351,972,o),
(342,1093,c),
(350,1093,l),
(765,0,l),
(972,0,l),
(972,1708,l),
(742,1708,l),
(742,1085,ls),
(742,820,o),
(760,691,o),
(769,585,c),
(763,585,l),
(346,1708,l),
(141,1708,l)
);
},
{
closed = 1;
nodes = (
(555,1790,cs),
(654,1790,o),
(713,1854,o),
(713,1958,cs),
(713,2069,o),
(655,2121,o),
(556,2121,cs),
(461,2121,o),
(400,2077,o),
(400,1958,cs),
(400,1851,o),
(462,1790,o)
);
}
);
};
layerId = "043639A7-E62C-4A4F-99F5-E7AE759848D8";
shapes = (
{
ref = N;
},
{
pos = (555,0);
ref = dotaccentcomb.case;
}
);
width = 1113;
}
);
unicode = 7748;
},
{
color = 10;
glyphname = Ndotbelow;
kernLeft = KO_H;
kernRight = KO_H;
lastChange = "2023-03-03 08:40:48 +0000";
layers = (
{
background = {
anchors = (
{
name = bottom;
pos = (557,-425);
},
{
name = top;
pos = (557,1708);
}
);
shapes = (
{
closed = 1;
nodes = (
(141,0,l),
(369,0,l),
(369,502,ls),
(369,848,o),
(351,972,o),
(342,1093,c),
(350,1093,l),
(765,0,l),
(972,0,l),
(972,1708,l),
(742,1708,l),
(742,1085,ls),
(742,820,o),
(760,691,o),
(769,585,c),
(763,585,l),
(346,1708,l),
(141,1708,l)
);
},
{
closed = 1;
nodes = (
(400,-364,o),
(462,-425,o),
(555,-425,cs),
(654,-425,o),
(713,-361,o),
(713,-257,cs),
(713,-146,o),
(655,-94,o),
(556,-94,cs),
(461,-94,o),
(400,-138,o),
(400,-257,cs)
);
}
);
};
layerId = "043639A7-E62C-4A4F-99F5-E7AE759848D8";
shapes = (
{
ref = N;
},
{
pos = (556,0);
ref = dotbelowcomb;
}
);
width = 1113;
}
);
unicode = 7750;
},
{
color = 6;
glyphname = Nhookleft;
kernRight = KO_H;
lastChange = "2023-03-03 08:40:39 +0000";
layers = (
{
anchors = (
{
name = bottom;
pos = (557,0);
},
{
name = top;
pos = (557,1708);
}
);
background = {
anchors = (
{
name = bottom;
pos = (557,0);
},
{
name = top;
pos = (557,1708);
}
);
shapes = (
{
closed = 1;
nodes = (
(262,-444,o),
(369,-384,o),
(369,-84,cs),
(369,502,ls),
(369,848,o),
(351,972,o),
(342,1093,c),
(350,1093,l),
(765,0,l),
(972,0,l),
(972,1708,l),
(742,1708,l),
(742,1085,ls),
(742,820,o),
(760,691,o),
(769,585,c),
(763,585,l),
(346,1708,l),
(141,1708,l),
(140,-116,ls),
(140,-236,o),
(90,-275,o),
(31,-275,cs),
(20,-275,o),
(9,-274,o),
(-1,-273,c),
(-1,-420,l),
(39,-438,o),
(81,-444,o),
(121,-444,cs)
);
}
);
};
layerId = "043639A7-E62C-4A4F-99F5-E7AE759848D8";
shapes = (
{
closed = 1;
nodes = (
(262,-444,o),
(369,-384,o),
(369,-84,cs),
(369,502,ls),
(369,848,o),
(351,972,o),
(342,1093,c),
(350,1093,l),
(765,0,l),
(972,0,l),
(972,1708,l),
(742,1708,l),
(742,1085,ls),
(742,820,o),
(760,691,o),
(769,585,c),
(763,585,l),
(346,1708,l),
(141,1708,l),
(140,-116,ls),
(140,-236,o),
(90,-275,o),
(31,-275,cs),
(20,-275,o),
(9,-274,o),
(-1,-273,c),
(-1,-420,l),
(39,-438,o),
(81,-444,o),
(121,-444,cs)
);
}
);
width = 1113;
}
);
metricRight = H;
metricWidth = N;
unicode = 413;
},
{
color = 10;
glyphname = Nmacronbelow;
kernLeft = KO_H;
kernRight = KO_H;
lastChange = "2023-03-03 08:40:48 +0000";
layers = (
{
background = {
anchors = (
{
name = bottom;
pos = (557,-319);
},
{
name = top;
pos = (557,1708);
}
);
shapes = (
{
closed = 1;
nodes = (
(141,0,l),
(369,0,l),
(369,502,ls),
(369,848,o),
(351,972,o),
(342,1093,c),
(350,1093,l),
(765,0,l),
(972,0,l),
(972,1708,l),
(742,1708,l),
(742,1085,ls),
(742,820,o),
(760,691,o),
(769,585,c),
(763,585,l),
(346,1708,l),
(141,1708,l)
);
},
{
closed = 1;
nodes = (
(245,-349,l),
(868,-349,l),
(868,-156,l),
(245,-156,l)
);
}
);
};
layerId = "043639A7-E62C-4A4F-99F5-E7AE759848D8";
shapes = (
{
ref = N;
},
{
pos = (215,0);
ref = macronbelowcomb;
}
);
width = 1113;
}
);
unicode = 7752;
},
{
color = 10;
glyphname = Ntilde;
kernLeft = KO_H;
kernRight = KO_H;
lastChange = "2023-03-03 08:40:48 +0000";
layers = (
{
background = {
anchors = (
{
name = bottom;
pos = (557,0);
},
{
name = top;
pos = (557,2056);
}
);
shapes = (
{
closed = 1;
nodes = (
(141,0,l),
(369,0,l),
(369,502,ls),
(369,848,o),
(351,972,o),
(342,1093,c),
(350,1093,l),
(765,0,l),
(972,0,l),
(972,1708,l),
(742,1708,l),
(742,1085,ls),
(742,820,o),
(760,691,o),
(769,585,c),
(763,585,l),
(346,1708,l),
(141,1708,l)
);
},
{
closed = 1;
nodes = (
(694,1788,cs),
(784,1788,o),
(867,1854,o),
(867,1981,cs),
(867,2004,o),
(864,2034,o),
(858,2077,c),
(726,2077,l),
(726,2006,ls),
(726,1970,o),
(708,1954,o),
(684,1954,cs),
(649,1954,o),
(608,2004,o),
(579,2034,c),
(535,2074,o),
(495,2095,o),
(430,2095,cs),
(332,2095,o),
(246,2043,o),
(246,1879,cs),
(246,1867,o),
(249,1819,o),
(249,1805,c),
(397,1805,l),
(397,1871,ls),
(397,1907,o),
(410,1929,o),
(433,1929,cs),
(467,1929,o),
(481,1902,o),
(534,1851,c),
(581,1810,o),
(626,1788,o)
);
}
);
};
layerId = "043639A7-E62C-4A4F-99F5-E7AE759848D8";
shapes = (
{
ref = N;
},
{
pos = (125,0);
ref = tildecomb.case;
}
);
width = 1113;
}
);
unicode = 209;
userData = {
com.typemytype.robofont.mark = (
0.6,
0.986,
1,
1
);
};
},
{
color = 6;
glyphname = Eng;
kernLeft = KO_H;
kernRight = KO_I;
lastChange = "2023-03-03 08:40:39 +0000";
layers = (
{
anchors = (
{
name = bottom;
pos = (538,0);
},
{
name = top;
pos = (538,1377);
}
);
background = {
anchors = (
{
name = bottom;
pos = (538,0);
},
{
name = top;
pos = (538,1377);
}
);
shapes = (
{
closed = 1;
nodes = (
(819,-444,o),
(952,-384,o),
(952,-84,cs),
(952,1386,ls),
(952,1610,o),
(860,1724,o),
(664,1724,cs),
(543,1724,o),
(438,1686,o),
(359,1560,c),
(359,1561,l),
(334,1708,l),
(141,1708,l),
(141,0,l),
(394,0,l),
(394,1424,l),
(432,1482,o),
(482,1518,o),
(553,1518,cs),
(661,1518,o),
(699,1477,o),
(699,1356,cs),
(699,-116,ls),
(697,-236,o),
(647,-275,o),
(588,-275,cs),
(577,-275,o),
(566,-274,o),
(556,-273,c),
(556,-420,l),
(596,-438,o),
(638,-444,o),
(678,-444,cs)
);
}
);
};
layerId = "043639A7-E62C-4A4F-99F5-E7AE759848D8";
shapes = (
{
closed = 1;
nodes = (
(819,-444,o),
(952,-384,o),
(952,-84,cs),
(952,1386,ls),
(952,1610,o),
(860,1724,o),
(664,1724,cs),
(543,1724,o),
(438,1686,o),
(359,1560,c),
(359,1561,l),
(334,1708,l),
(141,1708,l),
(141,0,l),
(394,0,l),
(394,1424,l),
(432,1482,o),
(482,1518,o),
(553,1518,cs),
(661,1518,o),
(699,1477,o),
(699,1356,cs),
(699,-116,ls),
(697,-236,o),
(647,-275,o),
(588,-275,cs),
(577,-275,o),
(566,-274,o),
(556,-273,c),
(556,-420,l),
(596,-438,o),
(638,-444,o),
(678,-444,cs)
);
}
);
width = 1094;
}
);
metricLeft = H;
metricRight = U;
unicode = 330;
},
{
color = 6;
glyphname = O;
kernLeft = KO_O;
kernRight = KO_O;
lastChange = "2023-03-03 08:40:39 +0000";
layers = (
{
anchors = (
{
name = bottom;
pos = (537,0);
},
{
name = center;
pos = (537,854);
},
{
name = ogonek;
pos = (961,10);
},
{
name = top;
pos = (537,1708);
},
{
name = topleft;
pos = (27,1708);
},
{
name = topright;
pos = (666,1708);
}
);
background = {
anchors = (
{
name = bottom;
pos = (537,0);
},
{
name = center;
pos = (537,854);
},
{
name = ogonek;
pos = (961,10);
},
{
name = top;
pos = (537,1708);
},
{
name = topleft;
pos = (27,1708);
},
{
name = topright;
pos = (666,1708);
}
);
shapes = (
{
closed = 1;
nodes = (
(539,-15,cs),
(688,-15,o),
(960,49,o),
(960,556,cs),
(960,1161,ls),
(960,1684,o),
(693,1723,o),
(539,1723,cs),
(379,1723,o),
(114,1676,o),
(114,1161,cs),
(114,556,ls),
(114,43,o),
(373,-15,o)
);
},
{
closed = 1;
nodes = (
(539,188,cs),
(434,188,o),
(385,251,o),
(385,463,cs),
(385,1233,ls),
(385,1452,o),
(434,1520,o),
(539,1520,cs),
(641,1520,o),
(690,1452,o),
(690,1233,cs),
(690,463,ls),
(690,251,o),
(641,188,o)
);
}
);
};
layerId = "043639A7-E62C-4A4F-99F5-E7AE759848D8";
shapes = (
{
closed = 1;
nodes = (
(539,-15,cs),
(688,-15,o),
(960,49,o),
(960,556,cs),
(960,1161,ls),
(960,1684,o),
(693,1723,o),
(539,1723,cs),
(379,1723,o),
(114,1676,o),
(114,1161,cs),
(114,556,ls),
(114,43,o),
(373,-15,o)
);
},
{
closed = 1;
nodes = (
(539,188,cs),
(434,188,o),
(385,251,o),
(385,463,cs),
(385,1233,ls),
(385,1452,o),
(434,1520,o),
(539,1520,cs),
(641,1520,o),
(690,1452,o),
(690,1233,cs),
(690,463,ls),
(690,251,o),
(641,188,o)
);
}
);
width = 1074;
}
);
unicode = 79;
userData = {
KernOnName = O;
com.typemytype.robofont.mark = (
1,
0.6,
0.6,
1
);
};
},
{
color = 10;
glyphname = Oacute;
kernLeft = KO_O;
kernRight = KO_Odieresis;
lastChange = "2023-03-03 08:40:48 +0000";
layers = (
{
background = {
anchors = (
{
name = bottom;
pos = (537,0);
},
{
name = center;
pos = (537,854);
},
{
name = ogonek;
pos = (961,10);
},
{
name = top;
pos = (537,2086);
},
{
name = topleft;
pos = (27,1708);
},
{
name = topright;
pos = (666,1708);
}
);
shapes = (
{
closed = 1;
nodes = (
(539,-15,cs),
(688,-15,o),
(960,49,o),
(960,556,cs),
(960,1161,ls),
(960,1684,o),
(693,1723,o),
(539,1723,cs),
(379,1723,o),
(114,1676,o),
(114,1161,cs),
(114,556,ls),
(114,43,o),
(373,-15,o)
);
},
{
closed = 1;
nodes = (
(539,188,cs),
(434,188,o),
(385,251,o),
(385,463,cs),
(385,1233,ls),
(385,1452,o),
(434,1520,o),
(539,1520,cs),
(641,1520,o),
(690,1452,o),
(690,1233,cs),
(690,463,ls),
(690,251,o),
(641,188,o)
);
},
{
closed = 1;
nodes = (
(822,2029,l),
(653,2156,l),
(412,1870,l),
(537,1776,l)
);
}
);
};
layerId = "043639A7-E62C-4A4F-99F5-E7AE759848D8";
shapes = (
{
ref = O;
},
{
pos = (412,0);
ref = acutecomb.case;
}
);
width = 1074;
}
);
unicode = 211;
userData = {
com.typemytype.robofont.mark = (
0.6,
0.986,
1,
1
);
};
},
{
color = 10;
glyphname = Obreve;
kernLeft = KO_O;
kernRight = KO_Odieresis;
lastChange = "2023-03-03 08:40:48 +0000";
layers = (
{
background = {
anchors = (
{
name = bottom;
pos = (537,0);
},
{
name = center;
pos = (537,854);
},
{
name = ogonek;
pos = (961,10);
},
{
name = top;
pos = (537,2089);
},
{
name = topleft;
pos = (27,1708);
},
{
name = topright;
pos = (666,1708);
}
);
shapes = (
{
closed = 1;
nodes = (
(539,-15,cs),
(688,-15,o),
(960,49,o),
(960,556,cs),
(960,1161,ls),
(960,1684,o),
(693,1723,o),
(539,1723,cs),
(379,1723,o),
(114,1676,o),
(114,1161,cs),
(114,556,ls),
(114,43,o),
(373,-15,o)
);
},
{
closed = 1;
nodes = (
(539,188,cs),
(434,188,o),
(385,251,o),
(385,463,cs),
(385,1233,ls),
(385,1452,o),
(434,1520,o),
(539,1520,cs),
(641,1520,o),
(690,1452,o),
(690,1233,cs),
(690,463,ls),
(690,251,o),
(641,188,o)
);
},
{
closed = 1;
nodes = (
(532,1786,cs),
(319,1786,o),
(218,1896,o),
(218,2052,cs),
(218,2075,o),
(220,2097,o),
(224,2119,c),
(402,2119,l),
(393,2097,o),
(392,2073,o),
(392,2048,cs),
(392,1978,o),
(437,1949,o),
(531,1949,cs),
(637,1949,o),
(689,1981,o),
(689,2048,cs),
(689,2073,o),
(692,2098,o),
(681,2119,c),
(850,2119,l),
(854,2097,o),
(856,2075,o),
(856,2052,cs),
(856,1904,o),
(750,1786,o)
);
}
);
};
layerId = "043639A7-E62C-4A4F-99F5-E7AE759848D8";
shapes = (
{
ref = O;
},
{
pos = (532,0);
ref = brevecomb.case;
}
);
width = 1074;
}
);
unicode = 334;
userData = {
com.typemytype.robofont.mark = (
0.6,
0.986,
1,
1
);
};
},
{
color = 10;
glyphname = Ocaron;
kernLeft = KO_O;
kernRight = KO_Odieresis;
lastChange = "2023-03-03 08:40:48 +0000";
layers = (
{
background = {
anchors = (
{
name = bottom;
pos = (537,0);
},
{
name = center;
pos = (537,854);
},
{
name = ogonek;
pos = (961,10);
},
{
name = top;
pos = (537,2086);
},
{
name = topleft;
pos = (27,1708);
},
{
name = topright;
pos = (666,1708);
}
);
shapes = (
{
closed = 1;
nodes = (
(539,-15,cs),
(688,-15,o),
(960,49,o),
(960,556,cs),
(960,1161,ls),
(960,1684,o),
(693,1723,o),
(539,1723,cs),
(379,1723,o),
(114,1676,o),
(114,1161,cs),
(114,556,ls),
(114,43,o),
(373,-15,o)
);
},
{
closed = 1;
nodes = (
(539,188,cs),
(434,188,o),
(385,251,o),
(385,463,cs),
(385,1233,ls),
(385,1452,o),
(434,1520,o),
(539,1520,cs),
(641,1520,o),
(690,1452,o),
(690,1233,cs),
(690,463,ls),
(690,251,o),
(641,188,o)
);
},
{
closed = 1;
nodes = (
(584,1956,l),
(544,1900,l),
(504,1956,l),
(420,2086,l),
(172,2086,l),
(422,1776,l),
(656,1776,l),
(902,2086,l),
(653,2086,l)
);
}
);
};
layerId = "043639A7-E62C-4A4F-99F5-E7AE759848D8";
shapes = (
{
ref = O;
},
{
pos = (542,0);
ref = caroncomb.case;
}
);
width = 1074;
}
);
unicode = 465;
},
{
color = 10;
glyphname = Ocircumflex;
kernLeft = KO_Otilde;
kernRight = KO_Odieresis;
lastChange = "2023-03-03 08:40:48 +0000";
layers = (
{
background = {
anchors = (
{
name = bottom;
pos = (537,0);
},
{
name = center;
pos = (537,854);
},
{
name = ogonek;
pos = (961,10);
},
{
name = top;
pos = (537,2086);
},
{
name = topleft;
pos = (27,1708);
},
{
name = topright;
pos = (666,1708);
}
);
shapes = (
{
closed = 1;
nodes = (
(539,-15,cs),
(688,-15,o),
(960,49,o),
(960,556,cs),
(960,1161,ls),
(960,1684,o),
(693,1723,o),
(539,1723,cs),
(379,1723,o),
(114,1676,o),
(114,1161,cs),
(114,556,ls),
(114,43,o),
(373,-15,o)
);
},
{
closed = 1;
nodes = (
(539,188,cs),
(434,188,o),
(385,251,o),
(385,463,cs),
(385,1233,ls),
(385,1452,o),
(434,1520,o),
(539,1520,cs),
(641,1520,o),
(690,1452,o),
(690,1233,cs),
(690,463,ls),
(690,251,o),
(641,188,o)
);
},
{
closed = 1;
nodes = (
(653,1806,l),
(902,1806,l),
(656,2116,l),
(422,2116,l),
(172,1806,l),
(420,1806,l),
(504,1936,l),
(544,1992,l),
(584,1936,l)
);
}
);
};
layerId = "043639A7-E62C-4A4F-99F5-E7AE759848D8";
shapes = (
{
ref = O;
},
{
pos = (542,0);
ref = circumflexcomb.case;
}
);
width = 1074;
}
);
unicode = 212;
userData = {
com.typemytype.robofont.mark = (
0.6,
0.986,
1,
1
);
};
},
{
color = 10;
glyphname = Ocircumflexacute;
kernLeft = KO_Otilde;
kernRight = KO_Odieresis;
lastChange = "2023-03-03 08:40:48 +0000";
layers = (
{
background = {
anchors = (
{
name = bottom;
pos = (537,0);
},
{
name = center;
pos = (537,854);
},
{
name = ogonek;
pos = (961,10);
},
{
name = top;
pos = (537,2464);
},
{
name = topleft;
pos = (27,1708);
},
{
name = topright;
pos = (666,1708);
}
);
shapes = (
{
closed = 1;
nodes = (
(539,-15,cs),
(688,-15,o),
(960,49,o),
(960,556,cs),
(960,1161,ls),
(960,1684,o),
(693,1723,o),
(539,1723,cs),
(379,1723,o),
(114,1676,o),
(114,1161,cs),
(114,556,ls),
(114,43,o),
(373,-15,o)
);
},
{
closed = 1;
nodes = (
(539,188,cs),
(434,188,o),
(385,251,o),
(385,463,cs),
(385,1233,ls),
(385,1452,o),
(434,1520,o),
(539,1520,cs),
(641,1520,o),
(690,1452,o),
(690,1233,cs),
(690,463,ls),
(690,251,o),
(641,188,o)
);
},
{
closed = 1;
nodes = (
(653,1806,l),
(902,1806,l),
(656,2116,l),
(422,2116,l),
(172,1806,l),
(420,1806,l),
(504,1936,l),
(544,1992,l),
(584,1936,l)
);
},
{
closed = 1;
nodes = (
(822,2407,l),
(653,2534,l),
(412,2248,l),
(537,2154,l)
);
}
);
};
layerId = "043639A7-E62C-4A4F-99F5-E7AE759848D8";
shapes = (
{
ref = O;
},
{
pos = (542,0);
ref = circumflexcomb.case;
},
{
pos = (412,378);
ref = acutecomb.case;
}
);
width = 1074;
}
);
unicode = 7888;
},
{
color = 10;
glyphname = Ocircumflexdotbelow;
kernLeft = KO_Otilde;
kernRight = KO_Odieresis;
lastChange = "2023-03-03 08:40:48 +0000";
layers = (
{
background = {
anchors = (
{
name = bottom;
pos = (537,-425);
},
{
name = center;
pos = (537,854);
},
{
name = ogonek;
pos = (961,10);
},
{
name = top;
pos = (537,2086);
},
{
name = topleft;
pos = (27,1708);
},
{
name = topright;
pos = (666,1708);
}
);
shapes = (
{
closed = 1;
nodes = (
(539,-15,cs),
(688,-15,o),
(960,49,o),
(960,556,cs),
(960,1161,ls),
(960,1684,o),
(693,1723,o),
(539,1723,cs),
(379,1723,o),
(114,1676,o),
(114,1161,cs),
(114,556,ls),
(114,43,o),
(373,-15,o)
);
},
{
closed = 1;
nodes = (
(539,188,cs),
(434,188,o),
(385,251,o),
(385,463,cs),
(385,1233,ls),
(385,1452,o),
(434,1520,o),
(539,1520,cs),
(641,1520,o),
(690,1452,o),
(690,1233,cs),
(690,463,ls),
(690,251,o),
(641,188,o)
);
},
{
closed = 1;
nodes = (
(380,-364,o),
(442,-425,o),
(535,-425,cs),
(634,-425,o),
(693,-361,o),
(693,-257,cs),
(693,-146,o),
(635,-94,o),
(536,-94,cs),
(441,-94,o),
(380,-138,o),
(380,-257,cs)
);
},
{
closed = 1;
nodes = (
(653,1806,l),
(902,1806,l),
(656,2116,l),
(422,2116,l),
(172,1806,l),
(420,1806,l),
(504,1936,l),
(544,1992,l),
(584,1936,l)
);
}
);
};
layerId = "043639A7-E62C-4A4F-99F5-E7AE759848D8";
shapes = (
{
ref = O;
},
{
pos = (536,0);
ref = dotbelowcomb;
},
{
pos = (542,0);
ref = circumflexcomb.case;
}
);
width = 1074;
}
);
unicode = 7896;
userData = {
com.typemytype.robofont.mark = (
0.6,
0.986,
1,
1
);
};
},
{
color = 10;
glyphname = Ocircumflexgrave;
kernLeft = KO_Otilde;
kernRight = KO_Odieresis;
lastChange = "2023-03-03 08:40:48 +0000";
layers = (
{
background = {
anchors = (
{
name = bottom;
pos = (537,0);
},
{
name = center;
pos = (537,854);
},
{
name = ogonek;
pos = (961,10);
},
{
name = top;
pos = (537,2474);
},
{
name = topleft;
pos = (27,1708);
},
{
name = topright;
pos = (666,1708);
}
);
shapes = (
{
closed = 1;
nodes = (
(539,-15,cs),
(688,-15,o),
(960,49,o),
(960,556,cs),
(960,1161,ls),
(960,1684,o),
(693,1723,o),
(539,1723,cs),
(379,1723,o),
(114,1676,o),
(114,1161,cs),
(114,556,ls),
(114,43,o),
(373,-15,o)
);
},
{
closed = 1;
nodes = (
(539,188,cs),
(434,188,o),
(385,251,o),
(385,463,cs),
(385,1233,ls),
(385,1452,o),
(434,1520,o),
(539,1520,cs),
(641,1520,o),
(690,1452,o),
(690,1233,cs),
(690,463,ls),
(690,251,o),
(641,188,o)
);
},
{
closed = 1;
nodes = (
(653,1806,l),
(902,1806,l),
(656,2116,l),
(422,2116,l),
(172,1806,l),
(420,1806,l),
(504,1936,l),
(544,1992,l),
(584,1936,l)
);
},
{
closed = 1;
nodes = (
(665,2228,l),
(424,2514,l),
(255,2387,l),
(540,2134,l)
);
}
);
};
layerId = "043639A7-E62C-4A4F-99F5-E7AE759848D8";
shapes = (
{
ref = O;
},
{
pos = (542,0);
ref = circumflexcomb.case;
},
{
pos = (663,378);
ref = gravecomb.case;
}
);
width = 1074;
}
);
unicode = 7890;
},
{
color = 10;
glyphname = Ocircumflexhookabove;
kernLeft = KO_Otilde;
kernRight = KO_Odieresis;
lastChange = "2023-03-03 08:40:48 +0000";
layers = (
{
background = {
anchors = (
{
name = bottom;
pos = (537,0);
},
{
name = center;
pos = (537,854);
},
{
name = ogonek;
pos = (961,10);
},
{
name = top;
pos = (537,2667);
},
{
name = topleft;
pos = (27,1708);
},
{
name = topright;
pos = (666,1708);
}
);
shapes = (
{
closed = 1;
nodes = (
(539,-15,cs),
(688,-15,o),
(960,49,o),
(960,556,cs),
(960,1161,ls),
(960,1684,o),
(693,1723,o),
(539,1723,cs),
(379,1723,o),
(114,1676,o),
(114,1161,cs),
(114,556,ls),
(114,43,o),
(373,-15,o)
);
},
{
closed = 1;
nodes = (
(539,188,cs),
(434,188,o),
(385,251,o),
(385,463,cs),
(385,1233,ls),
(385,1452,o),
(434,1520,o),
(539,1520,cs),
(641,1520,o),
(690,1452,o),
(690,1233,cs),
(690,463,ls),
(690,251,o),
(641,188,o)
);
},
{
closed = 1;
nodes = (
(653,1806,l),
(902,1806,l),
(656,2116,l),
(422,2116,l),
(172,1806,l),
(420,1806,l),
(504,1936,l),
(544,1992,l),
(584,1936,l)
);
},
{
closed = 1;
nodes = (
(634,2214,o),
(721,2275,o),
(721,2383,cs),
(721,2513,o),
(594,2624,o),
(389,2645,c),
(353,2509,l),
(476,2498,o),
(553,2451,o),
(553,2388,cs),
(553,2345,o),
(515,2313,o),
(445,2313,c),
(445,2197,l)
);
}
);
};
layerId = "043639A7-E62C-4A4F-99F5-E7AE759848D8";
shapes = (
{
ref = O;
},
{
pos = (542,0);
ref = circumflexcomb.case;
},
{
pos = (203,709);
ref = hookabovecomb;
}
);
width = 1074;
}
);
unicode = 7892;
},
{
color = 10;
glyphname = Ocircumflextilde;
kernLeft = KO_Otilde;
kernRight = KO_Odieresis;
lastChange = "2023-03-03 08:40:48 +0000";
layers = (
{
background = {
anchors = (
{
name = bottom;
pos = (537,0);
},
{
name = center;
pos = (537,854);
},
{
name = ogonek;
pos = (961,10);
},
{
name = top;
pos = (537,2434);
},
{
name = topleft;
pos = (27,1708);
},
{
name = topright;
pos = (666,1708);
}
);
shapes = (
{
closed = 1;
nodes = (
(539,-15,cs),
(688,-15,o),
(960,49,o),
(960,556,cs),
(960,1161,ls),
(960,1684,o),
(693,1723,o),
(539,1723,cs),
(379,1723,o),
(114,1676,o),
(114,1161,cs),
(114,556,ls),
(114,43,o),
(373,-15,o)
);
},
{
closed = 1;
nodes = (
(539,188,cs),
(434,188,o),
(385,251,o),
(385,463,cs),
(385,1233,ls),
(385,1452,o),
(434,1520,o),
(539,1520,cs),
(641,1520,o),
(690,1452,o),
(690,1233,cs),
(690,463,ls),
(690,251,o),
(641,188,o)
);
},
{
closed = 1;
nodes = (
(653,1806,l),
(902,1806,l),
(656,2116,l),
(422,2116,l),
(172,1806,l),
(420,1806,l),
(504,1936,l),
(544,1992,l),
(584,1936,l)
);
},
{
closed = 1;
nodes = (
(674,2166,cs),
(764,2166,o),
(847,2232,o),
(847,2359,cs),
(847,2382,o),
(844,2412,o),
(838,2455,c),
(706,2455,l),
(706,2384,ls),
(706,2348,o),
(688,2332,o),
(664,2332,cs),
(629,2332,o),
(588,2382,o),
(559,2412,c),
(515,2452,o),
(475,2473,o),
(410,2473,cs),
(312,2473,o),
(226,2421,o),
(226,2257,cs),
(226,2245,o),
(229,2197,o),
(229,2183,c),
(377,2183,l),
(377,2249,ls),
(377,2285,o),
(390,2307,o),
(413,2307,cs),
(447,2307,o),
(461,2280,o),
(514,2229,c),
(561,2188,o),
(606,2166,o)
);
}
);
};
layerId = "043639A7-E62C-4A4F-99F5-E7AE759848D8";
shapes = (
{
ref = O;
},
{
pos = (542,0);
ref = circumflexcomb.case;
},
{
pos = (105,378);
ref = tildecomb.case;
}
);
width = 1074;
}
);
unicode = 7894;
},
{
color = 10;
glyphname = Odieresis;
kernLeft = KO_O;
kernRight = KO_Odieresis;
lastChange = "2023-03-03 08:40:48 +0000";
layers = (
{
background = {
anchors = (
{
name = bottom;
pos = (537,0);
},
{
name = center;
pos = (537,854);
},
{
name = ogonek;
pos = (961,10);
},
{
name = top;
pos = (537,2079);
},
{
name = topleft;
pos = (27,1708);
},
{
name = topright;
pos = (666,1708);
}
);
shapes = (
{
closed = 1;
nodes = (
(539,-15,cs),
(688,-15,o),
(960,49,o),
(960,556,cs),
(960,1161,ls),
(960,1684,o),
(693,1723,o),
(539,1723,cs),
(379,1723,o),
(114,1676,o),
(114,1161,cs),
(114,556,ls),
(114,43,o),
(373,-15,o)
);
},
{
closed = 1;
nodes = (
(539,188,cs),
(434,188,o),
(385,251,o),
(385,463,cs),
(385,1233,ls),
(385,1452,o),
(434,1520,o),
(539,1520,cs),
(641,1520,o),
(690,1452,o),
(690,1233,cs),
(690,463,ls),
(690,251,o),
(641,188,o)
);
},
{
closed = 1;
nodes = (
(314,1784,cs),
(423,1784,o),
(459,1841,o),
(459,1937,cs),
(459,2047,o),
(423,2099,o),
(314,2099,cs),
(208,2099,o),
(177,2044,o),
(177,1937,cs),
(177,1837,o),
(210,1784,o)
);
},
{
closed = 1;
nodes = (
(751,1784,cs),
(860,1784,o),
(897,1841,o),
(897,1937,cs),
(897,2047,o),
(860,2099,o),
(751,2099,cs),
(645,2099,o),
(615,2044,o),
(615,1937,cs),
(615,1837,o),
(647,1784,o)
);
}
);
};
layerId = "043639A7-E62C-4A4F-99F5-E7AE759848D8";
shapes = (
{
ref = O;
},
{
pos = (536,0);
ref = dieresiscomb.case;
}
);
width = 1074;
}
);
unicode = 214;
userData = {
com.typemytype.robofont.mark = (
0.6,
0.986,
1,
1
);
};
},
{
color = 10;
glyphname = Odieresismacron;
lastChange = "2023-03-03 08:40:48 +0000";
layers = (
{
background = {
anchors = (
{
name = bottom;
pos = (537,0);
},
{
name = center;
pos = (537,854);
},
{
name = ogonek;
pos = (961,10);
},
{
name = top;
pos = (537,2369);
},
{
name = topleft;
pos = (27,1708);
},
{
name = topright;
pos = (666,1708);
}
);
shapes = (
{
closed = 1;
nodes = (
(539,-15,cs),
(688,-15,o),
(960,49,o),
(960,556,cs),
(960,1161,ls),
(960,1684,o),
(693,1723,o),
(539,1723,cs),
(379,1723,o),
(114,1676,o),
(114,1161,cs),
(114,556,ls),
(114,43,o),
(373,-15,o)
);
},
{
closed = 1;
nodes = (
(539,188,cs),
(434,188,o),
(385,251,o),
(385,463,cs),
(385,1233,ls),
(385,1452,o),
(434,1520,o),
(539,1520,cs),
(641,1520,o),
(690,1452,o),
(690,1233,cs),
(690,463,ls),
(690,251,o),
(641,188,o)
);
},
{
closed = 1;
nodes = (
(314,1784,cs),
(423,1784,o),
(459,1841,o),
(459,1937,cs),
(459,2047,o),
(423,2099,o),
(314,2099,cs),
(208,2099,o),
(177,2044,o),
(177,1937,cs),
(177,1837,o),
(210,1784,o)
);
},
{
closed = 1;
nodes = (
(751,1784,cs),
(860,1784,o),
(897,1841,o),
(897,1937,cs),
(897,2047,o),
(860,2099,o),
(751,2099,cs),
(645,2099,o),
(615,2044,o),
(615,1937,cs),
(615,1837,o),
(647,1784,o)
);
},
{
closed = 1;
nodes = (
(225,2206,l),
(848,2206,l),
(848,2399,l),
(225,2399,l)
);
}
);
};
layerId = "043639A7-E62C-4A4F-99F5-E7AE759848D8";
shapes = (
{
ref = O;
},
{
pos = (536,0);
ref = dieresiscomb.case;
},
{
pos = (536,371);
ref = macroncomb.case;
}
);
width = 1074;
}
);
unicode = 554;
},
{
color = 10;
glyphname = Odotbelow;
kernLeft = KO_O;
kernRight = KO_Odieresis;
lastChange = "2023-03-03 08:40:48 +0000";
layers = (
{
background = {
anchors = (
{
name = bottom;
pos = (537,-425);
},
{
name = center;
pos = (537,854);
},
{
name = ogonek;
pos = (961,10);
},
{
name = top;
pos = (537,1708);
},
{
name = topleft;
pos = (27,1708);
},
{
name = topright;
pos = (666,1708);
}
);
shapes = (
{
closed = 1;
nodes = (
(539,-15,cs),
(688,-15,o),
(960,49,o),
(960,556,cs),
(960,1161,ls),
(960,1684,o),
(693,1723,o),
(539,1723,cs),
(379,1723,o),
(114,1676,o),
(114,1161,cs),
(114,556,ls),
(114,43,o),
(373,-15,o)
);
},
{
closed = 1;
nodes = (
(539,188,cs),
(434,188,o),
(385,251,o),
(385,463,cs),
(385,1233,ls),
(385,1452,o),
(434,1520,o),
(539,1520,cs),
(641,1520,o),
(690,1452,o),
(690,1233,cs),
(690,463,ls),
(690,251,o),
(641,188,o)
);
},
{
closed = 1;
nodes = (
(380,-364,o),
(442,-425,o),
(535,-425,cs),
(634,-425,o),
(693,-361,o),
(693,-257,cs),
(693,-146,o),
(635,-94,o),
(536,-94,cs),
(441,-94,o),
(380,-138,o),
(380,-257,cs)
);
}
);
};
layerId = "043639A7-E62C-4A4F-99F5-E7AE759848D8";
shapes = (
{
ref = O;
},
{
pos = (536,0);
ref = dotbelowcomb;
}
);
width = 1074;
}
);
unicode = 7884;
userData = {
com.typemytype.robofont.mark = (
0.6,
0.986,
1,
1
);
};
},
{
color = 10;
glyphname = Ograve;
kernLeft = KO_O;
kernRight = KO_Odieresis;
lastChange = "2023-03-03 08:40:48 +0000";
layers = (
{
background = {
anchors = (
{
name = bottom;
pos = (537,0);
},
{
name = center;
pos = (537,854);
},
{
name = ogonek;
pos = (961,10);
},
{
name = top;
pos = (537,2096);
},
{
name = topleft;
pos = (27,1708);
},
{
name = topright;
pos = (666,1708);
}
);
shapes = (
{
closed = 1;
nodes = (
(539,-15,cs),
(688,-15,o),
(960,49,o),
(960,556,cs),
(960,1161,ls),
(960,1684,o),
(693,1723,o),
(539,1723,cs),
(379,1723,o),
(114,1676,o),
(114,1161,cs),
(114,556,ls),
(114,43,o),
(373,-15,o)
);
},
{
closed = 1;
nodes = (
(539,188,cs),
(434,188,o),
(385,251,o),
(385,463,cs),
(385,1233,ls),
(385,1452,o),
(434,1520,o),
(539,1520,cs),
(641,1520,o),
(690,1452,o),
(690,1233,cs),
(690,463,ls),
(690,251,o),
(641,188,o)
);
},
{
closed = 1;
nodes = (
(665,1850,l),
(424,2136,l),
(255,2009,l),
(540,1756,l)
);
}
);
};
layerId = "043639A7-E62C-4A4F-99F5-E7AE759848D8";
shapes = (
{
ref = O;
},
{
pos = (663,0);
ref = gravecomb.case;
}
);
width = 1074;
}
);
unicode = 210;
userData = {
com.typemytype.robofont.mark = (
0.6,
0.986,
1,
1
);
};
},
{
color = 10;
glyphname = Ohookabove;
kernLeft = KO_O;
kernRight = KO_Odieresis;
lastChange = "2023-03-03 08:40:48 +0000";
layers = (
{
background = {
anchors = (
{
name = bottom;
pos = (537,0);
},
{
name = center;
pos = (537,854);
},
{
name = ogonek;
pos = (961,10);
},
{
name = top;
pos = (537,2289);
},
{
name = topleft;
pos = (27,1708);
},
{
name = topright;
pos = (666,1708);
}
);
shapes = (
{
closed = 1;
nodes = (
(539,-15,cs),
(688,-15,o),
(960,49,o),
(960,556,cs),
(960,1161,ls),
(960,1684,o),
(693,1723,o),
(539,1723,cs),
(379,1723,o),
(114,1676,o),
(114,1161,cs),
(114,556,ls),
(114,43,o),
(373,-15,o)
);
},
{
closed = 1;
nodes = (
(539,188,cs),
(434,188,o),
(385,251,o),
(385,463,cs),
(385,1233,ls),
(385,1452,o),
(434,1520,o),
(539,1520,cs),
(641,1520,o),
(690,1452,o),
(690,1233,cs),
(690,463,ls),
(690,251,o),
(641,188,o)
);
},
{
closed = 1;
nodes = (
(634,1836,o),
(721,1897,o),
(721,2005,cs),
(721,2135,o),
(594,2246,o),
(389,2267,c),
(353,2131,l),
(476,2120,o),
(553,2073,o),
(553,2010,cs),
(553,1967,o),
(515,1935,o),
(445,1935,c),
(445,1819,l)
);
}
);
};
layerId = "043639A7-E62C-4A4F-99F5-E7AE759848D8";
shapes = (
{
ref = O;
},
{
pos = (203,331);
ref = hookabovecomb;
}
);
width = 1074;
}
);
unicode = 7886;
},
{
color = 10;
glyphname = Ohorn;
kernLeft = KO_O;
lastChange = "2023-03-03 08:40:48 +0000";
layers = (
{
background = {
anchors = (
{
name = bottom;
pos = (537,0);
},
{
name = center;
pos = (537,854);
},
{
name = ogonek;
pos = (961,10);
},
{
name = top;
pos = (537,1708);
},
{
name = topleft;
pos = (27,1708);
},
{
name = topright;
pos = (525,331);
}
);
shapes = (
{
closed = 1;
nodes = (
(539,-15,cs),
(688,-15,o),
(960,49,o),
(960,556,cs),
(960,1161,ls),
(960,1684,o),
(693,1723,o),
(539,1723,cs),
(379,1723,o),
(114,1676,o),
(114,1161,cs),
(114,556,ls),
(114,43,o),
(373,-15,o)
);
},
{
closed = 1;
nodes = (
(539,188,cs),
(434,188,o),
(385,251,o),
(385,463,cs),
(385,1233,ls),
(385,1452,o),
(434,1520,o),
(539,1520,cs),
(641,1520,o),
(690,1452,o),
(690,1233,cs),
(690,463,ls),
(690,251,o),
(641,188,o)
);
},
{
closed = 1;
nodes = (
(919,1589,o),
(1101,1646,o),
(1101,1872,cs),
(1101,1896,o),
(1102,1955,o),
(1082,2014,c),
(890,2014,l),
(912,1969,o),
(924,1919,o),
(924,1893,cs),
(924,1779,o),
(878,1708,o),
(749,1708,c),
(666,1708,l),
(750,1589,l)
);
}
);
};
layerId = "043639A7-E62C-4A4F-99F5-E7AE759848D8";
shapes = (
{
ref = O;
},
{
pos = (545,331);
ref = horncomb;
}
);
width = 1074;
}
);
unicode = 416;
},
{
color = 10;
glyphname = Ohornacute;
kernRight = KO_Ohornacute;
lastChange = "2023-03-03 08:40:48 +0000";
layers = (
{
background = {
anchors = (
{
name = bottom;
pos = (537,0);
},
{
name = center;
pos = (537,854);
},
{
name = ogonek;
pos = (961,10);
},
{
name = top;
pos = (537,2086);
},
{
name = topleft;
pos = (27,1708);
},
{
name = topright;
pos = (525,331);
}
);
shapes = (
{
closed = 1;
nodes = (
(539,-15,cs),
(688,-15,o),
(960,49,o),
(960,556,cs),
(960,1161,ls),
(960,1684,o),
(693,1723,o),
(539,1723,cs),
(379,1723,o),
(114,1676,o),
(114,1161,cs),
(114,556,ls),
(114,43,o),
(373,-15,o)
);
},
{
closed = 1;
nodes = (
(539,188,cs),
(434,188,o),
(385,251,o),
(385,463,cs),
(385,1233,ls),
(385,1452,o),
(434,1520,o),
(539,1520,cs),
(641,1520,o),
(690,1452,o),
(690,1233,cs),
(690,463,ls),
(690,251,o),
(641,188,o)
);
},
{
closed = 1;
nodes = (
(919,1589,o),
(1101,1646,o),
(1101,1872,cs),
(1101,1896,o),
(1102,1955,o),
(1082,2014,c),
(890,2014,l),
(912,1969,o),
(924,1919,o),
(924,1893,cs),
(924,1779,o),
(878,1708,o),
(749,1708,c),
(666,1708,l),
(750,1589,l)
);
},
{
closed = 1;
nodes = (
(822,2029,l),
(653,2156,l),
(412,1870,l),
(537,1776,l)
);
}
);
};
layerId = "043639A7-E62C-4A4F-99F5-E7AE759848D8";
shapes = (
{
ref = Ohorn;
},
{
pos = (412,0);
ref = acutecomb.case;
}
);
width = 1074;
}
);
unicode = 7898;
},
{
color = 10;
glyphname = Ohorndotbelow;
kernRight = KO_Ohornacute;
lastChange = "2023-03-03 08:40:48 +0000";
layers = (
{
background = {
anchors = (
{
name = bottom;
pos = (537,-425);
},
{
name = center;
pos = (537,854);
},
{
name = ogonek;
pos = (961,10);
},
{
name = top;
pos = (537,1708);
},
{
name = topleft;
pos = (27,1708);
},
{
name = topright;
pos = (525,331);
}
);
shapes = (
{
closed = 1;
nodes = (
(539,-15,cs),
(688,-15,o),
(960,49,o),
(960,556,cs),
(960,1161,ls),
(960,1684,o),
(693,1723,o),
(539,1723,cs),
(379,1723,o),
(114,1676,o),
(114,1161,cs),
(114,556,ls),
(114,43,o),
(373,-15,o)
);
},
{
closed = 1;
nodes = (
(539,188,cs),
(434,188,o),
(385,251,o),
(385,463,cs),
(385,1233,ls),
(385,1452,o),
(434,1520,o),
(539,1520,cs),
(641,1520,o),
(690,1452,o),
(690,1233,cs),
(690,463,ls),
(690,251,o),
(641,188,o)
);
},
{
closed = 1;
nodes = (
(919,1589,o),
(1101,1646,o),
(1101,1872,cs),
(1101,1896,o),
(1102,1955,o),
(1082,2014,c),
(890,2014,l),
(912,1969,o),
(924,1919,o),
(924,1893,cs),
(924,1779,o),
(878,1708,o),
(749,1708,c),
(666,1708,l),
(750,1589,l)
);
},
{
closed = 1;
nodes = (
(380,-364,o),
(442,-425,o),
(535,-425,cs),
(634,-425,o),
(693,-361,o),
(693,-257,cs),
(693,-146,o),
(635,-94,o),
(536,-94,cs),
(441,-94,o),
(380,-138,o),
(380,-257,cs)
);
}
);
};
layerId = "043639A7-E62C-4A4F-99F5-E7AE759848D8";
shapes = (
{
ref = Ohorn;
},
{
pos = (536,0);
ref = dotbelowcomb;
}
);
width = 1074;
}
);
unicode = 7906;
},
{
color = 10;
glyphname = Ohorngrave;
kernRight = KO_Ohornacute;
lastChange = "2023-03-03 08:40:48 +0000";
layers = (
{
background = {
anchors = (
{
name = bottom;
pos = (537,0);
},
{
name = center;
pos = (537,854);
},
{
name = ogonek;
pos = (961,10);
},
{
name = top;
pos = (537,2096);
},
{
name = topleft;
pos = (27,1708);
},
{
name = topright;
pos = (525,331);
}
);
shapes = (
{
closed = 1;
nodes = (
(539,-15,cs),
(688,-15,o),
(960,49,o),
(960,556,cs),
(960,1161,ls),
(960,1684,o),
(693,1723,o),
(539,1723,cs),
(379,1723,o),
(114,1676,o),
(114,1161,cs),
(114,556,ls),
(114,43,o),
(373,-15,o)
);
},
{
closed = 1;
nodes = (
(539,188,cs),
(434,188,o),
(385,251,o),
(385,463,cs),
(385,1233,ls),
(385,1452,o),
(434,1520,o),
(539,1520,cs),
(641,1520,o),
(690,1452,o),
(690,1233,cs),
(690,463,ls),
(690,251,o),
(641,188,o)
);
},
{
closed = 1;
nodes = (
(919,1589,o),
(1101,1646,o),
(1101,1872,cs),
(1101,1896,o),
(1102,1955,o),
(1082,2014,c),
(890,2014,l),
(912,1969,o),
(924,1919,o),
(924,1893,cs),
(924,1779,o),
(878,1708,o),
(749,1708,c),
(666,1708,l),
(750,1589,l)
);
},
{
closed = 1;
nodes = (
(665,1850,l),
(424,2136,l),
(255,2009,l),
(540,1756,l)
);
}
);
};
layerId = "043639A7-E62C-4A4F-99F5-E7AE759848D8";
shapes = (
{
ref = Ohorn;
},
{
pos = (663,0);
ref = gravecomb.case;
}
);
width = 1074;
}
);
unicode = 7900;
},
{
color = 10;
glyphname = Ohornhookabove;
kernRight = KO_Ohornacute;
lastChange = "2023-03-03 08:40:48 +0000";
layers = (
{
background = {
anchors = (
{
name = bottom;
pos = (537,0);
},
{
name = center;
pos = (537,854);
},
{
name = ogonek;
pos = (961,10);
},
{
name = top;
pos = (537,2289);
},
{
name = topleft;
pos = (27,1708);
},
{
name = topright;
pos = (525,331);
}
);
shapes = (
{
closed = 1;
nodes = (
(539,-15,cs),
(688,-15,o),
(960,49,o),
(960,556,cs),
(960,1161,ls),
(960,1684,o),
(693,1723,o),
(539,1723,cs),
(379,1723,o),
(114,1676,o),
(114,1161,cs),
(114,556,ls),
(114,43,o),
(373,-15,o)
);
},
{
closed = 1;
nodes = (
(539,188,cs),
(434,188,o),
(385,251,o),
(385,463,cs),
(385,1233,ls),
(385,1452,o),
(434,1520,o),
(539,1520,cs),
(641,1520,o),
(690,1452,o),
(690,1233,cs),
(690,463,ls),
(690,251,o),
(641,188,o)
);
},
{
closed = 1;
nodes = (
(919,1589,o),
(1101,1646,o),
(1101,1872,cs),
(1101,1896,o),
(1102,1955,o),
(1082,2014,c),
(890,2014,l),
(912,1969,o),
(924,1919,o),
(924,1893,cs),
(924,1779,o),
(878,1708,o),
(749,1708,c),
(666,1708,l),
(750,1589,l)
);
},
{
closed = 1;
nodes = (
(634,1836,o),
(721,1897,o),
(721,2005,cs),
(721,2135,o),
(594,2246,o),
(389,2267,c),
(353,2131,l),
(476,2120,o),
(553,2073,o),
(553,2010,cs),
(553,1967,o),
(515,1935,o),
(445,1935,c),
(445,1819,l)
);
}
);
};
layerId = "043639A7-E62C-4A4F-99F5-E7AE759848D8";
shapes = (
{
ref = Ohorn;
},
{
pos = (203,331);
ref = hookabovecomb;
}
);
width = 1074;
}
);
unicode = 7902;
},
{
color = 10;
glyphname = Ohorntilde;
kernRight = KO_Ohornacute;
lastChange = "2023-03-03 08:40:48 +0000";
layers = (
{
background = {
anchors = (
{
name = bottom;
pos = (537,0);
},
{
name = center;
pos = (537,854);
},
{
name = ogonek;
pos = (961,10);
},
{
name = top;
pos = (537,2056);
},
{
name = topleft;
pos = (27,1708);
},
{
name = topright;
pos = (525,331);
}
);
shapes = (
{
closed = 1;
nodes = (
(539,-15,cs),
(688,-15,o),
(960,49,o),
(960,556,cs),
(960,1161,ls),
(960,1684,o),
(693,1723,o),
(539,1723,cs),
(379,1723,o),
(114,1676,o),
(114,1161,cs),
(114,556,ls),
(114,43,o),
(373,-15,o)
);
},
{
closed = 1;
nodes = (
(539,188,cs),
(434,188,o),
(385,251,o),
(385,463,cs),
(385,1233,ls),
(385,1452,o),
(434,1520,o),
(539,1520,cs),
(641,1520,o),
(690,1452,o),
(690,1233,cs),
(690,463,ls),
(690,251,o),
(641,188,o)
);
},
{
closed = 1;
nodes = (
(919,1589,o),
(1101,1646,o),
(1101,1872,cs),
(1101,1896,o),
(1102,1955,o),
(1082,2014,c),
(890,2014,l),
(912,1969,o),
(924,1919,o),
(924,1893,cs),
(924,1779,o),
(878,1708,o),
(749,1708,c),
(666,1708,l),
(750,1589,l)
);
},
{
closed = 1;
nodes = (
(674,1788,cs),
(764,1788,o),
(847,1854,o),
(847,1981,cs),
(847,2004,o),
(844,2034,o),
(838,2077,c),
(706,2077,l),
(706,2006,ls),
(706,1970,o),
(688,1954,o),
(664,1954,cs),
(629,1954,o),
(588,2004,o),
(559,2034,c),
(515,2074,o),
(475,2095,o),
(410,2095,cs),
(312,2095,o),
(226,2043,o),
(226,1879,cs),
(226,1867,o),
(229,1819,o),
(229,1805,c),
(377,1805,l),
(377,1871,ls),
(377,1907,o),
(390,1929,o),
(413,1929,cs),
(447,1929,o),
(461,1902,o),
(514,1851,c),
(561,1810,o),
(606,1788,o)
);
}
);
};
layerId = "043639A7-E62C-4A4F-99F5-E7AE759848D8";
shapes = (
{
ref = Ohorn;
},
{
pos = (105,0);
ref = tildecomb.case;
}
);
width = 1074;
}
);
unicode = 7904;
},
{
color = 10;
glyphname = Ohungarumlaut;
kernRight = KO_Odieresis;
lastChange = "2023-03-03 08:40:48 +0000";
layers = (
{
background = {
anchors = (
{
name = bottom;
pos = (537,0);
},
{
name = center;
pos = (537,854);
},
{
name = ogonek;
pos = (961,10);
},
{
name = top;
pos = (537,2086);
},
{
name = topleft;
pos = (27,1708);
},
{
name = topright;
pos = (666,1708);
}
);
shapes = (
{
closed = 1;
nodes = (
(539,-15,cs),
(688,-15,o),
(960,49,o),
(960,556,cs),
(960,1161,ls),
(960,1684,o),
(693,1723,o),
(539,1723,cs),
(379,1723,o),
(114,1676,o),
(114,1161,cs),
(114,556,ls),
(114,43,o),
(373,-15,o)
);
},
{
closed = 1;
nodes = (
(539,188,cs),
(434,188,o),
(385,251,o),
(385,463,cs),
(385,1233,ls),
(385,1452,o),
(434,1520,o),
(539,1520,cs),
(641,1520,o),
(690,1452,o),
(690,1233,cs),
(690,463,ls),
(690,251,o),
(641,188,o)
);
},
{
closed = 1;
nodes = (
(217,1733,l),
(512,1919,l),
(383,2086,l),
(112,1850,l)
);
},
{
closed = 1;
nodes = (
(667,1733,l),
(962,1919,l),
(833,2086,l),
(562,1850,l)
);
}
);
};
layerId = "043639A7-E62C-4A4F-99F5-E7AE759848D8";
shapes = (
{
ref = O;
},
{
pos = (457,0);
ref = hungarumlautcomb.case;
}
);
width = 1074;
}
);
unicode = 336;
userData = {
com.typemytype.robofont.mark = (
0.6,
0.986,
1,
1
);
};
},
{
color = 10;
glyphname = Omacron;
kernLeft = KO_Otilde;
kernRight = KO_Odieresis;
lastChange = "2023-03-03 08:40:48 +0000";
layers = (
{
background = {
anchors = (
{
name = bottom;
pos = (537,0);
},
{
name = center;
pos = (537,854);
},
{
name = ogonek;
pos = (961,10);
},
{
name = top;
pos = (537,1998);
},
{
name = topleft;
pos = (27,1708);
},
{
name = topright;
pos = (666,1708);
}
);
shapes = (
{
closed = 1;
nodes = (
(539,-15,cs),
(688,-15,o),
(960,49,o),
(960,556,cs),
(960,1161,ls),
(960,1684,o),
(693,1723,o),
(539,1723,cs),
(379,1723,o),
(114,1676,o),
(114,1161,cs),
(114,556,ls),
(114,43,o),
(373,-15,o)
);
},
{
closed = 1;
nodes = (
(539,188,cs),
(434,188,o),
(385,251,o),
(385,463,cs),
(385,1233,ls),
(385,1452,o),
(434,1520,o),
(539,1520,cs),
(641,1520,o),
(690,1452,o),
(690,1233,cs),
(690,463,ls),
(690,251,o),
(641,188,o)
);
},
{
closed = 1;
nodes = (
(225,1835,l),
(848,1835,l),
(848,2028,l),
(225,2028,l)
);
}
);
};
layerId = "043639A7-E62C-4A4F-99F5-E7AE759848D8";
shapes = (
{
ref = O;
},
{
pos = (536,0);
ref = macroncomb.case;
}
);
width = 1074;
}
);
unicode = 332;
userData = {
com.typemytype.robofont.mark = (
0.6,
0.986,
1,
1
);
};
},
{
color = 10;
glyphname = Omacronacute;
kernLeft = KO_Otilde;
kernRight = KO_Odieresis;
lastChange = "2023-03-03 08:40:48 +0000";
layers = (
{
background = {
anchors = (
{
name = bottom;
pos = (537,0);
},
{
name = center;
pos = (537,854);
},
{
name = ogonek;
pos = (961,10);
},
{
name = top;
pos = (537,2376);
},
{
name = topleft;
pos = (27,1708);
},
{
name = topright;
pos = (666,1708);
}
);
shapes = (
{
closed = 1;
nodes = (
(539,-15,cs),
(688,-15,o),
(960,49,o),
(960,556,cs),
(960,1161,ls),
(960,1684,o),
(693,1723,o),
(539,1723,cs),
(379,1723,o),
(114,1676,o),
(114,1161,cs),
(114,556,ls),
(114,43,o),
(373,-15,o)
);
},
{
closed = 1;
nodes = (
(539,188,cs),
(434,188,o),
(385,251,o),
(385,463,cs),
(385,1233,ls),
(385,1452,o),
(434,1520,o),
(539,1520,cs),
(641,1520,o),
(690,1452,o),
(690,1233,cs),
(690,463,ls),
(690,251,o),
(641,188,o)
);
},
{
closed = 1;
nodes = (
(225,1835,l),
(848,1835,l),
(848,2028,l),
(225,2028,l)
);
},
{
closed = 1;
nodes = (
(822,2319,l),
(653,2446,l),
(412,2160,l),
(537,2066,l)
);
}
);
};
layerId = "043639A7-E62C-4A4F-99F5-E7AE759848D8";
shapes = (
{
ref = O;
},
{
pos = (536,0);
ref = macroncomb.case;
},
{
pos = (412,290);
ref = acutecomb.case;
}
);
width = 1074;
}
);
unicode = 7762;
},
{
color = 10;
glyphname = Omacrongrave;
lastChange = "2023-03-03 08:40:48 +0000";
layers = (
{
background = {
anchors = (
{
name = bottom;
pos = (537,0);
},
{
name = center;
pos = (537,854);
},
{
name = ogonek;
pos = (961,10);
},
{
name = top;
pos = (537,2386);
},
{
name = topleft;
pos = (27,1708);
},
{
name = topright;
pos = (666,1708);
}
);
shapes = (
{
closed = 1;
nodes = (
(539,-15,cs),
(688,-15,o),
(960,49,o),
(960,556,cs),
(960,1161,ls),
(960,1684,o),
(693,1723,o),
(539,1723,cs),
(379,1723,o),
(114,1676,o),
(114,1161,cs),
(114,556,ls),
(114,43,o),
(373,-15,o)
);
},
{
closed = 1;
nodes = (
(539,188,cs),
(434,188,o),
(385,251,o),
(385,463,cs),
(385,1233,ls),
(385,1452,o),
(434,1520,o),
(539,1520,cs),
(641,1520,o),
(690,1452,o),
(690,1233,cs),
(690,463,ls),
(690,251,o),
(641,188,o)
);
},
{
closed = 1;
nodes = (
(225,1835,l),
(848,1835,l),
(848,2028,l),
(225,2028,l)
);
},
{
closed = 1;
nodes = (
(665,2140,l),
(424,2426,l),
(255,2299,l),
(540,2046,l)
);
}
);
};
layerId = "043639A7-E62C-4A4F-99F5-E7AE759848D8";
shapes = (
{
ref = O;
},
{
pos = (536,0);
ref = macroncomb.case;
},
{
pos = (663,290);
ref = gravecomb.case;
}
);
width = 1074;
}
);
unicode = 7760;
},
{
color = 6;
glyphname = Oopen;
kernRight = KO_Q;
lastChange = "2023-03-03 08:40:39 +0000";
layers = (
{
anchors = (
{
name = bottom;
pos = (464,0);
},
{
name = top;
pos = (464,1708);
}
);
background = {
anchors = (
{
name = bottom;
pos = (464,0);
},
{
name = top;
pos = (464,1708);
}
);
shapes = (
{
closed = 1;
nodes = (
(821,43,o),
(821,556,cs),
(821,1161,ls),
(821,1676,o),
(556,1723,o),
(397,1723,cs),
(134,1723,o),
(44,1559,o),
(44,1361,cs),
(44,1288,o),
(57,1231,o),
(72,1157,c),
(272,1157,l),
(272,1239,ls),
(272,1426,o),
(318,1520,o),
(404,1520,cs),
(499,1520,o),
(550,1452,o),
(550,1233,cs),
(550,463,ls),
(550,251,o),
(501,188,o),
(396,188,cs),
(323,188,o),
(269,247,o),
(269,384,cs),
(269,546,l),
(42,546,l),
(42,388,ls),
(42,114,o),
(167,-14,o),
(396,-15,cs),
(562,-15,o)
);
}
);
};
layerId = "043639A7-E62C-4A4F-99F5-E7AE759848D8";
shapes = (
{
closed = 1;
nodes = (
(821,43,o),
(821,556,cs),
(821,1161,ls),
(821,1676,o),
(556,1723,o),
(397,1723,cs),
(134,1723,o),
(44,1559,o),
(44,1361,cs),
(44,1288,o),
(57,1231,o),
(72,1157,c),
(272,1157,l),
(272,1239,ls),
(272,1426,o),
(318,1520,o),
(404,1520,cs),
(499,1520,o),
(550,1452,o),
(550,1233,cs),
(550,463,ls),
(550,251,o),
(501,188,o),
(396,188,cs),
(323,188,o),
(269,247,o),
(269,384,cs),
(269,546,l),
(42,546,l),
(42,388,ls),
(42,114,o),
(167,-14,o),
(396,-15,cs),
(562,-15,o)
);
}
);
width = 928;
}
);
unicode = 390;
},
{
color = 6;
glyphname = Oslash;
kernRight = KO_Oslash;
lastChange = "2023-03-03 08:40:39 +0000";
layers = (
{
anchors = (
{
name = bottom;
pos = (515,0);
},
{
name = btm;
pos = (514,-100);
},
{
name = top;
pos = (517,1708);
}
);
background = {
anchors = (
{
name = bottom;
pos = (515,0);
},
{
name = btm;
pos = (514,-100);
},
{
name = top;
pos = (517,1708);
}
);
shapes = (
{
closed = 1;
nodes = (
(169,-171,l),
(294,-171,l),
(345,19,l),
(404,-8,o),
(465,-15,o),
(517,-15,cs),
(666,-15,o),
(933,67,o),
(933,606,cs),
(933,1109,ls),
(933,1380,o),
(871,1531,o),
(789,1616,c),
(855,1858,l),
(730,1858,l),
(684,1689,l),
(625,1714,o),
(566,1720,o),
(517,1720,cs),
(357,1720,o),
(96,1656,o),
(96,1109,cs),
(96,606,ls),
(96,335,o),
(158,181,o),
(240,94,c)
);
},
{
closed = 1;
nodes = (
(365,544,l),
(365,1216,l),
(365,1438,o),
(412,1523,o),
(517,1523,cs),
(564,1523,o),
(598,1505,o),
(622,1465,c)
);
},
{
closed = 1;
nodes = (
(408,244,c),
(666,1165,l),
(666,482,ls),
(666,268,o),
(619,188,o),
(517,188,cs),
(469,188,o),
(432,205,o)
);
}
);
};
layerId = "043639A7-E62C-4A4F-99F5-E7AE759848D8";
shapes = (
{
closed = 1;
nodes = (
(169,-171,l),
(294,-171,l),
(345,19,l),
(404,-8,o),
(465,-15,o),
(517,-15,cs),
(666,-15,o),
(933,67,o),
(933,606,cs),
(933,1109,ls),
(933,1380,o),
(871,1531,o),
(789,1616,c),
(855,1858,l),
(730,1858,l),
(684,1689,l),
(625,1714,o),
(566,1720,o),
(517,1720,cs),
(357,1720,o),
(96,1656,o),
(96,1109,cs),
(96,606,ls),
(96,335,o),
(158,181,o),
(240,94,c)
);
},
{
closed = 1;
nodes = (
(365,544,l),
(365,1216,l),
(365,1438,o),
(412,1523,o),
(517,1523,cs),
(564,1523,o),
(598,1505,o),
(622,1465,c)
);
},
{
closed = 1;
nodes = (
(408,244,c),
(666,1165,l),
(666,482,ls),
(666,268,o),
(619,188,o),
(517,188,cs),
(469,188,o),
(432,205,o)
);
}
);
width = 1029;
}
);
unicode = 216;
userData = {
com.typemytype.robofont.mark = (
1,
0.6,
0.6,
1
);
};
},
{
color = 10;
glyphname = Oslashacute;
kernRight = KO_Oslash;
lastChange = "2023-03-03 08:40:48 +0000";
layers = (
{
background = {
anchors = (
{
name = bottom;
pos = (515,0);
},
{
name = btm;
pos = (514,-100);
},
{
name = top;
pos = (517,2086);
}
);
shapes = (
{
closed = 1;
nodes = (
(169,-171,l),
(294,-171,l),
(345,19,l),
(404,-8,o),
(465,-15,o),
(517,-15,cs),
(666,-15,o),
(933,67,o),
(933,606,cs),
(933,1109,ls),
(933,1380,o),
(871,1531,o),
(789,1616,c),
(855,1858,l),
(730,1858,l),
(684,1689,l),
(625,1714,o),
(566,1720,o),
(517,1720,cs),
(357,1720,o),
(96,1656,o),
(96,1109,cs),
(96,606,ls),
(96,335,o),
(158,181,o),
(240,94,c)
);
},
{
closed = 1;
nodes = (
(365,544,l),
(365,1216,l),
(365,1438,o),
(412,1523,o),
(517,1523,cs),
(564,1523,o),
(598,1505,o),
(622,1465,c)
);
},
{
closed = 1;
nodes = (
(408,244,c),
(666,1165,l),
(666,482,ls),
(666,268,o),
(619,188,o),
(517,188,cs),
(469,188,o),
(432,205,o)
);
},
{
closed = 1;
nodes = (
(802,2029,l),
(633,2156,l),
(392,1870,l),
(517,1776,l)
);
}
);
};
layerId = "043639A7-E62C-4A4F-99F5-E7AE759848D8";
shapes = (
{
ref = Oslash;
},
{
pos = (392,0);
ref = acutecomb.case;
}
);
width = 1029;
}
);
unicode = 510;
userData = {
com.typemytype.robofont.mark = (
0.6,
0.986,
1,
1
);
};
},
{
color = 10;
glyphname = Otilde;
kernLeft = KO_Otilde;
kernRight = KO_Odieresis;
lastChange = "2023-03-03 08:40:48 +0000";
layers = (
{
background = {
anchors = (
{
name = bottom;
pos = (537,0);
},
{
name = center;
pos = (537,854);
},
{
name = ogonek;
pos = (961,10);
},
{
name = top;
pos = (537,2056);
},
{
name = topleft;
pos = (27,1708);
},
{
name = topright;
pos = (666,1708);
}
);
shapes = (
{
closed = 1;
nodes = (
(539,-15,cs),
(688,-15,o),
(960,49,o),
(960,556,cs),
(960,1161,ls),
(960,1684,o),
(693,1723,o),
(539,1723,cs),
(379,1723,o),
(114,1676,o),
(114,1161,cs),
(114,556,ls),
(114,43,o),
(373,-15,o)
);
},
{
closed = 1;
nodes = (
(539,188,cs),
(434,188,o),
(385,251,o),
(385,463,cs),
(385,1233,ls),
(385,1452,o),
(434,1520,o),
(539,1520,cs),
(641,1520,o),
(690,1452,o),
(690,1233,cs),
(690,463,ls),
(690,251,o),
(641,188,o)
);
},
{
closed = 1;
nodes = (
(674,1788,cs),
(764,1788,o),
(847,1854,o),
(847,1981,cs),
(847,2004,o),
(844,2034,o),
(838,2077,c),
(706,2077,l),
(706,2006,ls),
(706,1970,o),
(688,1954,o),
(664,1954,cs),
(629,1954,o),
(588,2004,o),
(559,2034,c),
(515,2074,o),
(475,2095,o),
(410,2095,cs),
(312,2095,o),
(226,2043,o),
(226,1879,cs),
(226,1867,o),
(229,1819,o),
(229,1805,c),
(377,1805,l),
(377,1871,ls),
(377,1907,o),
(390,1929,o),
(413,1929,cs),
(447,1929,o),
(461,1902,o),
(514,1851,c),
(561,1810,o),
(606,1788,o)
);
}
);
};
layerId = "043639A7-E62C-4A4F-99F5-E7AE759848D8";
shapes = (
{
ref = O;
},
{
pos = (105,0);
ref = tildecomb.case;
}
);
width = 1074;
}
);
unicode = 213;
userData = {
com.typemytype.robofont.mark = (
0.6,
0.986,
1,
1
);
};
},
{
color = 10;
glyphname = Otildeacute;
lastChange = "2023-03-03 08:40:48 +0000";
layers = (
{
background = {
anchors = (
{
name = bottom;
pos = (537,0);
},
{
name = center;
pos = (537,854);
},
{
name = ogonek;
pos = (961,10);
},
{
name = top;
pos = (537,2434);
},
{
name = topleft;
pos = (27,1708);
},
{
name = topright;
pos = (666,1708);
}
);
shapes = (
{
closed = 1;
nodes = (
(539,-15,cs),
(688,-15,o),
(960,49,o),
(960,556,cs),
(960,1161,ls),
(960,1684,o),
(693,1723,o),
(539,1723,cs),
(379,1723,o),
(114,1676,o),
(114,1161,cs),
(114,556,ls),
(114,43,o),
(373,-15,o)
);
},
{
closed = 1;
nodes = (
(539,188,cs),
(434,188,o),
(385,251,o),
(385,463,cs),
(385,1233,ls),
(385,1452,o),
(434,1520,o),
(539,1520,cs),
(641,1520,o),
(690,1452,o),
(690,1233,cs),
(690,463,ls),
(690,251,o),
(641,188,o)
);
},
{
closed = 1;
nodes = (
(674,1788,cs),
(764,1788,o),
(847,1854,o),
(847,1981,cs),
(847,2004,o),
(844,2034,o),
(838,2077,c),
(706,2077,l),
(706,2006,ls),
(706,1970,o),
(688,1954,o),
(664,1954,cs),
(629,1954,o),
(588,2004,o),
(559,2034,c),
(515,2074,o),
(475,2095,o),
(410,2095,cs),
(312,2095,o),
(226,2043,o),
(226,1879,cs),
(226,1867,o),
(229,1819,o),
(229,1805,c),
(377,1805,l),
(377,1871,ls),
(377,1907,o),
(390,1929,o),
(413,1929,cs),
(447,1929,o),
(461,1902,o),
(514,1851,c),
(561,1810,o),
(606,1788,o)
);
},
{
closed = 1;
nodes = (
(822,2377,l),
(653,2504,l),
(412,2218,l),
(537,2124,l)
);
}
);
};
layerId = "043639A7-E62C-4A4F-99F5-E7AE759848D8";
shapes = (
{
ref = O;
},
{
pos = (105,0);
ref = tildecomb.case;
},
{
pos = (412,348);
ref = acutecomb.case;
}
);
width = 1074;
}
);
unicode = 7756;
},
{
color = 6;
glyphname = OE;
kernRight = KO_OE;
lastChange = "2023-03-03 08:40:39 +0000";
layers = (
{
anchors = (
{
name = bottom;
pos = (680,0);
},
{
name = top;
pos = (680,1708);
}
);
background = {
anchors = (
{
name = bottom;
pos = (680,0);
},
{
name = top;
pos = (680,1708);
}
);
shapes = (
{
closed = 1;
nodes = (
(98,631,l),
(98,28,o),
(442,0,o),
(639,0,cs),
(1293,0,l),
(1293,205,l),
(899,205,l),
(899,771,l),
(1206,771,l),
(1206,995,l),
(899,995,l),
(899,1503,l),
(1293,1503,l),
(1293,1708,l),
(639,1708,ls),
(442,1708,o),
(98,1679,o),
(98,1077,cs)
);
},
{
closed = 1;
nodes = (
(626,187,l),
(438,187,o),
(366,303,o),
(366,582,c),
(366,1123,ls),
(366,1394,o),
(429,1521,o),
(626,1521,cs),
(642,1521,l),
(642,187,l)
);
}
);
};
layerId = "043639A7-E62C-4A4F-99F5-E7AE759848D8";
shapes = (
{
closed = 1;
nodes = (
(98,631,l),
(98,28,o),
(442,0,o),
(639,0,cs),
(1293,0,l),
(1293,205,l),
(899,205,l),
(899,771,l),
(1206,771,l),
(1206,995,l),
(899,995,l),
(899,1503,l),
(1293,1503,l),
(1293,1708,l),
(639,1708,ls),
(442,1708,o),
(98,1679,o),
(98,1077,cs)
);
},
{
closed = 1;
nodes = (
(626,187,l),
(438,187,o),
(366,303,o),
(366,582,c),
(366,1123,ls),
(366,1394,o),
(429,1521,o),
(626,1521,cs),
(642,1521,l),
(642,187,l)
);
}
);
width = 1360;
}
);
unicode = 338;
},
{
color = 6;
glyphname = P;
kernLeft = KO_H;
kernRight = KO_P;
lastChange = "2023-03-03 08:40:39 +0000";
layers = (
{
anchors = (
{
name = bottom;
pos = (498,0);
},
{
name = top;
pos = (498,1708);
}
);
background = {
anchors = (
{
name = bottom;
pos = (498,0);
},
{
name = top;
pos = (498,1708);
}
);
shapes = (
{
closed = 1;
nodes = (
(141,0,l),
(400,0,l),
(400,520,l),
(425,520,ls),
(624,520,o),
(927,571,o),
(927,1119,cs),
(927,1179,l),
(927,1682,o),
(597,1708,o),
(400,1708,cs),
(141,1708,l)
);
},
{
closed = 1;
nodes = (
(400,710,l),
(400,1521,l),
(413,1521,l),
(609,1521,o),
(661,1428,o),
(661,1225,cs),
(661,1071,ls),
(661,814,o),
(601,710,o),
(413,710,cs)
);
}
);
};
layerId = "043639A7-E62C-4A4F-99F5-E7AE759848D8";
shapes = (
{
closed = 1;
nodes = (
(141,0,l),
(400,0,l),
(400,520,l),
(425,520,ls),
(624,520,o),
(927,571,o),
(927,1119,cs),
(927,1179,l),
(927,1682,o),
(597,1708,o),
(400,1708,cs),
(141,1708,l)
);
},
{
closed = 1;
nodes = (
(400,710,l),
(400,1521,l),
(413,1521,l),
(609,1521,o),
(661,1428,o),
(661,1225,cs),
(661,1071,ls),
(661,814,o),
(601,710,o),
(413,710,cs)
);
}
);
width = 995;
}
);
metricLeft = H;
unicode = 80;
userData = {
com.typemytype.robofont.mark = (
1,
0.6,
0.6,
1
);
};
},
{
color = 6;
glyphname = Thorn;
kernLeft = KO_H;
kernRight = KO_Thorn;
lastChange = "2023-03-03 08:40:39 +0000";
layers = (
{
anchors = (
{
name = bottom;
pos = (498,0);
},
{
name = top;
pos = (498,1708);
}
);
background = {
anchors = (
{
name = bottom;
pos = (498,0);
},
{
name = top;
pos = (498,1708);
}
);
shapes = (
{
closed = 1;
nodes = (
(141,0,l),
(400,0,l),
(400,264,l),
(425,264,l),
(624,264,o),
(927,317,o),
(927,864,cs),
(927,925,l),
(927,1428,o),
(602,1453,o),
(409,1453,cs),
(398,1453,l),
(398,1708,l),
(141,1708,l)
);
},
{
closed = 1;
nodes = (
(400,455,l),
(400,1265,l),
(413,1265,l),
(609,1265,o),
(661,1173,o),
(661,970,cs),
(661,817,ls),
(661,559,o),
(601,455,o),
(413,455,c)
);
}
);
};
layerId = "043639A7-E62C-4A4F-99F5-E7AE759848D8";
shapes = (
{
closed = 1;
nodes = (
(141,0,l),
(400,0,l),
(400,264,l),
(425,264,l),
(624,264,o),
(927,317,o),
(927,864,cs),
(927,925,l),
(927,1428,o),
(602,1453,o),
(409,1453,cs),
(398,1453,l),
(398,1708,l),
(141,1708,l)
);
},
{
closed = 1;
nodes = (
(400,455,l),
(400,1265,l),
(413,1265,l),
(609,1265,o),
(661,1173,o),
(661,970,cs),
(661,817,ls),
(661,559,o),
(601,455,o),
(413,455,c)
);
}
);
width = 995;
}
);
unicode = 222;
},
{
color = 6;
glyphname = Q;
kernLeft = KO_C;
kernRight = KO_Q;
lastChange = "2023-03-03 08:40:39 +0000";
layers = (
{
anchors = (
{
name = bottom;
pos = (530,0);
},
{
name = top;
pos = (530,1708);
}
);
background = {
anchors = (
{
name = bottom;
pos = (530,0);
},
{
name = top;
pos = (530,1708);
}
);
shapes = (
{
closed = 1;
nodes = (
(427,-72,l),
(427,-327,o),
(611,-346,o),
(695,-346,cs),
(759,-346,o),
(813,-337,o),
(878,-308,c),
(878,-168,l),
(862,-169,o),
(842,-169,o),
(824,-169,cs),
(706,-169,o),
(645,-146,o),
(645,-16,cs),
(645,78,l),
(427,78,l)
);
},
{
closed = 1;
nodes = (
(532,-15,cs),
(681,-15,o),
(953,49,o),
(953,556,cs),
(953,1161,ls),
(953,1684,o),
(686,1723,o),
(532,1723,cs),
(372,1723,o),
(107,1676,o),
(107,1161,cs),
(107,556,ls),
(107,43,o),
(366,-15,o)
);
},
{
closed = 1;
nodes = (
(532,188,cs),
(427,188,o),
(378,251,o),
(378,463,cs),
(378,1233,ls),
(378,1452,o),
(427,1520,o),
(532,1520,cs),
(634,1520,o),
(683,1452,o),
(683,1233,cs),
(683,463,ls),
(683,251,o),
(634,188,o)
);
}
);
};
layerId = "043639A7-E62C-4A4F-99F5-E7AE759848D8";
shapes = (
{
closed = 1;
nodes = (
(427,-72,l),
(427,-327,o),
(611,-346,o),
(695,-346,cs),
(759,-346,o),
(813,-337,o),
(878,-308,c),
(878,-168,l),
(862,-169,o),
(842,-169,o),
(824,-169,cs),
(706,-169,o),
(645,-146,o),
(645,-16,cs),
(645,78,l),
(427,78,l)
);
},
{
closed = 1;
nodes = (
(532,-15,cs),
(681,-15,o),
(953,49,o),
(953,556,cs),
(953,1161,ls),
(953,1684,o),
(686,1723,o),
(532,1723,cs),
(372,1723,o),
(107,1676,o),
(107,1161,cs),
(107,556,ls),
(107,43,o),
(366,-15,o)
);
},
{
closed = 1;
nodes = (
(532,188,cs),
(427,188,o),
(378,251,o),
(378,463,cs),
(378,1233,ls),
(378,1452,o),
(427,1520,o),
(532,1520,cs),
(634,1520,o),
(683,1452,o),
(683,1233,cs),
(683,463,ls),
(683,251,o),
(634,188,o)
);
}
);
width = 1060;
}
);
unicode = 81;
userData = {
com.typemytype.robofont.mark = (
1,
0.6,
0.6,
1
);
};
},
{
color = 6;
glyphname = R;
kernLeft = KO_H;
kernRight = KO_R;
lastChange = "2023-03-03 08:40:39 +0000";
layers = (
{
anchors = (
{
name = bottom;
pos = (530,0);
},
{
name = top;
pos = (530,1708);
}
);
background = {
anchors = (
{
name = bottom;
pos = (530,0);
},
{
name = top;
pos = (530,1708);
}
);
shapes = (
{
closed = 1;
nodes = (
(141,0,l),
(400,0,l),
(400,639,l),
(578,639,l),
(459,720,l),
(724,0,l),
(1000,0,l),
(678,783,l),
(708,678,l),
(866,747,o),
(950,912,o),
(950,1177,cs),
(950,1220,l),
(950,1684,o),
(619,1708,o),
(422,1708,cs),
(141,1708,l)
);
},
{
closed = 1;
nodes = (
(400,826,l),
(400,1521,l),
(434,1521,l),
(631,1521,o),
(683,1441,o),
(683,1265,cs),
(683,1130,ls),
(683,900,o),
(623,826,o),
(434,826,cs)
);
}
);
};
layerId = "043639A7-E62C-4A4F-99F5-E7AE759848D8";
shapes = (
{
closed = 1;
nodes = (
(141,0,l),
(400,0,l),
(400,639,l),
(578,639,l),
(459,720,l),
(724,0,l),
(1000,0,l),
(678,783,l),
(708,678,l),
(866,747,o),
(950,912,o),
(950,1177,cs),
(950,1220,l),
(950,1684,o),
(619,1708,o),
(422,1708,cs),
(141,1708,l)
);
},
{
closed = 1;
nodes = (
(400,826,l),
(400,1521,l),
(434,1521,l),
(631,1521,o),
(683,1441,o),
(683,1265,cs),
(683,1130,ls),
(683,900,o),
(623,826,o),
(434,826,cs)
);
}
);
width = 1060;
}
);
unicode = 82;
userData = {
KernOnName = R;
com.typemytype.robofont.mark = (
1,
0.6,
0.6,
1
);
};
},
{
color = 10;
glyphname = Racute;
kernLeft = KO_H;
kernRight = KO_R;
lastChange = "2023-03-03 08:40:48 +0000";
layers = (
{
background = {
anchors = (
{
name = bottom;
pos = (530,0);
},
{
name = top;
pos = (530,2086);
}
);
shapes = (
{
closed = 1;
nodes = (
(141,0,l),
(400,0,l),
(400,639,l),
(578,639,l),
(459,720,l),
(724,0,l),
(1000,0,l),
(678,783,l),
(708,678,l),
(866,747,o),
(950,912,o),
(950,1177,cs),
(950,1220,l),
(950,1684,o),
(619,1708,o),
(422,1708,cs),
(141,1708,l)
);
},
{
closed = 1;
nodes = (
(400,826,l),
(400,1521,l),
(434,1521,l),
(631,1521,o),
(683,1441,o),
(683,1265,cs),
(683,1130,ls),
(683,900,o),
(623,826,o),
(434,826,cs)
);
},
{
closed = 1;
nodes = (
(815,2029,l),
(646,2156,l),
(405,1870,l),
(530,1776,l)
);
}
);
};
layerId = "043639A7-E62C-4A4F-99F5-E7AE759848D8";
shapes = (
{
ref = R;
},
{
pos = (405,0);
ref = acutecomb.case;
}
);
width = 1060;
}
);
unicode = 340;
userData = {
com.typemytype.robofont.mark = (
0.6,
0.986,
1,
1
);
};
},
{
color = 10;
glyphname = Rcaron;
kernLeft = KO_H;
kernRight = KO_R;
lastChange = "2023-03-03 08:40:48 +0000";
layers = (
{
background = {
anchors = (
{
name = bottom;
pos = (530,0);
},
{
name = top;
pos = (530,2086);
}
);
shapes = (
{
closed = 1;
nodes = (
(141,0,l),
(400,0,l),
(400,639,l),
(578,639,l),
(459,720,l),
(724,0,l),
(1000,0,l),
(678,783,l),
(708,678,l),
(866,747,o),
(950,912,o),
(950,1177,cs),
(950,1220,l),
(950,1684,o),
(619,1708,o),
(422,1708,cs),
(141,1708,l)
);
},
{
closed = 1;
nodes = (
(400,826,l),
(400,1521,l),
(434,1521,l),
(631,1521,o),
(683,1441,o),
(683,1265,cs),
(683,1130,ls),
(683,900,o),
(623,826,o),
(434,826,cs)
);
},
{
closed = 1;
nodes = (
(577,1956,l),
(537,1900,l),
(497,1956,l),
(413,2086,l),
(165,2086,l),
(415,1776,l),
(649,1776,l),
(895,2086,l),
(646,2086,l)
);
}
);
};
layerId = "043639A7-E62C-4A4F-99F5-E7AE759848D8";
shapes = (
{
ref = R;
},
{
pos = (535,0);
ref = caroncomb.case;
}
);
width = 1060;
}
);
unicode = 344;
userData = {
com.typemytype.robofont.mark = (
0.6,
0.986,
1,
1
);
};
},
{
color = 10;
glyphname = Rcommaaccent;
kernLeft = KO_H;
kernRight = KO_R;
lastChange = "2023-03-03 08:40:48 +0000";
layers = (
{
background = {
anchors = (
{
name = bottom;
pos = (530,-531);
},
{
name = top;
pos = (530,1708);
}
);
shapes = (
{
closed = 1;
nodes = (
(141,0,l),
(400,0,l),
(400,639,l),
(578,639,l),
(459,720,l),
(724,0,l),
(1000,0,l),
(678,783,l),
(708,678,l),
(866,747,o),
(950,912,o),
(950,1177,cs),
(950,1220,l),
(950,1684,o),
(619,1708,o),
(422,1708,cs),
(141,1708,l)
);
},
{
closed = 1;
nodes = (
(400,826,l),
(400,1521,l),
(434,1521,l),
(631,1521,o),
(683,1441,o),
(683,1265,cs),
(683,1130,ls),
(683,900,o),
(623,826,o),
(434,826,cs)
);
},
{
closed = 1;
nodes = (
(440,-97,l),
(378,-531,l),
(573,-531,l),
(681,-97,l)
);
}
);
};
layerId = "043639A7-E62C-4A4F-99F5-E7AE759848D8";
shapes = (
{
ref = R;
},
{
pos = (545,0);
ref = commaaccentcomb;
}
);
width = 1060;
}
);
unicode = 342;
userData = {
com.typemytype.robofont.mark = (
0.6,
0.986,
1,
1
);
};
},
{
color = 10;
glyphname = Rdotbelowmacron;
kernRight = KO_R;
lastChange = "2023-03-03 08:40:48 +0000";
layers = (
{
background = {
anchors = (
{
name = bottom;
pos = (530,-425);
},
{
name = top;
pos = (530,1998);
}
);
shapes = (
{
closed = 1;
nodes = (
(141,0,l),
(400,0,l),
(400,639,l),
(578,639,l),
(459,720,l),
(724,0,l),
(1000,0,l),
(678,783,l),
(708,678,l),
(866,747,o),
(950,912,o),
(950,1177,cs),
(950,1220,l),
(950,1684,o),
(619,1708,o),
(422,1708,cs),
(141,1708,l)
);
},
{
closed = 1;
nodes = (
(400,826,l),
(400,1521,l),
(434,1521,l),
(631,1521,o),
(683,1441,o),
(683,1265,cs),
(683,1130,ls),
(683,900,o),
(623,826,o),
(434,826,cs)
);
},
{
closed = 1;
nodes = (
(373,-364,o),
(435,-425,o),
(528,-425,cs),
(627,-425,o),
(686,-361,o),
(686,-257,cs),
(686,-146,o),
(628,-94,o),
(529,-94,cs),
(434,-94,o),
(373,-138,o),
(373,-257,cs)
);
},
{
closed = 1;
nodes = (
(218,1835,l),
(841,1835,l),
(841,2028,l),
(218,2028,l)
);
}
);
};
layerId = "043639A7-E62C-4A4F-99F5-E7AE759848D8";
shapes = (
{
ref = R;
},
{
pos = (529,0);
ref = dotbelowcomb;
},
{
pos = (529,0);
ref = macroncomb.case;
}
);
width = 1060;
}
);
unicode = 7772;
},
{
color = 10;
glyphname = Rmacronbelow;
kernLeft = KO_H;
kernRight = KO_R;
lastChange = "2023-03-03 08:40:48 +0000";
layers = (
{
background = {
anchors = (
{
name = bottom;
pos = (530,-319);
},
{
name = top;
pos = (530,1708);
}
);
shapes = (
{
closed = 1;
nodes = (
(141,0,l),
(400,0,l),
(400,639,l),
(578,639,l),
(459,720,l),
(724,0,l),
(1000,0,l),
(678,783,l),
(708,678,l),
(866,747,o),
(950,912,o),
(950,1177,cs),
(950,1220,l),
(950,1684,o),
(619,1708,o),
(422,1708,cs),
(141,1708,l)
);
},
{
closed = 1;
nodes = (
(400,826,l),
(400,1521,l),
(434,1521,l),
(631,1521,o),
(683,1441,o),
(683,1265,cs),
(683,1130,ls),
(683,900,o),
(623,826,o),
(434,826,cs)
);
},
{
closed = 1;
nodes = (
(218,-349,l),
(841,-349,l),
(841,-156,l),
(218,-156,l)
);
}
);
};
layerId = "043639A7-E62C-4A4F-99F5-E7AE759848D8";
shapes = (
{
ref = R;
},
{
pos = (188,0);
ref = macronbelowcomb;
}
);
width = 1060;
}
);
unicode = 7774;
},
{
color = 6;
glyphname = S;
kernLeft = KO_S;
kernRight = KO_S;
lastChange = "2023-03-03 08:40:39 +0000";
layers = (
{
anchors = (
{
name = bottom;
pos = (468,0);
},
{
name = top;
pos = (468,1708);
}
);
background = {
anchors = (
{
name = bottom;
pos = (468,0);
},
{
name = top;
pos = (468,1708);
}
);
shapes = (
{
closed = 1;
nodes = (
(65,346,cs),
(65,164,o),
(156,-16,o),
(465,-16,cs),
(715,-16,o),
(879,132,o),
(879,368,cs),
(879,525,o),
(819,643,o),
(709,786,cs),
(408,1168,ls),
(358,1234,o),
(323,1294,o),
(323,1371,cs),
(323,1461,o),
(374,1520,o),
(471,1520,cs),
(578,1520,o),
(637,1419,o),
(637,1239,cs),
(637,1157,l),
(837,1157,l),
(851,1231,o),
(865,1288,o),
(865,1361,cs),
(865,1534,o),
(773,1723,o),
(471,1723,cs),
(222,1723,o),
(73,1563,o),
(73,1336,cs),
(73,1185,o),
(128,1069,o),
(223,947,cs),
(493,608,ls),
(588,487,o),
(613,410,o),
(613,334,cs),
(613,238,o),
(561,187,o),
(463,187,cs),
(347,187,o),
(292,288,o),
(292,472,cs),
(292,548,l),
(91,548,l),
(74,477,o),
(65,419,o)
);
}
);
};
layerId = "043639A7-E62C-4A4F-99F5-E7AE759848D8";
shapes = (
{
closed = 1;
nodes = (
(65,346,cs),
(65,164,o),
(156,-16,o),
(465,-16,cs),
(715,-16,o),
(879,132,o),
(879,368,cs),
(879,525,o),
(819,643,o),
(709,786,cs),
(408,1168,ls),
(358,1234,o),
(323,1294,o),
(323,1371,cs),
(323,1461,o),
(374,1520,o),
(471,1520,cs),
(578,1520,o),
(637,1419,o),
(637,1239,cs),
(637,1157,l),
(837,1157,l),
(851,1231,o),
(865,1288,o),
(865,1361,cs),
(865,1534,o),
(773,1723,o),
(471,1723,cs),
(222,1723,o),
(73,1563,o),
(73,1336,cs),
(73,1185,o),
(128,1069,o),
(223,947,cs),
(493,608,ls),
(588,487,o),
(613,410,o),
(613,334,cs),
(613,238,o),
(561,187,o),
(463,187,cs),
(347,187,o),
(292,288,o),
(292,472,cs),
(292,548,l),
(91,548,l),
(74,477,o),
(65,419,o)
);
}
);
width = 936;
}
);
unicode = 83;
userData = {
KernOnName = S;
com.typemytype.robofont.guides = (
{
angle = 90;
isGlobal = 0;
magnetic = 5;
x = 939;
y = 0;
},
{
angle = 90;
isGlobal = 0;
magnetic = 5;
x = 464;
y = 0;
},
{
angle = 90;
isGlobal = 0;
magnetic = 5;
x = 76;
y = 0;
}
);
com.typemytype.robofont.mark = (
1,
0.6,
0.6,
1
);
};
},
{
color = 10;
glyphname = Sacute;
kernLeft = KO_S;
kernRight = KO_S;
lastChange = "2023-03-03 08:40:48 +0000";
layers = (
{
background = {
anchors = (
{
name = bottom;
pos = (468,0);
},
{
name = top;
pos = (468,2086);
}
);
shapes = (
{
closed = 1;
nodes = (
(65,346,cs),
(65,164,o),
(156,-16,o),
(465,-16,cs),
(715,-16,o),
(879,132,o),
(879,368,cs),
(879,525,o),
(819,643,o),
(709,786,cs),
(408,1168,ls),
(358,1234,o),
(323,1294,o),
(323,1371,cs),
(323,1461,o),
(374,1520,o),
(471,1520,cs),
(578,1520,o),
(637,1419,o),
(637,1239,cs),
(637,1157,l),
(837,1157,l),
(851,1231,o),
(865,1288,o),
(865,1361,cs),
(865,1534,o),
(773,1723,o),
(471,1723,cs),
(222,1723,o),
(73,1563,o),
(73,1336,cs),
(73,1185,o),
(128,1069,o),
(223,947,cs),
(493,608,ls),
(588,487,o),
(613,410,o),
(613,334,cs),
(613,238,o),
(561,187,o),
(463,187,cs),
(347,187,o),
(292,288,o),
(292,472,cs),
(292,548,l),
(91,548,l),
(74,477,o),
(65,419,o)
);
},
{
closed = 1;
nodes = (
(753,2029,l),
(584,2156,l),
(343,1870,l),
(468,1776,l)
);
}
);
};
layerId = "043639A7-E62C-4A4F-99F5-E7AE759848D8";
shapes = (
{
ref = S;
},
{
pos = (343,0);
ref = acutecomb.case;
}
);
width = 936;
}
);
unicode = 346;
userData = {
com.typemytype.robofont.mark = (
0.6,
0.986,
1,
1
);
};
},
{
color = 6;
glyphname = Saltillo;
lastChange = "2023-03-03 08:40:39 +0000";
layers = (
{
background = {
shapes = (
{
closed = 1;
nodes = (
(141,607,l),
(400,607,l),
(400,1708,l),
(141,1708,l)
);
}
);
};
layerId = "043639A7-E62C-4A4F-99F5-E7AE759848D8";
shapes = (
{
closed = 1;
nodes = (
(141,607,l),
(400,607,l),
(400,1708,l),
(141,1708,l)
);
}
);
width = 541;
}
);
unicode = 42891;
},
{
color = 10;
glyphname = Scaron;
kernLeft = KO_S;
kernRight = KO_S;
lastChange = "2023-03-03 08:40:48 +0000";
layers = (
{
background = {
anchors = (
{
name = bottom;
pos = (468,0);
},
{
name = top;
pos = (468,2086);
}
);
shapes = (
{
closed = 1;
nodes = (
(65,346,cs),
(65,164,o),
(156,-16,o),
(465,-16,cs),
(715,-16,o),
(879,132,o),
(879,368,cs),
(879,525,o),
(819,643,o),
(709,786,cs),
(408,1168,ls),
(358,1234,o),
(323,1294,o),
(323,1371,cs),
(323,1461,o),
(374,1520,o),
(471,1520,cs),
(578,1520,o),
(637,1419,o),
(637,1239,cs),
(637,1157,l),
(837,1157,l),
(851,1231,o),
(865,1288,o),
(865,1361,cs),
(865,1534,o),
(773,1723,o),
(471,1723,cs),
(222,1723,o),
(73,1563,o),
(73,1336,cs),
(73,1185,o),
(128,1069,o),
(223,947,cs),
(493,608,ls),
(588,487,o),
(613,410,o),
(613,334,cs),
(613,238,o),
(561,187,o),
(463,187,cs),
(347,187,o),
(292,288,o),
(292,472,cs),
(292,548,l),
(91,548,l),
(74,477,o),
(65,419,o)
);
},
{
closed = 1;
nodes = (
(515,1956,l),
(475,1900,l),
(435,1956,l),
(351,2086,l),
(103,2086,l),
(353,1776,l),
(587,1776,l),
(833,2086,l),
(584,2086,l)
);
}
);
};
layerId = "043639A7-E62C-4A4F-99F5-E7AE759848D8";
shapes = (
{
ref = S;
},
{
pos = (473,0);
ref = caroncomb.case;
}
);
width = 936;
}
);
unicode = 352;
userData = {
com.typemytype.robofont.mark = (
0.6,
0.798,
1,
1
);
};
},
{
color = 10;
glyphname = Scedilla;
kernLeft = KO_S;
kernRight = KO_S;
lastChange = "2023-03-03 08:40:48 +0000";
layers = (
{
background = {
anchors = (
{
name = bottom;
pos = (468,-419);
},
{
name = top;
pos = (468,1708);
}
);
shapes = (
{
closed = 1;
nodes = (
(65,346,cs),
(65,164,o),
(156,-16,o),
(465,-16,cs),
(715,-16,o),
(879,132,o),
(879,368,cs),
(879,525,o),
(819,643,o),
(709,786,cs),
(408,1168,ls),
(358,1234,o),
(323,1294,o),
(323,1371,cs),
(323,1461,o),
(374,1520,o),
(471,1520,cs),
(578,1520,o),
(637,1419,o),
(637,1239,cs),
(637,1157,l),
(837,1157,l),
(851,1231,o),
(865,1288,o),
(865,1361,cs),
(865,1534,o),
(773,1723,o),
(471,1723,cs),
(222,1723,o),
(73,1563,o),
(73,1336,cs),
(73,1185,o),
(128,1069,o),
(223,947,cs),
(493,608,ls),
(588,487,o),
(613,410,o),
(613,334,cs),
(613,238,o),
(561,187,o),
(463,187,cs),
(347,187,o),
(292,288,o),
(292,472,cs),
(292,548,l),
(91,548,l),
(74,477,o),
(65,419,o)
);
},
{
closed = 1;
nodes = (
(477,13,l),
(474,-56,ls),
(467,-211,o),
(410,-239,o),
(320,-239,cs),
(309,-239,o),
(298,-239,o),
(287,-238,c),
(280,-389,l),
(335,-410,o),
(376,-419,o),
(431,-419,cs),
(494,-419,o),
(672,-389,o),
(655,-104,cs),
(648,13,l)
);
}
);
};
layerId = "043639A7-E62C-4A4F-99F5-E7AE759848D8";
shapes = (
{
ref = S;
},
{
pos = (542,0);
ref = cedillacomb;
}
);
width = 936;
}
);
unicode = 350;
userData = {
com.typemytype.robofont.mark = (
0.6,
0.986,
1,
1
);
};
},
{
color = 10;
glyphname = Scircumflex;
kernRight = KO_S;
lastChange = "2023-03-03 08:40:48 +0000";
layers = (
{
background = {
anchors = (
{
name = bottom;
pos = (468,0);
},
{
name = top;
pos = (468,2086);
}
);
shapes = (
{
closed = 1;
nodes = (
(65,346,cs),
(65,164,o),
(156,-16,o),
(465,-16,cs),
(715,-16,o),
(879,132,o),
(879,368,cs),
(879,525,o),
(819,643,o),
(709,786,cs),
(408,1168,ls),
(358,1234,o),
(323,1294,o),
(323,1371,cs),
(323,1461,o),
(374,1520,o),
(471,1520,cs),
(578,1520,o),
(637,1419,o),
(637,1239,cs),
(637,1157,l),
(837,1157,l),
(851,1231,o),
(865,1288,o),
(865,1361,cs),
(865,1534,o),
(773,1723,o),
(471,1723,cs),
(222,1723,o),
(73,1563,o),
(73,1336,cs),
(73,1185,o),
(128,1069,o),
(223,947,cs),
(493,608,ls),
(588,487,o),
(613,410,o),
(613,334,cs),
(613,238,o),
(561,187,o),
(463,187,cs),
(347,187,o),
(292,288,o),
(292,472,cs),
(292,548,l),
(91,548,l),
(74,477,o),
(65,419,o)
);
},
{
closed = 1;
nodes = (
(584,1806,l),
(833,1806,l),
(587,2116,l),
(353,2116,l),
(103,1806,l),
(351,1806,l),
(435,1936,l),
(475,1992,l),
(515,1936,l)
);
}
);
};
layerId = "043639A7-E62C-4A4F-99F5-E7AE759848D8";
shapes = (
{
ref = S;
},
{
pos = (473,0);
ref = circumflexcomb.case;
}
);
width = 936;
}
);
unicode = 348;
userData = {
com.typemytype.robofont.mark = (
0.6,
0.986,
1,
1
);
};
},
{
color = 10;
glyphname = Scommaaccent;
kernLeft = KO_S;
kernRight = KO_S;
lastChange = "2023-03-03 08:40:48 +0000";
layers = (
{
background = {
anchors = (
{
name = bottom;
pos = (468,-531);
},
{
name = top;
pos = (468,1708);
}
);
shapes = (
{
closed = 1;
nodes = (
(65,346,cs),
(65,164,o),
(156,-16,o),
(465,-16,cs),
(715,-16,o),
(879,132,o),
(879,368,cs),
(879,525,o),
(819,643,o),
(709,786,cs),
(408,1168,ls),
(358,1234,o),
(323,1294,o),
(323,1371,cs),
(323,1461,o),
(374,1520,o),
(471,1520,cs),
(578,1520,o),
(637,1419,o),
(637,1239,cs),
(637,1157,l),
(837,1157,l),
(851,1231,o),
(865,1288,o),
(865,1361,cs),
(865,1534,o),
(773,1723,o),
(471,1723,cs),
(222,1723,o),
(73,1563,o),
(73,1336,cs),
(73,1185,o),
(128,1069,o),
(223,947,cs),
(493,608,ls),
(588,487,o),
(613,410,o),
(613,334,cs),
(613,238,o),
(561,187,o),
(463,187,cs),
(347,187,o),
(292,288,o),
(292,472,cs),
(292,548,l),
(91,548,l),
(74,477,o),
(65,419,o)
);
},
{
closed = 1;
nodes = (
(378,-97,l),
(316,-531,l),
(511,-531,l),
(619,-97,l)
);
}
);
};
layerId = "043639A7-E62C-4A4F-99F5-E7AE759848D8";
shapes = (
{
ref = S;
},
{
pos = (483,0);
ref = commaaccentcomb;
}
);
width = 936;
}
);
unicode = 536;
userData = {
com.typemytype.robofont.mark = (
0.6,
0.986,
1,
1
);
};
},
{
color = 10;
glyphname = Sdotbelow;
kernLeft = KO_S;
kernRight = KO_S;
lastChange = "2023-03-03 08:40:48 +0000";
layers = (
{
background = {
anchors = (
{
name = bottom;
pos = (468,-425);
},
{
name = top;
pos = (468,1708);
}
);
shapes = (
{
closed = 1;
nodes = (
(65,346,cs),
(65,164,o),
(156,-16,o),
(465,-16,cs),
(715,-16,o),
(879,132,o),
(879,368,cs),
(879,525,o),
(819,643,o),
(709,786,cs),
(408,1168,ls),
(358,1234,o),
(323,1294,o),
(323,1371,cs),
(323,1461,o),
(374,1520,o),
(471,1520,cs),
(578,1520,o),
(637,1419,o),
(637,1239,cs),
(637,1157,l),
(837,1157,l),
(851,1231,o),
(865,1288,o),
(865,1361,cs),
(865,1534,o),
(773,1723,o),
(471,1723,cs),
(222,1723,o),
(73,1563,o),
(73,1336,cs),
(73,1185,o),
(128,1069,o),
(223,947,cs),
(493,608,ls),
(588,487,o),
(613,410,o),
(613,334,cs),
(613,238,o),
(561,187,o),
(463,187,cs),
(347,187,o),
(292,288,o),
(292,472,cs),
(292,548,l),
(91,548,l),
(74,477,o),
(65,419,o)
);
},
{
closed = 1;
nodes = (
(311,-364,o),
(373,-425,o),
(466,-425,cs),
(565,-425,o),
(624,-361,o),
(624,-257,cs),
(624,-146,o),
(566,-94,o),
(467,-94,cs),
(372,-94,o),
(311,-138,o),
(311,-257,cs)
);
}
);
};
layerId = "043639A7-E62C-4A4F-99F5-E7AE759848D8";
shapes = (
{
ref = S;
},
{
pos = (467,0);
ref = dotbelowcomb;
}
);
width = 936;
}
);
unicode = 7778;
},
